<?xml version="1.0" encoding="UTF-8"?>
<svg width="929px" height="641px" viewBox="0 0 929 641" version="1.1" xmlns="http://www.w3.org/2000/svg" xmlns:xlink="http://www.w3.org/1999/xlink">
    <!-- Generator: Sketch 45.2 (43514) - http://www.bohemiancoding.com/sketch -->
    <title>dematic-compare</title>
    <desc>Created with Sketch.</desc>
    <defs>
        <rect id="path-1" x="0" y="0" width="254.147455" height="635.369783" rx="11.1111111"></rect>
        <rect id="path-3" x="11.1111111" y="113.333333" width="231.279674" height="139.499653" rx="11.1111111"></rect>
        <rect id="path-4" x="11.1111111" y="264.444444" width="231.279674" height="139.499653" rx="11.1111111"></rect>
        <rect id="path-5" x="11.1111111" y="415.555556" width="231.279674" height="139.499653" rx="11.1111111"></rect>
        <rect id="path-6" x="11.1111111" y="566.666667" width="231.279674" height="139.499653" rx="11.1111111"></rect>
        <rect id="path-7" x="0" y="0" width="254.147455" height="635.369783" rx="11.1111111"></rect>
        <rect id="path-9" x="11.1111111" y="113.333333" width="231.279674" height="139.499653" rx="11.1111111"></rect>
        <rect id="path-10" x="11.1111111" y="264.444444" width="231.279674" height="139.499653" rx="11.1111111"></rect>
        <rect id="path-11" x="11.1111111" y="415.555556" width="231.279674" height="139.499653" rx="11.1111111"></rect>
        <rect id="path-12" x="11.1111111" y="566.666667" width="231.279674" height="139.499653" rx="11.1111111"></rect>
        <rect id="path-13" x="0" y="0" width="254.147455" height="635.369783" rx="11.1111111"></rect>
        <rect id="path-15" x="11.1111111" y="113.333333" width="231.279674" height="139.499653" rx="11.1111111"></rect>
        <rect id="path-16" x="11.1111111" y="264.444444" width="231.279674" height="139.499653" rx="11.1111111"></rect>
        <rect id="path-17" x="11.1111111" y="415.555556" width="231.279674" height="139.499653" rx="11.1111111"></rect>
        <rect id="path-18" x="11.1111111" y="566.666667" width="231.279674" height="139.499653" rx="11.1111111"></rect>
    </defs>
    <g id="Visuals-Asset-Export" stroke="none" stroke-width="1" fill="none" fill-rule="evenodd">
        <g id="Dematic" transform="translate(-1471.000000, -15895.000000)">
            <g id="dematic-compare" transform="translate(1471.000000, 15898.000000)">
                <g id="Group-6" transform="translate(16.777778, 0.000000)">
                    <mask id="mask-2" fill="white">
                        <use xlink:href="#path-1"></use>
                    </mask>
                    <rect stroke="#4A90E2" stroke-width="2.22222222" x="-1.11111111" y="-1.11111111" width="256.369677" height="637.592005" rx="11.1111111"></rect>
                    <g id="Rectangle-8-Copy-4" mask="url(#mask-2)">
                        <use fill="#FFFFFF" fill-rule="evenodd" xlink:href="#path-3"></use>
                        <rect stroke="#4A90E2" stroke-width="2.22222222" x="12.2222222" y="114.444444" width="229.057452" height="137.277431" rx="11.1111111"></rect>
                    </g>
                    <g id="Rectangle-8-Copy-5" mask="url(#mask-2)">
                        <use fill="#FFFFFF" fill-rule="evenodd" xlink:href="#path-4"></use>
                        <rect stroke="#4A90E2" stroke-width="2.22222222" x="12.2222222" y="265.555556" width="229.057452" height="137.277431" rx="11.1111111"></rect>
                    </g>
                    <g id="Rectangle-8-Copy-8" mask="url(#mask-2)">
                        <use fill="#FFFFFF" fill-rule="evenodd" xlink:href="#path-5"></use>
                        <rect stroke="#4A90E2" stroke-width="2.22222222" x="12.2222222" y="416.666667" width="229.057452" height="137.277431" rx="11.1111111"></rect>
                    </g>
                    <g id="Rectangle-8-Copy-11" mask="url(#mask-2)">
                        <use fill="#FFFFFF" fill-rule="evenodd" xlink:href="#path-6"></use>
                        <rect stroke="#4A90E2" stroke-width="2.22222222" x="12.2222222" y="567.777778" width="229.057452" height="137.277431" rx="11.1111111"></rect>
                    </g>
                    <path d="M39.3055556,66.0511111 L40.5144444,63.6711111 C41.8240806,64.7792648 43.1651783,65.5725902 44.5377778,66.0511111 C45.9103772,66.529632 47.5033243,66.7688889 49.3166667,66.7688889 C51.4574181,66.7688889 53.1070312,66.3533375 54.2655556,65.5222222 C55.4240799,64.691107 56.0033333,63.5200076 56.0033333,62.0088889 C56.0033333,61.127403 55.7262991,60.4096324 55.1722222,59.8555556 C54.6181454,59.3014787 53.8877823,58.8607424 52.9811111,58.5333333 C52.0744399,58.2059243 50.8529706,57.8659277 49.3166667,57.5133333 C47.2514712,57.0348124 45.5577844,56.5311138 44.2355556,56.0022222 C42.9133267,55.4733307 41.8429671,54.7177827 41.0244444,53.7355556 C40.2059218,52.7533284 39.7966667,51.4688968 39.7966667,49.8822222 C39.7966667,48.3711036 40.1933294,47.0300059 40.9866667,45.8588889 C41.780004,44.6877719 42.913326,43.7811143 44.3866667,43.1388889 C45.8600074,42.4966635 47.5662866,42.1755556 49.5055556,42.1755556 C51.3440833,42.1755556 53.062955,42.4651823 54.6622222,43.0444444 C56.2614895,43.6237066 57.6151796,44.4548094 58.7233333,45.5377778 L57.5522222,47.9177778 C56.2929567,46.8348094 55.0148213,46.0477802 53.7177778,45.5566667 C52.4207343,45.0655531 51.0166742,44.82 49.5055556,44.82 C47.44036,44.82 45.8222281,45.2544401 44.6511111,46.1233333 C43.4799941,46.9922266 42.8944444,48.2073996 42.8944444,49.7688889 C42.8944444,51.1037104 43.4107356,52.1111077 44.4433333,52.7911111 C45.4759311,53.4711145 47.037397,54.050368 49.1277778,54.5288889 C51.4196411,55.0829657 53.2203638,55.5929606 54.53,56.0588889 C55.8396362,56.5248171 56.9288845,57.223699 57.7977778,58.1555556 C58.666671,59.0874121 59.1011111,60.3340663 59.1011111,61.8955556 C59.1011111,63.4066742 58.7044484,64.7288832 57.9111111,65.8622222 C57.1177738,66.9955612 55.9781556,67.8707377 54.4922222,68.4877778 C53.0062889,69.1048179 51.2685285,69.4133333 49.2788889,69.4133333 C45.1233126,69.4133333 41.7989014,68.2926038 39.3055556,66.0511111 Z M66.7322222,68.2044444 C65.3974007,67.4236998 64.3711147,66.321859 63.6533333,64.8988889 C62.935552,63.4759188 62.5766667,61.807417 62.5766667,59.8933333 C62.5766667,57.9792497 62.9481444,56.2981554 63.6911111,54.85 C64.4340778,53.4018446 65.4792525,52.2748188 66.8266667,51.4688889 C68.1740808,50.6629589 69.7544354,50.26 71.5677778,50.26 C72.801858,50.26 74.0107348,50.4803682 75.1944444,50.9211111 C76.3781541,51.3618541 77.3351815,51.9474038 78.0655556,52.6777778 L77.0455556,54.9444444 C75.3077691,53.534067 73.5448238,52.8288889 71.7566667,52.8288889 C69.8677683,52.8288889 68.3944497,53.4459198 67.3366667,54.68 C66.2788836,55.9140802 65.75,57.6518406 65.75,59.8933333 C65.75,62.1096407 66.2788836,63.8222162 67.3366667,65.0311111 C68.3944497,66.240006 69.8677683,66.8444444 71.7566667,66.8444444 C73.5448238,66.8444444 75.3077691,66.1392663 77.0455556,64.7288889 L78.0655556,66.9955556 C77.2848109,67.7259296 76.3025985,68.305183 75.1188889,68.7333333 C73.9351793,69.1614836 72.71371,69.3755556 71.4544444,69.3755556 C69.641102,69.3755556 68.0670437,68.9851891 66.7322222,68.2044444 Z M97.1811111,60.3844444 L83.7322222,60.3844444 C83.8329635,62.5251959 84.4122169,64.1433279 85.47,65.2388889 C86.5277831,66.3344499 88.0262866,66.8822222 89.9655556,66.8822222 C92.106307,66.8822222 94.0707318,66.1518592 95.8588889,64.6911111 L96.8788889,66.92 C96.0729589,67.6755593 95.0403767,68.2737015 93.7811111,68.7144444 C92.5218456,69.1551874 91.237414,69.3755556 89.9277778,69.3755556 C87.0566523,69.3755556 84.7963045,68.5318603 83.1466667,66.8444444 C81.4970288,65.1570286 80.6722222,62.8274223 80.6722222,59.8555556 C80.6722222,57.9666572 81.0374038,56.2981554 81.7677778,54.85 C82.4981518,53.4018446 83.5244378,52.2748188 84.8466667,51.4688889 C86.1688955,50.6629589 87.6736953,50.26 89.3611111,50.26 C91.8040863,50.26 93.7181412,51.0596216 95.1033333,52.6588889 C96.4885254,54.2581561 97.1811111,56.4555416 97.1811111,59.2511111 L97.1811111,60.3844444 Z M85.5266667,54.1511111 C84.5570322,55.1585236 83.984075,56.5814723 83.8077778,58.42 L94.4988889,58.42 C94.4485183,56.556287 93.982597,55.127042 93.1011111,54.1322222 C92.2196252,53.1374024 90.9855635,52.64 89.3988889,52.64 C87.787029,52.64 86.4963011,53.1436987 85.5266667,54.1511111 Z M117.543333,57.5511111 L117.543333,69.1111111 L114.483333,69.1111111 L114.483333,57.74 C114.483333,56.0273988 114.149633,54.7807446 113.482222,54 C112.814811,53.2192554 111.750748,52.8288889 110.29,52.8288889 C108.602584,52.8288889 107.25519,53.34518 106.247778,54.3777778 C105.240365,55.4103755 104.736667,56.8081393 104.736667,58.5711111 L104.736667,69.1111111 L101.676667,69.1111111 L101.676667,50.7133333 L104.698889,50.7133333 L104.698889,53.7355556 C105.303336,52.6022166 106.147032,51.7396326 107.23,51.1477778 C108.312968,50.555923 109.54703,50.26 110.932222,50.26 C115.339652,50.26 117.543333,52.6903461 117.543333,57.5511111 Z M135.846667,52.0544444 C136.992598,53.2507467 137.565556,55.0703582 137.565556,57.5133333 L137.565556,69.1111111 L134.581111,69.1111111 L134.581111,65.9755556 C134.10259,67.0585239 133.372227,67.895923 132.39,68.4877778 C131.407773,69.0796326 130.274451,69.3755556 128.99,69.3755556 C127.80629,69.3755556 126.717042,69.1362987 125.722222,68.6577778 C124.727402,68.1792569 123.940373,67.5118561 123.361111,66.6555556 C122.781849,65.799255 122.492222,64.85482 122.492222,63.8222222 C122.492222,62.4370301 122.844811,61.3603742 123.55,60.5922222 C124.255189,59.8240702 125.413696,59.2700017 127.025556,58.93 C128.637415,58.5899983 130.878875,58.42 133.75,58.42 L134.581111,58.42 L134.581111,57.1733333 C134.581111,55.6370294 134.266299,54.5225961 133.636667,53.83 C133.007034,53.1374039 131.987044,52.7911111 130.576667,52.7911111 C128.461101,52.7911111 126.358159,53.4459194 124.267778,54.7555556 L123.247778,52.5266667 C124.20482,51.8466633 125.35703,51.298891 126.704444,50.8833333 C128.051859,50.4677757 129.355179,50.26 130.614444,50.26 C132.956678,50.26 134.700735,50.8581422 135.846667,52.0544444 Z M133.126667,65.4277778 C134.096301,64.4077727 134.581111,63.0918599 134.581111,61.48 L134.581111,60.3844444 L133.901111,60.3844444 C131.684804,60.3844444 129.997413,60.4788879 128.838889,60.6677778 C127.680365,60.8566676 126.855558,61.1714793 126.364444,61.6122222 C125.873331,62.0529652 125.627778,62.7014772 125.627778,63.5577778 C125.627778,64.5400049 125.986663,65.352219 126.704444,65.9944444 C127.422226,66.6366699 128.322587,66.9577778 129.405556,66.9577778 C130.916674,66.9577778 132.157032,66.4477829 133.126667,65.4277778 Z M153.583333,52.9044444 L151.581111,53.0933333 C149.692213,53.2696305 148.32593,53.8614764 147.482222,54.8688889 C146.638514,55.8763013 146.216667,57.1229555 146.216667,58.6088889 L146.216667,69.1111111 L143.156667,69.1111111 L143.156667,50.7133333 L146.141111,50.7133333 L146.141111,53.9244444 C147.173709,51.783693 149.201096,50.5874087 152.223333,50.3355556 L153.318889,50.26 L153.583333,52.9044444 Z M156.492222,50.7133333 L159.552222,50.7133333 L159.552222,69.1111111 L156.492222,69.1111111 L156.492222,50.7133333 Z M159.892222,42.7422222 L159.892222,46.18 L156.19,46.18 L156.19,42.7422222 L159.892222,42.7422222 Z M168.297778,68.2044444 C166.975549,67.4236998 165.955559,66.3092665 165.237778,64.8611111 C164.519996,63.4129557 164.161111,61.7318614 164.161111,59.8177778 C164.161111,57.9036941 164.519996,56.2225998 165.237778,54.7744444 C165.955559,53.3262891 166.975549,52.2118558 168.297778,51.4311111 C169.620007,50.6503665 171.149991,50.26 172.887778,50.26 C174.625564,50.26 176.161845,50.6503665 177.496667,51.4311111 C178.831488,52.2118558 179.857774,53.3262891 180.575556,54.7744444 C181.293337,56.2225998 181.652222,57.9036941 181.652222,59.8177778 C181.652222,61.7318614 181.293337,63.4129557 180.575556,64.8611111 C179.857774,66.3092665 178.831488,67.4236998 177.496667,68.2044444 C176.161845,68.9851891 174.625564,69.3755556 172.887778,69.3755556 C171.149991,69.3755556 169.620007,68.9851891 168.297778,68.2044444 Z M177.062222,65.05 C178.031857,63.8536977 178.516667,62.1096411 178.516667,59.8177778 C178.516667,57.5762851 178.02556,55.8448209 177.043333,54.6233333 C176.061106,53.4018457 174.675935,52.7911111 172.887778,52.7911111 C171.099621,52.7911111 169.714449,53.4018457 168.732222,54.6233333 C167.749995,55.8448209 167.258889,57.5762851 167.258889,59.8177778 C167.258889,62.0844558 167.743699,63.8222162 168.713333,65.0311111 C169.682968,66.240006 171.074435,66.8444444 172.887778,66.8444444 C174.70112,66.8444444 176.092588,66.2463023 177.062222,65.05 Z M212.856667,66.5044444 L212.856667,69.1111111 L198.047778,69.1111111 L198.047778,66.5044444 L203.903333,66.5044444 L203.903333,46.3311111 L199.218889,49.2777778 L197.783333,46.8977778 L204.772222,42.4777778 L207.001111,42.4777778 L207.001111,66.5044444 L212.856667,66.5044444 Z" id="Scenario-1" fill="#4A90E2" mask="url(#mask-2)"></path>
                </g>
                <g id="Group-6-Copy-2" transform="translate(299.000000, 0.000000)">
                    <mask id="mask-8" fill="white">
                        <use xlink:href="#path-7"></use>
                    </mask>
                    <rect stroke="#4A90E2" stroke-width="2.22222222" x="-1.11111111" y="-1.11111111" width="256.369677" height="637.592005" rx="11.1111111"></rect>
                    <g id="Rectangle-8-Copy-4" mask="url(#mask-8)">
                        <use fill="#FFFFFF" fill-rule="evenodd" xlink:href="#path-9"></use>
                        <rect stroke="#4A90E2" stroke-width="2.22222222" x="12.2222222" y="114.444444" width="229.057452" height="137.277431" rx="11.1111111"></rect>
                    </g>
                    <g id="Rectangle-8-Copy-6" mask="url(#mask-8)">
                        <use fill="#FFFFFF" fill-rule="evenodd" xlink:href="#path-10"></use>
                        <rect stroke="#4A90E2" stroke-width="2.22222222" x="12.2222222" y="265.555556" width="229.057452" height="137.277431" rx="11.1111111"></rect>
                    </g>
                    <g id="Rectangle-8-Copy-9" mask="url(#mask-8)">
                        <use fill="#FFFFFF" fill-rule="evenodd" xlink:href="#path-11"></use>
                        <rect stroke="#4A90E2" stroke-width="2.22222222" x="12.2222222" y="416.666667" width="229.057452" height="137.277431" rx="11.1111111"></rect>
                    </g>
                    <g id="Rectangle-8-Copy-12" mask="url(#mask-8)">
                        <use fill="#FFFFFF" fill-rule="evenodd" xlink:href="#path-12"></use>
                        <rect stroke="#4A90E2" stroke-width="2.22222222" x="12.2222222" y="567.777778" width="229.057452" height="137.277431" rx="11.1111111"></rect>
                    </g>
                    <path d="M39.3055556,66.0511111 L40.5144444,63.6711111 C41.8240806,64.7792648 43.1651783,65.5725902 44.5377778,66.0511111 C45.9103772,66.529632 47.5033243,66.7688889 49.3166667,66.7688889 C51.4574181,66.7688889 53.1070312,66.3533375 54.2655556,65.5222222 C55.4240799,64.691107 56.0033333,63.5200076 56.0033333,62.0088889 C56.0033333,61.127403 55.7262991,60.4096324 55.1722222,59.8555556 C54.6181454,59.3014787 53.8877823,58.8607424 52.9811111,58.5333333 C52.0744399,58.2059243 50.8529706,57.8659277 49.3166667,57.5133333 C47.2514712,57.0348124 45.5577844,56.5311138 44.2355556,56.0022222 C42.9133267,55.4733307 41.8429671,54.7177827 41.0244444,53.7355556 C40.2059218,52.7533284 39.7966667,51.4688968 39.7966667,49.8822222 C39.7966667,48.3711036 40.1933294,47.0300059 40.9866667,45.8588889 C41.780004,44.6877719 42.913326,43.7811143 44.3866667,43.1388889 C45.8600074,42.4966635 47.5662866,42.1755556 49.5055556,42.1755556 C51.3440833,42.1755556 53.062955,42.4651823 54.6622222,43.0444444 C56.2614895,43.6237066 57.6151796,44.4548094 58.7233333,45.5377778 L57.5522222,47.9177778 C56.2929567,46.8348094 55.0148213,46.0477802 53.7177778,45.5566667 C52.4207343,45.0655531 51.0166742,44.82 49.5055556,44.82 C47.44036,44.82 45.8222281,45.2544401 44.6511111,46.1233333 C43.4799941,46.9922266 42.8944444,48.2073996 42.8944444,49.7688889 C42.8944444,51.1037104 43.4107356,52.1111077 44.4433333,52.7911111 C45.4759311,53.4711145 47.037397,54.050368 49.1277778,54.5288889 C51.4196411,55.0829657 53.2203638,55.5929606 54.53,56.0588889 C55.8396362,56.5248171 56.9288845,57.223699 57.7977778,58.1555556 C58.666671,59.0874121 59.1011111,60.3340663 59.1011111,61.8955556 C59.1011111,63.4066742 58.7044484,64.7288832 57.9111111,65.8622222 C57.1177738,66.9955612 55.9781556,67.8707377 54.4922222,68.4877778 C53.0062889,69.1048179 51.2685285,69.4133333 49.2788889,69.4133333 C45.1233126,69.4133333 41.7989014,68.2926038 39.3055556,66.0511111 Z M66.7322222,68.2044444 C65.3974007,67.4236998 64.3711147,66.321859 63.6533333,64.8988889 C62.935552,63.4759188 62.5766667,61.807417 62.5766667,59.8933333 C62.5766667,57.9792497 62.9481444,56.2981554 63.6911111,54.85 C64.4340778,53.4018446 65.4792525,52.2748188 66.8266667,51.4688889 C68.1740808,50.6629589 69.7544354,50.26 71.5677778,50.26 C72.801858,50.26 74.0107348,50.4803682 75.1944444,50.9211111 C76.3781541,51.3618541 77.3351815,51.9474038 78.0655556,52.6777778 L77.0455556,54.9444444 C75.3077691,53.534067 73.5448238,52.8288889 71.7566667,52.8288889 C69.8677683,52.8288889 68.3944497,53.4459198 67.3366667,54.68 C66.2788836,55.9140802 65.75,57.6518406 65.75,59.8933333 C65.75,62.1096407 66.2788836,63.8222162 67.3366667,65.0311111 C68.3944497,66.240006 69.8677683,66.8444444 71.7566667,66.8444444 C73.5448238,66.8444444 75.3077691,66.1392663 77.0455556,64.7288889 L78.0655556,66.9955556 C77.2848109,67.7259296 76.3025985,68.305183 75.1188889,68.7333333 C73.9351793,69.1614836 72.71371,69.3755556 71.4544444,69.3755556 C69.641102,69.3755556 68.0670437,68.9851891 66.7322222,68.2044444 Z M97.1811111,60.3844444 L83.7322222,60.3844444 C83.8329635,62.5251959 84.4122169,64.1433279 85.47,65.2388889 C86.5277831,66.3344499 88.0262866,66.8822222 89.9655556,66.8822222 C92.106307,66.8822222 94.0707318,66.1518592 95.8588889,64.6911111 L96.8788889,66.92 C96.0729589,67.6755593 95.0403767,68.2737015 93.7811111,68.7144444 C92.5218456,69.1551874 91.237414,69.3755556 89.9277778,69.3755556 C87.0566523,69.3755556 84.7963045,68.5318603 83.1466667,66.8444444 C81.4970288,65.1570286 80.6722222,62.8274223 80.6722222,59.8555556 C80.6722222,57.9666572 81.0374038,56.2981554 81.7677778,54.85 C82.4981518,53.4018446 83.5244378,52.2748188 84.8466667,51.4688889 C86.1688955,50.6629589 87.6736953,50.26 89.3611111,50.26 C91.8040863,50.26 93.7181412,51.0596216 95.1033333,52.6588889 C96.4885254,54.2581561 97.1811111,56.4555416 97.1811111,59.2511111 L97.1811111,60.3844444 Z M85.5266667,54.1511111 C84.5570322,55.1585236 83.984075,56.5814723 83.8077778,58.42 L94.4988889,58.42 C94.4485183,56.556287 93.982597,55.127042 93.1011111,54.1322222 C92.2196252,53.1374024 90.9855635,52.64 89.3988889,52.64 C87.787029,52.64 86.4963011,53.1436987 85.5266667,54.1511111 Z M117.543333,57.5511111 L117.543333,69.1111111 L114.483333,69.1111111 L114.483333,57.74 C114.483333,56.0273988 114.149633,54.7807446 113.482222,54 C112.814811,53.2192554 111.750748,52.8288889 110.29,52.8288889 C108.602584,52.8288889 107.25519,53.34518 106.247778,54.3777778 C105.240365,55.4103755 104.736667,56.8081393 104.736667,58.5711111 L104.736667,69.1111111 L101.676667,69.1111111 L101.676667,50.7133333 L104.698889,50.7133333 L104.698889,53.7355556 C105.303336,52.6022166 106.147032,51.7396326 107.23,51.1477778 C108.312968,50.555923 109.54703,50.26 110.932222,50.26 C115.339652,50.26 117.543333,52.6903461 117.543333,57.5511111 Z M135.846667,52.0544444 C136.992598,53.2507467 137.565556,55.0703582 137.565556,57.5133333 L137.565556,69.1111111 L134.581111,69.1111111 L134.581111,65.9755556 C134.10259,67.0585239 133.372227,67.895923 132.39,68.4877778 C131.407773,69.0796326 130.274451,69.3755556 128.99,69.3755556 C127.80629,69.3755556 126.717042,69.1362987 125.722222,68.6577778 C124.727402,68.1792569 123.940373,67.5118561 123.361111,66.6555556 C122.781849,65.799255 122.492222,64.85482 122.492222,63.8222222 C122.492222,62.4370301 122.844811,61.3603742 123.55,60.5922222 C124.255189,59.8240702 125.413696,59.2700017 127.025556,58.93 C128.637415,58.5899983 130.878875,58.42 133.75,58.42 L134.581111,58.42 L134.581111,57.1733333 C134.581111,55.6370294 134.266299,54.5225961 133.636667,53.83 C133.007034,53.1374039 131.987044,52.7911111 130.576667,52.7911111 C128.461101,52.7911111 126.358159,53.4459194 124.267778,54.7555556 L123.247778,52.5266667 C124.20482,51.8466633 125.35703,51.298891 126.704444,50.8833333 C128.051859,50.4677757 129.355179,50.26 130.614444,50.26 C132.956678,50.26 134.700735,50.8581422 135.846667,52.0544444 Z M133.126667,65.4277778 C134.096301,64.4077727 134.581111,63.0918599 134.581111,61.48 L134.581111,60.3844444 L133.901111,60.3844444 C131.684804,60.3844444 129.997413,60.4788879 128.838889,60.6677778 C127.680365,60.8566676 126.855558,61.1714793 126.364444,61.6122222 C125.873331,62.0529652 125.627778,62.7014772 125.627778,63.5577778 C125.627778,64.5400049 125.986663,65.352219 126.704444,65.9944444 C127.422226,66.6366699 128.322587,66.9577778 129.405556,66.9577778 C130.916674,66.9577778 132.157032,66.4477829 133.126667,65.4277778 Z M153.583333,52.9044444 L151.581111,53.0933333 C149.692213,53.2696305 148.32593,53.8614764 147.482222,54.8688889 C146.638514,55.8763013 146.216667,57.1229555 146.216667,58.6088889 L146.216667,69.1111111 L143.156667,69.1111111 L143.156667,50.7133333 L146.141111,50.7133333 L146.141111,53.9244444 C147.173709,51.783693 149.201096,50.5874087 152.223333,50.3355556 L153.318889,50.26 L153.583333,52.9044444 Z M156.492222,50.7133333 L159.552222,50.7133333 L159.552222,69.1111111 L156.492222,69.1111111 L156.492222,50.7133333 Z M159.892222,42.7422222 L159.892222,46.18 L156.19,46.18 L156.19,42.7422222 L159.892222,42.7422222 Z M168.297778,68.2044444 C166.975549,67.4236998 165.955559,66.3092665 165.237778,64.8611111 C164.519996,63.4129557 164.161111,61.7318614 164.161111,59.8177778 C164.161111,57.9036941 164.519996,56.2225998 165.237778,54.7744444 C165.955559,53.3262891 166.975549,52.2118558 168.297778,51.4311111 C169.620007,50.6503665 171.149991,50.26 172.887778,50.26 C174.625564,50.26 176.161845,50.6503665 177.496667,51.4311111 C178.831488,52.2118558 179.857774,53.3262891 180.575556,54.7744444 C181.293337,56.2225998 181.652222,57.9036941 181.652222,59.8177778 C181.652222,61.7318614 181.293337,63.4129557 180.575556,64.8611111 C179.857774,66.3092665 178.831488,67.4236998 177.496667,68.2044444 C176.161845,68.9851891 174.625564,69.3755556 172.887778,69.3755556 C171.149991,69.3755556 169.620007,68.9851891 168.297778,68.2044444 Z M177.062222,65.05 C178.031857,63.8536977 178.516667,62.1096411 178.516667,59.8177778 C178.516667,57.5762851 178.02556,55.8448209 177.043333,54.6233333 C176.061106,53.4018457 174.675935,52.7911111 172.887778,52.7911111 C171.099621,52.7911111 169.714449,53.4018457 168.732222,54.6233333 C167.749995,55.8448209 167.258889,57.5762851 167.258889,59.8177778 C167.258889,62.0844558 167.743699,63.8222162 168.713333,65.0311111 C169.682968,66.240006 171.074435,66.8444444 172.887778,66.8444444 C174.70112,66.8444444 176.092588,66.2463023 177.062222,65.05 Z M213.498889,66.5044444 L213.498889,69.1111111 L196.347778,69.1111111 L196.347778,66.7688889 L205.678889,56.4933333 C206.938154,55.0829559 207.851108,53.817413 208.417778,52.6966667 C208.984447,51.5759203 209.267778,50.4488946 209.267778,49.3155556 C209.267778,47.8548075 208.839634,46.734078 207.983333,45.9533333 C207.127033,45.1725887 205.918156,44.7822222 204.356667,44.7822222 C201.787765,44.7822222 199.269272,45.802212 196.801111,47.8422222 L195.63,45.4622222 C196.687783,44.4548098 198.016288,43.6551881 199.615556,43.0633333 C201.214823,42.4714785 202.820362,42.1755556 204.432222,42.1755556 C206.875197,42.1755556 208.808141,42.8051789 210.231111,44.0644444 C211.654081,45.32371 212.365556,47.023693 212.365556,49.1644444 C212.365556,50.7007484 212.019263,52.174067 211.326667,53.5844444 C210.634071,54.9948219 209.494452,56.5688802 207.907778,58.3066667 L200.352222,66.5044444 L213.498889,66.5044444 Z" id="Scenario-2" fill="#4A90E2" mask="url(#mask-8)"></path>
                </g>
                <g id="Group-6-Copy-3" transform="translate(581.222222, 0.000000)">
                    <mask id="mask-14" fill="white">
                        <use xlink:href="#path-13"></use>
                    </mask>
                    <rect stroke="#4A90E2" stroke-width="2.22222222" x="-1.11111111" y="-1.11111111" width="256.369677" height="637.592005" rx="11.1111111"></rect>
                    <g id="Rectangle-8-Copy-4" mask="url(#mask-14)">
                        <use fill="#FFFFFF" fill-rule="evenodd" xlink:href="#path-15"></use>
                        <rect stroke="#4A90E2" stroke-width="2.22222222" x="12.2222222" y="114.444444" width="229.057452" height="137.277431" rx="11.1111111"></rect>
                    </g>
                    <g id="Rectangle-8-Copy-7" mask="url(#mask-14)">
                        <use fill="#FFFFFF" fill-rule="evenodd" xlink:href="#path-16"></use>
                        <rect stroke="#4A90E2" stroke-width="2.22222222" x="12.2222222" y="265.555556" width="229.057452" height="137.277431" rx="11.1111111"></rect>
                    </g>
                    <g id="Rectangle-8-Copy-10" mask="url(#mask-14)">
                        <use fill="#FFFFFF" fill-rule="evenodd" xlink:href="#path-17"></use>
                        <rect stroke="#4A90E2" stroke-width="2.22222222" x="12.2222222" y="416.666667" width="229.057452" height="137.277431" rx="11.1111111"></rect>
                    </g>
                    <g id="Rectangle-8-Copy-13" mask="url(#mask-14)">
                        <use fill="#FFFFFF" fill-rule="evenodd" xlink:href="#path-18"></use>
                        <rect stroke="#4A90E2" stroke-width="2.22222222" x="12.2222222" y="567.777778" width="229.057452" height="137.277431" rx="11.1111111"></rect>
                    </g>
                    <path d="M39.3055556,66.0511111 L40.5144444,63.6711111 C41.8240806,64.7792648 43.1651783,65.5725902 44.5377778,66.0511111 C45.9103772,66.529632 47.5033243,66.7688889 49.3166667,66.7688889 C51.4574181,66.7688889 53.1070312,66.3533375 54.2655556,65.5222222 C55.4240799,64.691107 56.0033333,63.5200076 56.0033333,62.0088889 C56.0033333,61.127403 55.7262991,60.4096324 55.1722222,59.8555556 C54.6181454,59.3014787 53.8877823,58.8607424 52.9811111,58.5333333 C52.0744399,58.2059243 50.8529706,57.8659277 49.3166667,57.5133333 C47.2514712,57.0348124 45.5577844,56.5311138 44.2355556,56.0022222 C42.9133267,55.4733307 41.8429671,54.7177827 41.0244444,53.7355556 C40.2059218,52.7533284 39.7966667,51.4688968 39.7966667,49.8822222 C39.7966667,48.3711036 40.1933294,47.0300059 40.9866667,45.8588889 C41.780004,44.6877719 42.913326,43.7811143 44.3866667,43.1388889 C45.8600074,42.4966635 47.5662866,42.1755556 49.5055556,42.1755556 C51.3440833,42.1755556 53.062955,42.4651823 54.6622222,43.0444444 C56.2614895,43.6237066 57.6151796,44.4548094 58.7233333,45.5377778 L57.5522222,47.9177778 C56.2929567,46.8348094 55.0148213,46.0477802 53.7177778,45.5566667 C52.4207343,45.0655531 51.0166742,44.82 49.5055556,44.82 C47.44036,44.82 45.8222281,45.2544401 44.6511111,46.1233333 C43.4799941,46.9922266 42.8944444,48.2073996 42.8944444,49.7688889 C42.8944444,51.1037104 43.4107356,52.1111077 44.4433333,52.7911111 C45.4759311,53.4711145 47.037397,54.050368 49.1277778,54.5288889 C51.4196411,55.0829657 53.2203638,55.5929606 54.53,56.0588889 C55.8396362,56.5248171 56.9288845,57.223699 57.7977778,58.1555556 C58.666671,59.0874121 59.1011111,60.3340663 59.1011111,61.8955556 C59.1011111,63.4066742 58.7044484,64.7288832 57.9111111,65.8622222 C57.1177738,66.9955612 55.9781556,67.8707377 54.4922222,68.4877778 C53.0062889,69.1048179 51.2685285,69.4133333 49.2788889,69.4133333 C45.1233126,69.4133333 41.7989014,68.2926038 39.3055556,66.0511111 Z M66.7322222,68.2044444 C65.3974007,67.4236998 64.3711147,66.321859 63.6533333,64.8988889 C62.935552,63.4759188 62.5766667,61.807417 62.5766667,59.8933333 C62.5766667,57.9792497 62.9481444,56.2981554 63.6911111,54.85 C64.4340778,53.4018446 65.4792525,52.2748188 66.8266667,51.4688889 C68.1740808,50.6629589 69.7544354,50.26 71.5677778,50.26 C72.801858,50.26 74.0107348,50.4803682 75.1944444,50.9211111 C76.3781541,51.3618541 77.3351815,51.9474038 78.0655556,52.6777778 L77.0455556,54.9444444 C75.3077691,53.534067 73.5448238,52.8288889 71.7566667,52.8288889 C69.8677683,52.8288889 68.3944497,53.4459198 67.3366667,54.68 C66.2788836,55.9140802 65.75,57.6518406 65.75,59.8933333 C65.75,62.1096407 66.2788836,63.8222162 67.3366667,65.0311111 C68.3944497,66.240006 69.8677683,66.8444444 71.7566667,66.8444444 C73.5448238,66.8444444 75.3077691,66.1392663 77.0455556,64.7288889 L78.0655556,66.9955556 C77.2848109,67.7259296 76.3025985,68.305183 75.1188889,68.7333333 C73.9351793,69.1614836 72.71371,69.3755556 71.4544444,69.3755556 C69.641102,69.3755556 68.0670437,68.9851891 66.7322222,68.2044444 Z M97.1811111,60.3844444 L83.7322222,60.3844444 C83.8329635,62.5251959 84.4122169,64.1433279 85.47,65.2388889 C86.5277831,66.3344499 88.0262866,66.8822222 89.9655556,66.8822222 C92.106307,66.8822222 94.0707318,66.1518592 95.8588889,64.6911111 L96.8788889,66.92 C96.0729589,67.6755593 95.0403767,68.2737015 93.7811111,68.7144444 C92.5218456,69.1551874 91.237414,69.3755556 89.9277778,69.3755556 C87.0566523,69.3755556 84.7963045,68.5318603 83.1466667,66.8444444 C81.4970288,65.1570286 80.6722222,62.8274223 80.6722222,59.8555556 C80.6722222,57.9666572 81.0374038,56.2981554 81.7677778,54.85 C82.4981518,53.4018446 83.5244378,52.2748188 84.8466667,51.4688889 C86.1688955,50.6629589 87.6736953,50.26 89.3611111,50.26 C91.8040863,50.26 93.7181412,51.0596216 95.1033333,52.6588889 C96.4885254,54.2581561 97.1811111,56.4555416 97.1811111,59.2511111 L97.1811111,60.3844444 Z M85.5266667,54.1511111 C84.5570322,55.1585236 83.984075,56.5814723 83.8077778,58.42 L94.4988889,58.42 C94.4485183,56.556287 93.982597,55.127042 93.1011111,54.1322222 C92.2196252,53.1374024 90.9855635,52.64 89.3988889,52.64 C87.787029,52.64 86.4963011,53.1436987 85.5266667,54.1511111 Z M117.543333,57.5511111 L117.543333,69.1111111 L114.483333,69.1111111 L114.483333,57.74 C114.483333,56.0273988 114.149633,54.7807446 113.482222,54 C112.814811,53.2192554 111.750748,52.8288889 110.29,52.8288889 C108.602584,52.8288889 107.25519,53.34518 106.247778,54.3777778 C105.240365,55.4103755 104.736667,56.8081393 104.736667,58.5711111 L104.736667,69.1111111 L101.676667,69.1111111 L101.676667,50.7133333 L104.698889,50.7133333 L104.698889,53.7355556 C105.303336,52.6022166 106.147032,51.7396326 107.23,51.1477778 C108.312968,50.555923 109.54703,50.26 110.932222,50.26 C115.339652,50.26 117.543333,52.6903461 117.543333,57.5511111 Z M135.846667,52.0544444 C136.992598,53.2507467 137.565556,55.0703582 137.565556,57.5133333 L137.565556,69.1111111 L134.581111,69.1111111 L134.581111,65.9755556 C134.10259,67.0585239 133.372227,67.895923 132.39,68.4877778 C131.407773,69.0796326 130.274451,69.3755556 128.99,69.3755556 C127.80629,69.3755556 126.717042,69.1362987 125.722222,68.6577778 C124.727402,68.1792569 123.940373,67.5118561 123.361111,66.6555556 C122.781849,65.799255 122.492222,64.85482 122.492222,63.8222222 C122.492222,62.4370301 122.844811,61.3603742 123.55,60.5922222 C124.255189,59.8240702 125.413696,59.2700017 127.025556,58.93 C128.637415,58.5899983 130.878875,58.42 133.75,58.42 L134.581111,58.42 L134.581111,57.1733333 C134.581111,55.6370294 134.266299,54.5225961 133.636667,53.83 C133.007034,53.1374039 131.987044,52.7911111 130.576667,52.7911111 C128.461101,52.7911111 126.358159,53.4459194 124.267778,54.7555556 L123.247778,52.5266667 C124.20482,51.8466633 125.35703,51.298891 126.704444,50.8833333 C128.051859,50.4677757 129.355179,50.26 130.614444,50.26 C132.956678,50.26 134.700735,50.8581422 135.846667,52.0544444 Z M133.126667,65.4277778 C134.096301,64.4077727 134.581111,63.0918599 134.581111,61.48 L134.581111,60.3844444 L133.901111,60.3844444 C131.684804,60.3844444 129.997413,60.4788879 128.838889,60.6677778 C127.680365,60.8566676 126.855558,61.1714793 126.364444,61.6122222 C125.873331,62.0529652 125.627778,62.7014772 125.627778,63.5577778 C125.627778,64.5400049 125.986663,65.352219 126.704444,65.9944444 C127.422226,66.6366699 128.322587,66.9577778 129.405556,66.9577778 C130.916674,66.9577778 132.157032,66.4477829 133.126667,65.4277778 Z M153.583333,52.9044444 L151.581111,53.0933333 C149.692213,53.2696305 148.32593,53.8614764 147.482222,54.8688889 C146.638514,55.8763013 146.216667,57.1229555 146.216667,58.6088889 L146.216667,69.1111111 L143.156667,69.1111111 L143.156667,50.7133333 L146.141111,50.7133333 L146.141111,53.9244444 C147.173709,51.783693 149.201096,50.5874087 152.223333,50.3355556 L153.318889,50.26 L153.583333,52.9044444 Z M156.492222,50.7133333 L159.552222,50.7133333 L159.552222,69.1111111 L156.492222,69.1111111 L156.492222,50.7133333 Z M159.892222,42.7422222 L159.892222,46.18 L156.19,46.18 L156.19,42.7422222 L159.892222,42.7422222 Z M168.297778,68.2044444 C166.975549,67.4236998 165.955559,66.3092665 165.237778,64.8611111 C164.519996,63.4129557 164.161111,61.7318614 164.161111,59.8177778 C164.161111,57.9036941 164.519996,56.2225998 165.237778,54.7744444 C165.955559,53.3262891 166.975549,52.2118558 168.297778,51.4311111 C169.620007,50.6503665 171.149991,50.26 172.887778,50.26 C174.625564,50.26 176.161845,50.6503665 177.496667,51.4311111 C178.831488,52.2118558 179.857774,53.3262891 180.575556,54.7744444 C181.293337,56.2225998 181.652222,57.9036941 181.652222,59.8177778 C181.652222,61.7318614 181.293337,63.4129557 180.575556,64.8611111 C179.857774,66.3092665 178.831488,67.4236998 177.496667,68.2044444 C176.161845,68.9851891 174.625564,69.3755556 172.887778,69.3755556 C171.149991,69.3755556 169.620007,68.9851891 168.297778,68.2044444 Z M177.062222,65.05 C178.031857,63.8536977 178.516667,62.1096411 178.516667,59.8177778 C178.516667,57.5762851 178.02556,55.8448209 177.043333,54.6233333 C176.061106,53.4018457 174.675935,52.7911111 172.887778,52.7911111 C171.099621,52.7911111 169.714449,53.4018457 168.732222,54.6233333 C167.749995,55.8448209 167.258889,57.5762851 167.258889,59.8177778 C167.258889,62.0844558 167.743699,63.8222162 168.713333,65.0311111 C169.682968,66.240006 171.074435,66.8444444 172.887778,66.8444444 C174.70112,66.8444444 176.092588,66.2463023 177.062222,65.05 Z M211.723333,57.7588889 C212.554449,58.8544499 212.97,60.233325 212.97,61.8955556 C212.97,64.2126042 212.182971,66.0385118 210.608889,67.3733333 C209.034807,68.7081548 206.900384,69.3755556 204.205556,69.3755556 C202.492954,69.3755556 200.843341,69.0859288 199.256667,68.5066667 C197.669992,67.9274045 196.335191,67.1214866 195.252222,66.0888889 L196.423333,63.7088889 C198.841123,65.7488991 201.409986,66.7688889 204.13,66.7688889 C206.018898,66.7688889 207.45444,66.3470413 208.436667,65.5033333 C209.418894,64.6596254 209.91,63.4192674 209.91,61.7822222 C209.91,58.5333171 207.87002,56.9088889 203.79,56.9088889 L200.73,56.9088889 L200.73,54.3022222 L203.185556,54.3022222 C205.15001,54.3022222 206.661106,53.8677821 207.718889,52.9988889 C208.776672,52.1299957 209.305556,50.8770452 209.305556,49.24 C209.305556,47.8044373 208.877412,46.7025964 208.021111,45.9344444 C207.164811,45.1662925 205.943341,44.7822222 204.356667,44.7822222 C201.787765,44.7822222 199.269272,45.802212 196.801111,47.8422222 L195.63,45.4622222 C196.712968,44.4296245 198.035177,43.6237066 199.596667,43.0444444 C201.158156,42.4651823 202.782584,42.1755556 204.47,42.1755556 C206.88779,42.1755556 208.808141,42.7862902 210.231111,44.0077778 C211.654081,45.2292654 212.365556,46.8725823 212.365556,48.9377778 C212.365556,50.4740818 211.994078,51.8151795 211.251111,52.9611111 C210.508144,54.1070428 209.469266,54.9318493 208.134444,55.4355556 C209.695934,55.8888912 210.892218,56.6633279 211.723333,57.7588889 Z" id="Scenario-3" fill="#4A90E2" mask="url(#mask-14)"></path>
                </g>
                <path d="M908.753086,372.197208 L923.444444,375.597945 L904.555556,320 L885.666667,375.597945 L900.358025,372.241043 L900.358025,400 L908.753086,400 L908.753086,372.197208 Z" id="Combined-Shape" fill="#4A90E2" transform="translate(904.555556, 360.000000) rotate(-25.000000) translate(-904.555556, -360.000000) "></path>
                <rect id="Rectangle-16" fill-opacity="0.419978487" fill="#4A90E2" x="0.923541178" y="306.813034" width="855.555556" height="55.2628202"></rect>
                <path d="M88.7044444,337.828889 L74.8022222,337.828889 L71.8555556,344.666667 L68.6822222,344.666667 L80.3933333,318.033333 L83.0755556,318.033333 L94.7866667,344.666667 L91.6511111,344.666667 L88.7044444,337.828889 Z M87.6088889,335.26 L81.7533333,321.622222 L75.8977778,335.26 L87.6088889,335.26 Z M107.631111,342.362222 L107.48,344.78 C106.900738,344.880741 106.271115,344.931111 105.591111,344.931111 C103.374804,344.931111 101.706302,344.351858 100.585556,343.193333 C99.4648092,342.034809 98.9044444,340.422973 98.9044444,338.357778 L98.9044444,328.686667 L95.3155556,328.686667 L95.3155556,326.268889 L98.9044444,326.268889 L98.9044444,320.677778 L101.964444,320.677778 L101.964444,326.268889 L107.177778,326.268889 L107.177778,328.686667 L101.964444,328.686667 L101.964444,338.131111 C101.964444,341.027422 103.299246,342.475556 105.968889,342.475556 C106.522966,342.475556 107.077034,342.437778 107.631111,342.362222 Z M120.588889,342.362222 L120.437778,344.78 C119.858516,344.880741 119.228892,344.931111 118.548889,344.931111 C116.332582,344.931111 114.66408,344.351858 113.543333,343.193333 C112.422587,342.034809 111.862222,340.422973 111.862222,338.357778 L111.862222,328.686667 L108.273333,328.686667 L108.273333,326.268889 L111.862222,326.268889 L111.862222,320.677778 L114.922222,320.677778 L114.922222,326.268889 L120.135556,326.268889 L120.135556,328.686667 L114.922222,328.686667 L114.922222,338.131111 C114.922222,341.027422 116.257024,342.475556 118.926667,342.475556 C119.480744,342.475556 120.034812,342.437778 120.588889,342.362222 Z M134.113333,328.46 L132.111111,328.648889 C130.222213,328.825186 128.85593,329.417032 128.012222,330.424444 C127.168514,331.431857 126.746667,332.678511 126.746667,334.164444 L126.746667,344.666667 L123.686667,344.666667 L123.686667,326.268889 L126.671111,326.268889 L126.671111,329.48 C127.703709,327.339249 129.731096,326.142964 132.753333,325.891111 L133.848889,325.815556 L134.113333,328.46 Z M137.022222,326.268889 L140.082222,326.268889 L140.082222,344.666667 L137.022222,344.666667 L137.022222,326.268889 Z M140.422222,318.297778 L140.422222,321.735556 L136.72,321.735556 L136.72,318.297778 L140.422222,318.297778 Z M159.311111,326.986667 C160.545191,327.767411 161.502219,328.875548 162.182222,330.311111 C162.862226,331.746674 163.202222,333.408879 163.202222,335.297778 C163.202222,337.211861 162.862226,338.892956 162.182222,340.341111 C161.502219,341.789266 160.545191,342.916292 159.311111,343.722222 C158.077031,344.528152 156.654082,344.931111 155.042222,344.931111 C153.606659,344.931111 152.353709,344.616299 151.283333,343.986667 C150.212958,343.357034 149.400744,342.462969 148.846667,341.304444 L148.846667,344.666667 L145.786667,344.666667 L145.786667,318.033333 L148.846667,318.033333 L148.846667,329.442222 C149.400744,328.283698 150.212958,327.389633 151.283333,326.76 C152.353709,326.130367 153.606659,325.815556 155.042222,325.815556 C156.654082,325.815556 158.077031,326.205922 159.311111,326.986667 Z M158.593333,340.53 C159.57556,339.283327 160.066667,337.53927 160.066667,335.297778 C160.066667,333.106656 159.57556,331.406673 158.593333,330.197778 C157.611106,328.988883 156.225935,328.384444 154.437778,328.384444 C152.649621,328.384444 151.270746,328.988883 150.301111,330.197778 C149.331477,331.406673 148.846667,333.131841 148.846667,335.373333 C148.846667,337.614826 149.331477,339.34629 150.301111,340.567778 C151.270746,341.789265 152.649621,342.4 154.437778,342.4 C156.225935,342.4 157.611106,341.776673 158.593333,340.53 Z M183.262222,326.268889 L183.262222,344.666667 L180.277778,344.666667 L180.277778,341.531111 C179.698516,342.639265 178.886302,343.48296 177.841111,344.062222 C176.795921,344.641484 175.618525,344.931111 174.308889,344.931111 C172.117767,344.931111 170.468154,344.320376 169.36,343.098889 C168.251846,341.877401 167.697778,340.070382 167.697778,337.677778 L167.697778,326.268889 L170.757778,326.268889 L170.757778,337.602222 C170.757778,339.239267 171.085182,340.441848 171.74,341.21 C172.394818,341.978152 173.4274,342.362222 174.837778,342.362222 C176.449638,342.362222 177.746662,341.839635 178.728889,340.794444 C179.711116,339.749254 180.202222,338.370379 180.202222,336.657778 L180.202222,326.268889 L183.262222,326.268889 Z M198.713333,342.362222 L198.562222,344.78 C197.98296,344.880741 197.353337,344.931111 196.673333,344.931111 C194.457026,344.931111 192.788524,344.351858 191.667778,343.193333 C190.547031,342.034809 189.986667,340.422973 189.986667,338.357778 L189.986667,328.686667 L186.397778,328.686667 L186.397778,326.268889 L189.986667,326.268889 L189.986667,320.677778 L193.046667,320.677778 L193.046667,326.268889 L198.26,326.268889 L198.26,328.686667 L193.046667,328.686667 L193.046667,338.131111 C193.046667,341.027422 194.381468,342.475556 197.051111,342.475556 C197.605188,342.475556 198.159256,342.437778 198.713333,342.362222 Z M217.224444,335.94 L203.775556,335.94 C203.876297,338.080751 204.45555,339.698883 205.513333,340.794444 C206.571116,341.890005 208.06962,342.437778 210.008889,342.437778 C212.14964,342.437778 214.114065,341.707415 215.902222,340.246667 L216.922222,342.475556 C216.116292,343.231115 215.08371,343.829257 213.824444,344.27 C212.565179,344.710743 211.280747,344.931111 209.971111,344.931111 C207.099986,344.931111 204.839638,344.087416 203.19,342.4 C201.540362,340.712584 200.715556,338.382978 200.715556,335.411111 C200.715556,333.522213 201.080737,331.853711 201.811111,330.405556 C202.541485,328.9574 203.567771,327.830374 204.89,327.024444 C206.212229,326.218514 207.717029,325.815556 209.404444,325.815556 C211.84742,325.815556 213.761475,326.615177 215.146667,328.214444 C216.531859,329.813712 217.224444,332.011097 217.224444,334.806667 L217.224444,335.94 Z M205.57,329.706667 C204.600366,330.714079 204.027408,332.137028 203.851111,333.975556 L214.542222,333.975556 C214.491852,332.111843 214.02593,330.682598 213.144444,329.687778 C212.262959,328.692958 211.028897,328.195556 209.442222,328.195556 C207.830362,328.195556 206.539634,328.699254 205.57,329.706667 Z" id="Attribute" fill="#4A90E2"></path>
                <path d="M367.704444,337.828889 L353.802222,337.828889 L350.855556,344.666667 L347.682222,344.666667 L359.393333,318.033333 L362.075556,318.033333 L373.786667,344.666667 L370.651111,344.666667 L367.704444,337.828889 Z M366.608889,335.26 L360.753333,321.622222 L354.897778,335.26 L366.608889,335.26 Z M386.631111,342.362222 L386.48,344.78 C385.900738,344.880741 385.271115,344.931111 384.591111,344.931111 C382.374804,344.931111 380.706302,344.351858 379.585556,343.193333 C378.464809,342.034809 377.904444,340.422973 377.904444,338.357778 L377.904444,328.686667 L374.315556,328.686667 L374.315556,326.268889 L377.904444,326.268889 L377.904444,320.677778 L380.964444,320.677778 L380.964444,326.268889 L386.177778,326.268889 L386.177778,328.686667 L380.964444,328.686667 L380.964444,338.131111 C380.964444,341.027422 382.299246,342.475556 384.968889,342.475556 C385.522966,342.475556 386.077034,342.437778 386.631111,342.362222 Z M399.588889,342.362222 L399.437778,344.78 C398.858516,344.880741 398.228892,344.931111 397.548889,344.931111 C395.332582,344.931111 393.66408,344.351858 392.543333,343.193333 C391.422587,342.034809 390.862222,340.422973 390.862222,338.357778 L390.862222,328.686667 L387.273333,328.686667 L387.273333,326.268889 L390.862222,326.268889 L390.862222,320.677778 L393.922222,320.677778 L393.922222,326.268889 L399.135556,326.268889 L399.135556,328.686667 L393.922222,328.686667 L393.922222,338.131111 C393.922222,341.027422 395.257024,342.475556 397.926667,342.475556 C398.480744,342.475556 399.034812,342.437778 399.588889,342.362222 Z M413.113333,328.46 L411.111111,328.648889 C409.222213,328.825186 407.85593,329.417032 407.012222,330.424444 C406.168514,331.431857 405.746667,332.678511 405.746667,334.164444 L405.746667,344.666667 L402.686667,344.666667 L402.686667,326.268889 L405.671111,326.268889 L405.671111,329.48 C406.703709,327.339249 408.731096,326.142964 411.753333,325.891111 L412.848889,325.815556 L413.113333,328.46 Z M416.022222,326.268889 L419.082222,326.268889 L419.082222,344.666667 L416.022222,344.666667 L416.022222,326.268889 Z M419.422222,318.297778 L419.422222,321.735556 L415.72,321.735556 L415.72,318.297778 L419.422222,318.297778 Z M438.311111,326.986667 C439.545191,327.767411 440.502219,328.875548 441.182222,330.311111 C441.862226,331.746674 442.202222,333.408879 442.202222,335.297778 C442.202222,337.211861 441.862226,338.892956 441.182222,340.341111 C440.502219,341.789266 439.545191,342.916292 438.311111,343.722222 C437.077031,344.528152 435.654082,344.931111 434.042222,344.931111 C432.606659,344.931111 431.353709,344.616299 430.283333,343.986667 C429.212958,343.357034 428.400744,342.462969 427.846667,341.304444 L427.846667,344.666667 L424.786667,344.666667 L424.786667,318.033333 L427.846667,318.033333 L427.846667,329.442222 C428.400744,328.283698 429.212958,327.389633 430.283333,326.76 C431.353709,326.130367 432.606659,325.815556 434.042222,325.815556 C435.654082,325.815556 437.077031,326.205922 438.311111,326.986667 Z M437.593333,340.53 C438.57556,339.283327 439.066667,337.53927 439.066667,335.297778 C439.066667,333.106656 438.57556,331.406673 437.593333,330.197778 C436.611106,328.988883 435.225935,328.384444 433.437778,328.384444 C431.649621,328.384444 430.270746,328.988883 429.301111,330.197778 C428.331477,331.406673 427.846667,333.131841 427.846667,335.373333 C427.846667,337.614826 428.331477,339.34629 429.301111,340.567778 C430.270746,341.789265 431.649621,342.4 433.437778,342.4 C435.225935,342.4 436.611106,341.776673 437.593333,340.53 Z M462.262222,326.268889 L462.262222,344.666667 L459.277778,344.666667 L459.277778,341.531111 C458.698516,342.639265 457.886302,343.48296 456.841111,344.062222 C455.795921,344.641484 454.618525,344.931111 453.308889,344.931111 C451.117767,344.931111 449.468154,344.320376 448.36,343.098889 C447.251846,341.877401 446.697778,340.070382 446.697778,337.677778 L446.697778,326.268889 L449.757778,326.268889 L449.757778,337.602222 C449.757778,339.239267 450.085182,340.441848 450.74,341.21 C451.394818,341.978152 452.4274,342.362222 453.837778,342.362222 C455.449638,342.362222 456.746662,341.839635 457.728889,340.794444 C458.711116,339.749254 459.202222,338.370379 459.202222,336.657778 L459.202222,326.268889 L462.262222,326.268889 Z M477.713333,342.362222 L477.562222,344.78 C476.98296,344.880741 476.353337,344.931111 475.673333,344.931111 C473.457026,344.931111 471.788524,344.351858 470.667778,343.193333 C469.547031,342.034809 468.986667,340.422973 468.986667,338.357778 L468.986667,328.686667 L465.397778,328.686667 L465.397778,326.268889 L468.986667,326.268889 L468.986667,320.677778 L472.046667,320.677778 L472.046667,326.268889 L477.26,326.268889 L477.26,328.686667 L472.046667,328.686667 L472.046667,338.131111 C472.046667,341.027422 473.381468,342.475556 476.051111,342.475556 C476.605188,342.475556 477.159256,342.437778 477.713333,342.362222 Z M496.224444,335.94 L482.775556,335.94 C482.876297,338.080751 483.45555,339.698883 484.513333,340.794444 C485.571116,341.890005 487.06962,342.437778 489.008889,342.437778 C491.14964,342.437778 493.114065,341.707415 494.902222,340.246667 L495.922222,342.475556 C495.116292,343.231115 494.08371,343.829257 492.824444,344.27 C491.565179,344.710743 490.280747,344.931111 488.971111,344.931111 C486.099986,344.931111 483.839638,344.087416 482.19,342.4 C480.540362,340.712584 479.715556,338.382978 479.715556,335.411111 C479.715556,333.522213 480.080737,331.853711 480.811111,330.405556 C481.541485,328.9574 482.567771,327.830374 483.89,327.024444 C485.212229,326.218514 486.717029,325.815556 488.404444,325.815556 C490.84742,325.815556 492.761475,326.615177 494.146667,328.214444 C495.531859,329.813712 496.224444,332.011097 496.224444,334.806667 L496.224444,335.94 Z M484.57,329.706667 C483.600366,330.714079 483.027408,332.137028 482.851111,333.975556 L493.542222,333.975556 C493.491852,332.111843 493.02593,330.682598 492.144444,329.687778 C491.262959,328.692958 490.028897,328.195556 488.442222,328.195556 C486.830362,328.195556 485.539634,328.699254 484.57,329.706667 Z" id="Attribute-Copy" fill="#4A90E2"></path>
                <path d="M654.371111,337.828889 L640.468889,337.828889 L637.522222,344.666667 L634.348889,344.666667 L646.06,318.033333 L648.742222,318.033333 L660.453333,344.666667 L657.317778,344.666667 L654.371111,337.828889 Z M653.275556,335.26 L647.42,321.622222 L641.564444,335.26 L653.275556,335.26 Z M673.297778,342.362222 L673.146667,344.78 C672.567405,344.880741 671.937781,344.931111 671.257778,344.931111 C669.04147,344.931111 667.372969,344.351858 666.252222,343.193333 C665.131476,342.034809 664.571111,340.422973 664.571111,338.357778 L664.571111,328.686667 L660.982222,328.686667 L660.982222,326.268889 L664.571111,326.268889 L664.571111,320.677778 L667.631111,320.677778 L667.631111,326.268889 L672.844444,326.268889 L672.844444,328.686667 L667.631111,328.686667 L667.631111,338.131111 C667.631111,341.027422 668.965913,342.475556 671.635556,342.475556 C672.189632,342.475556 672.743701,342.437778 673.297778,342.362222 Z M686.255556,342.362222 L686.104444,344.78 C685.525182,344.880741 684.895559,344.931111 684.215556,344.931111 C681.999248,344.931111 680.330746,344.351858 679.21,343.193333 C678.089254,342.034809 677.528889,340.422973 677.528889,338.357778 L677.528889,328.686667 L673.94,328.686667 L673.94,326.268889 L677.528889,326.268889 L677.528889,320.677778 L680.588889,320.677778 L680.588889,326.268889 L685.802222,326.268889 L685.802222,328.686667 L680.588889,328.686667 L680.588889,338.131111 C680.588889,341.027422 681.92369,342.475556 684.593333,342.475556 C685.14741,342.475556 685.701479,342.437778 686.255556,342.362222 Z M699.78,328.46 L697.777778,328.648889 C695.888879,328.825186 694.522597,329.417032 693.678889,330.424444 C692.835181,331.431857 692.413333,332.678511 692.413333,334.164444 L692.413333,344.666667 L689.353333,344.666667 L689.353333,326.268889 L692.337778,326.268889 L692.337778,329.48 C693.370376,327.339249 695.397763,326.142964 698.42,325.891111 L699.515556,325.815556 L699.78,328.46 Z M702.688889,326.268889 L705.748889,326.268889 L705.748889,344.666667 L702.688889,344.666667 L702.688889,326.268889 Z M706.088889,318.297778 L706.088889,321.735556 L702.386667,321.735556 L702.386667,318.297778 L706.088889,318.297778 Z M724.977778,326.986667 C726.211858,327.767411 727.168885,328.875548 727.848889,330.311111 C728.528892,331.746674 728.868889,333.408879 728.868889,335.297778 C728.868889,337.211861 728.528892,338.892956 727.848889,340.341111 C727.168885,341.789266 726.211858,342.916292 724.977778,343.722222 C723.743698,344.528152 722.320749,344.931111 720.708889,344.931111 C719.273326,344.931111 718.020376,344.616299 716.95,343.986667 C715.879624,343.357034 715.06741,342.462969 714.513333,341.304444 L714.513333,344.666667 L711.453333,344.666667 L711.453333,318.033333 L714.513333,318.033333 L714.513333,329.442222 C715.06741,328.283698 715.879624,327.389633 716.95,326.76 C718.020376,326.130367 719.273326,325.815556 720.708889,325.815556 C722.320749,325.815556 723.743698,326.205922 724.977778,326.986667 Z M724.26,340.53 C725.242227,339.283327 725.733333,337.53927 725.733333,335.297778 C725.733333,333.106656 725.242227,331.406673 724.26,330.197778 C723.277773,328.988883 721.892602,328.384444 720.104444,328.384444 C718.316287,328.384444 716.937412,328.988883 715.967778,330.197778 C714.998143,331.406673 714.513333,333.131841 714.513333,335.373333 C714.513333,337.614826 714.998143,339.34629 715.967778,340.567778 C716.937412,341.789265 718.316287,342.4 720.104444,342.4 C721.892602,342.4 723.277773,341.776673 724.26,340.53 Z M748.928889,326.268889 L748.928889,344.666667 L745.944444,344.666667 L745.944444,341.531111 C745.365182,342.639265 744.552968,343.48296 743.507778,344.062222 C742.462587,344.641484 741.285192,344.931111 739.975556,344.931111 C737.784433,344.931111 736.13482,344.320376 735.026667,343.098889 C733.918513,341.877401 733.364444,340.070382 733.364444,337.677778 L733.364444,326.268889 L736.424444,326.268889 L736.424444,337.602222 C736.424444,339.239267 736.751849,340.441848 737.406667,341.21 C738.061485,341.978152 739.094067,342.362222 740.504444,342.362222 C742.116304,342.362222 743.413328,341.839635 744.395556,340.794444 C745.377783,339.749254 745.868889,338.370379 745.868889,336.657778 L745.868889,326.268889 L748.928889,326.268889 Z M764.38,342.362222 L764.228889,344.78 C763.649627,344.880741 763.020003,344.931111 762.34,344.931111 C760.123693,344.931111 758.455191,344.351858 757.334444,343.193333 C756.213698,342.034809 755.653333,340.422973 755.653333,338.357778 L755.653333,328.686667 L752.064444,328.686667 L752.064444,326.268889 L755.653333,326.268889 L755.653333,320.677778 L758.713333,320.677778 L758.713333,326.268889 L763.926667,326.268889 L763.926667,328.686667 L758.713333,328.686667 L758.713333,338.131111 C758.713333,341.027422 760.048135,342.475556 762.717778,342.475556 C763.271855,342.475556 763.825923,342.437778 764.38,342.362222 Z M782.891111,335.94 L769.442222,335.94 C769.542963,338.080751 770.122217,339.698883 771.18,340.794444 C772.237783,341.890005 773.736287,342.437778 775.675556,342.437778 C777.816307,342.437778 779.780732,341.707415 781.568889,340.246667 L782.588889,342.475556 C781.782959,343.231115 780.750377,343.829257 779.491111,344.27 C778.231846,344.710743 776.947414,344.931111 775.637778,344.931111 C772.766652,344.931111 770.506305,344.087416 768.856667,342.4 C767.207029,340.712584 766.382222,338.382978 766.382222,335.411111 C766.382222,333.522213 766.747404,331.853711 767.477778,330.405556 C768.208152,328.9574 769.234438,327.830374 770.556667,327.024444 C771.878895,326.218514 773.383695,325.815556 775.071111,325.815556 C777.514086,325.815556 779.428141,326.615177 780.813333,328.214444 C782.198525,329.813712 782.891111,332.011097 782.891111,334.806667 L782.891111,335.94 Z M771.236667,329.706667 C770.267032,330.714079 769.694075,332.137028 769.517778,333.975556 L780.208889,333.975556 C780.158518,332.111843 779.692597,330.682598 778.811111,329.687778 C777.929625,328.692958 776.695563,328.195556 775.108889,328.195556 C773.497029,328.195556 772.206301,328.699254 771.236667,329.706667 Z" id="Attribute-Copy-2" fill="#4A90E2"></path>
            </g>
        </g>
    </g>
</svg>