<?xml version="1.0" encoding="UTF-8"?>
<svg width="293px" height="229px" viewBox="0 0 293 229" version="1.1" xmlns="http://www.w3.org/2000/svg" xmlns:xlink="http://www.w3.org/1999/xlink">
    <!-- Generator: Sketch 45.2 (43514) - http://www.bohemiancoding.com/sketch -->
    <title>code</title>
    <desc>Created with Sketch.</desc>
    <defs></defs>
    <g id="icons" stroke="none" stroke-width="1" fill="none" fill-rule="evenodd">
        <g id="Desktop" transform="translate(-932.000000, -553.000000)">
            <g id="code" transform="translate(934.000000, 555.000000)">
                <path d="M64.8707479,214 L4,214 C1.790861,214 1.06584355e-15,212.209139 1.77635684e-15,210 L0,4 C-2.705415e-16,1.790861 1.790861,4.05816873e-16 4,0 L263,2.66456236e-15 C265.209139,2.25871839e-15 267,1.790861 267,4 L267,210 C267,212.209139 265.209139,214 263,214 L91.9724192,214 M82.7604597,214 L74.5100931,214" id="Rectangle-Copy" stroke="#D2D5DB" stroke-width="4" stroke-linecap="round"></path>
                <path d="M0.5,17 L268.5,17" id="Line-Copy" stroke="#D2D5DB" stroke-width="2" stroke-linecap="square"></path>
                <circle id="Oval-Copy-3" stroke="#C9C9C9" cx="11" cy="9" r="3"></circle>
                <circle id="Oval-Copy-4" stroke="#C9C9C9" cx="21" cy="9" r="3"></circle>
                <circle id="Oval-Copy-5" stroke="#C9C9C9" cx="31" cy="9" r="3"></circle>
                <g id="Group-6" transform="translate(218.000000, 154.000000)">
                    <circle id="Oval-6" stroke="#D2D5DB" stroke-width="4" fill="#FFFFFF" cx="35.2605396" cy="35.2605396" r="35.2605396"></circle>
                    <polyline id="Line-4" stroke="#D2D5DB" stroke-width="4" stroke-linecap="round" points="23 23 13 35.4409479 23 47.3968834"></polyline>
                    <polyline id="Line-4-Copy" stroke="#D2D5DB" stroke-width="4" stroke-linecap="round" points="48 23 58 35.4409479 48 47.3968834"></polyline>
                    <g id="Group-5" transform="translate(24.000000, 32.000000)" fill="#D2D5DB">
                        <circle id="Oval-5" cx="3" cy="3" r="3"></circle>
                        <circle id="Oval-5-Copy" cx="12" cy="3" r="3"></circle>
                        <circle id="Oval-5-Copy-2" cx="21" cy="3" r="3"></circle>
                    </g>
                </g>
                <g id="Group-7" transform="translate(76.000000, 32.000000)" fill="#D2D5DB">
                    <path d="M6.816,10 L5.928,9.088 C5.57599824,9.4080016 5.18200218,9.65599912 4.746,9.832 C4.30999782,10.0080009 3.8520024,10.096 3.372,10.096 C2.80399716,10.096 2.3000022,9.99800098 1.86,9.802 C1.4199978,9.60599902 1.07800122,9.33400174 0.834,8.986 C0.58999878,8.63799826 0.468,8.23600228 0.468,7.78 C0.468,7.27599748 0.60999858,6.824002 0.894,6.424 C1.17800142,6.023998 1.63199688,5.64800176 2.256,5.296 C1.94399844,4.95199828 1.7180007,4.63600144 1.578,4.348 C1.4379993,4.05999856 1.368,3.76000156 1.368,3.448 C1.368,2.847997 1.58199786,2.36600182 2.01,2.002 C2.43800214,1.63799818 2.99599656,1.456 3.684,1.456 C4.3240032,1.456 4.8339981,1.62199834 5.214,1.954 C5.5940019,2.28600166 5.784,2.7319972 5.784,3.292 C5.784,3.72400216 5.66000124,4.1099983 5.412,4.45 C5.16399876,4.7900017 4.75600284,5.13199828 4.188,5.476 L5.856,7.18 C6.18400164,6.53199676 6.36399984,5.77600432 6.396,4.912 L7.644,4.912 C7.59599976,6.14400616 7.29600276,7.20399556 6.744,8.092 L8.604,10 L6.816,10 Z M2.988,2.746 C2.81199912,2.91800086 2.724,3.14799856 2.724,3.436 C2.724,3.62800096 2.77199952,3.81199912 2.868,3.988 C2.96400048,4.16400088 3.14799864,4.39599856 3.42,4.684 C3.84400212,4.4439988 4.13999916,4.22200102 4.308,4.018 C4.47600084,3.81399898 4.56,3.5920012 4.56,3.352 C4.56,3.08799868 4.4800008,2.87800078 4.32,2.722 C4.1599992,2.56599922 3.95200128,2.488 3.696,2.488 C3.39999852,2.488 3.16400088,2.57399914 2.988,2.746 Z M5.1,8.236 L3.036,6.1 C2.64399804,6.3400012 2.36200086,6.58599874 2.19,6.838 C2.01799914,7.09000126 1.932,7.37999836 1.932,7.708 C1.932,8.08400188 2.06599866,8.3819989 2.334,8.602 C2.60200134,8.8220011 2.96399772,8.932 3.42,8.932 C4.05200316,8.932 4.61199756,8.70000232 5.1,8.236 Z M13.224,4.204 L11.652,4.12 L12.516,5.44 L11.604,5.968 L10.884,4.552 L10.164,5.956 L9.264,5.44 L10.128,4.108 L8.544,4.192 L8.544,3.148 L10.128,3.232 L9.264,1.9 L10.164,1.372 L10.884,2.788 L11.604,1.372 L12.516,1.912 L11.652,3.232 L13.224,3.148 L13.224,4.204 Z M15.168,9.556 C14.9279988,8.69199568 14.808,7.78800472 14.808,6.844 C14.808,5.89999528 14.9279988,4.99600432 15.168,4.132 C15.4080012,3.26799568 15.8199971,2.34000496 16.404,1.348 L17.4,1.756 C17.007998,2.72400484 16.7340008,3.60399604 16.578,4.396 C16.4219992,5.18800396 16.344,6.0039958 16.344,6.844 C16.344,7.6840042 16.4219992,8.49999604 16.578,9.292 C16.7340008,10.084004 17.007998,10.9639952 17.4,11.932 L16.404,12.34 C15.8199971,11.347995 15.4080012,10.4200043 15.168,9.556 Z M23.94,9.226 C23.4919978,9.67000222 22.8960037,9.94799944 22.152,10.06 L22.152,11.38 L20.928,11.38 L20.928,10.084 C20.3919973,10.0439998 19.8980023,9.94000084 19.446,9.772 C18.9939977,9.60399916 18.6000017,9.3800014 18.264,9.1 L18.78,7.984 C19.188002,8.28800152 19.6019979,8.51199928 20.022,8.656 C20.4420021,8.80000072 20.8959976,8.872 21.384,8.872 C21.9280027,8.872 22.3459985,8.76800104 22.638,8.56 C22.9300015,8.35199896 23.076,8.05200196 23.076,7.66 C23.076,7.42799884 22.9960008,7.24000072 22.836,7.096 C22.6759992,6.95199928 22.4780012,6.83800042 22.242,6.754 C22.0059988,6.66999958 21.6720022,6.57200056 21.24,6.46 C20.631997,6.30799924 20.1400019,6.15400078 19.764,5.998 C19.3879981,5.84199922 19.0640014,5.60200162 18.792,5.278 C18.5199986,4.95399838 18.384,4.52000272 18.384,3.976 C18.384,3.3359968 18.6179977,2.78800228 19.086,2.332 C19.5540023,1.87599772 20.1599963,1.59200056 20.904,1.48 L20.904,0.16 L22.128,0.16 L22.128,1.468 C22.5840023,1.52400028 23.0179979,1.63599916 23.43,1.804 C23.8420021,1.97200084 24.1839986,2.17999876 24.456,2.428 L23.94,3.544 C23.1959963,2.95999708 22.4000042,2.668 21.552,2.668 C21.0559975,2.668 20.6620015,2.77599892 20.37,2.992 C20.0779985,3.20800108 19.932,3.50799808 19.932,3.892 C19.932,4.15600132 20.0159992,4.36999918 20.184,4.534 C20.3520008,4.69800082 20.5659987,4.82799952 20.826,4.924 C21.0860013,5.02000048 21.4359978,5.11999948 21.876,5.224 C22.4600029,5.36800072 22.9339982,5.51399926 23.298,5.662 C23.6620018,5.81000074 23.9719987,6.03999844 24.228,6.352 C24.4840013,6.66400156 24.612,7.0799974 24.612,7.6 C24.612,8.2400032 24.3880022,8.78199778 23.94,9.226 Z M30.684,4.468 L30.18,6.976 L31.44,6.976 L31.44,7.948 L29.988,7.948 L29.58,10 L28.548,10 L28.956,7.948 L27.432,7.948 L27.024,10 L25.98,10 L26.388,7.948 L25.548,7.948 L25.548,6.976 L26.58,6.976 L27.084,4.468 L25.8,4.468 L25.8,3.496 L27.276,3.496 L27.66,1.54 L28.692,1.54 L28.308,3.496 L29.832,3.496 L30.216,1.54 L31.26,1.54 L30.876,3.496 L31.692,3.496 L31.692,4.468 L30.684,4.468 Z M29.64,4.468 L28.116,4.468 L27.624,6.976 L29.148,6.976 L29.64,4.468 Z M33.792,9.556 C33.5519988,8.69199568 33.432,7.78800472 33.432,6.844 C33.432,5.89999528 33.5519988,4.99600432 33.792,4.132 C34.0320012,3.26799568 34.4439971,2.34000496 35.028,1.348 L36.024,1.756 C35.631998,2.72400484 35.3580008,3.60399604 35.202,4.396 C35.0459992,5.18800396 34.968,6.0039958 34.968,6.844 C34.968,7.6840042 35.0459992,8.49999604 35.202,9.292 C35.3580008,10.084004 35.631998,10.9639952 36.024,11.932 L35.028,12.34 C34.4439971,11.347995 34.0320012,10.4200043 33.792,9.556 Z M37.344,11.932 C37.736002,10.9639952 38.0099992,10.084004 38.166,9.292 C38.3220008,8.49999604 38.4,7.6840042 38.4,6.844 C38.4,6.0039958 38.3220008,5.18800396 38.166,4.396 C38.0099992,3.60399604 37.736002,2.72400484 37.344,1.756 L38.34,1.348 C38.9240029,2.34000496 39.3359988,3.26799568 39.576,4.132 C39.8160012,4.99600432 39.936,5.89999528 39.936,6.844 C39.936,7.78800472 39.8160012,8.69199568 39.576,9.556 C39.3359988,10.4200043 38.9240029,11.347995 38.34,12.34 L37.344,11.932 Z M41.568,11.932 C41.960002,10.9639952 42.2339992,10.084004 42.39,9.292 C42.5460008,8.49999604 42.624,7.6840042 42.624,6.844 C42.624,6.0039958 42.5460008,5.18800396 42.39,4.396 C42.2339992,3.60399604 41.960002,2.72400484 41.568,1.756 L42.564,1.348 C43.1480029,2.34000496 43.5599988,3.26799568 43.8,4.132 C44.0400012,4.99600432 44.16,5.89999528 44.16,6.844 C44.16,7.78800472 44.0400012,8.69199568 43.8,9.556 C43.5599988,10.4200043 43.1480029,11.347995 42.564,12.34 L41.568,11.932 Z M52.188,10 L51.3,9.088 C50.9479982,9.4080016 50.5540022,9.65599912 50.118,9.832 C49.6819978,10.0080009 49.2240024,10.096 48.744,10.096 C48.1759972,10.096 47.6720022,9.99800098 47.232,9.802 C46.7919978,9.60599902 46.4500012,9.33400174 46.206,8.986 C45.9619988,8.63799826 45.84,8.23600228 45.84,7.78 C45.84,7.27599748 45.9819986,6.824002 46.266,6.424 C46.5500014,6.023998 47.0039969,5.64800176 47.628,5.296 C47.3159984,4.95199828 47.0900007,4.63600144 46.95,4.348 C46.8099993,4.05999856 46.74,3.76000156 46.74,3.448 C46.74,2.847997 46.9539979,2.36600182 47.382,2.002 C47.8100021,1.63799818 48.3679966,1.456 49.056,1.456 C49.6960032,1.456 50.2059981,1.62199834 50.586,1.954 C50.9660019,2.28600166 51.156,2.7319972 51.156,3.292 C51.156,3.72400216 51.0320012,4.1099983 50.784,4.45 C50.5359988,4.7900017 50.1280028,5.13199828 49.56,5.476 L51.228,7.18 C51.5560016,6.53199676 51.7359998,5.77600432 51.768,4.912 L53.016,4.912 C52.9679998,6.14400616 52.6680028,7.20399556 52.116,8.092 L53.976,10 L52.188,10 Z M48.36,2.746 C48.1839991,2.91800086 48.096,3.14799856 48.096,3.436 C48.096,3.62800096 48.1439995,3.81199912 48.24,3.988 C48.3360005,4.16400088 48.5199986,4.39599856 48.792,4.684 C49.2160021,4.4439988 49.5119992,4.22200102 49.68,4.018 C49.8480008,3.81399898 49.932,3.5920012 49.932,3.352 C49.932,3.08799868 49.8520008,2.87800078 49.692,2.722 C49.5319992,2.56599922 49.3240013,2.488 49.068,2.488 C48.7719985,2.488 48.5360009,2.57399914 48.36,2.746 Z M50.472,8.236 L48.408,6.1 C48.015998,6.3400012 47.7340009,6.58599874 47.562,6.838 C47.3899991,7.09000126 47.304,7.37999836 47.304,7.708 C47.304,8.08400188 47.4379987,8.3819989 47.706,8.602 C47.9740013,8.8220011 48.3359977,8.932 48.792,8.932 C49.4240032,8.932 49.9839976,8.70000232 50.472,8.236 Z M59.04,8.296 L57.144,3.784 L55.248,8.296 L54.096,8.296 L56.58,2.44 L57.708,2.44 L60.192,8.296 L59.04,8.296 Z M67.56,10 L66.672,9.088 C66.3199982,9.4080016 65.9260022,9.65599912 65.49,9.832 C65.0539978,10.0080009 64.5960024,10.096 64.116,10.096 C63.5479972,10.096 63.0440022,9.99800098 62.604,9.802 C62.1639978,9.60599902 61.8220012,9.33400174 61.578,8.986 C61.3339988,8.63799826 61.212,8.23600228 61.212,7.78 C61.212,7.27599748 61.3539986,6.824002 61.638,6.424 C61.9220014,6.023998 62.3759969,5.64800176 63,5.296 C62.6879984,4.95199828 62.4620007,4.63600144 62.322,4.348 C62.1819993,4.05999856 62.112,3.76000156 62.112,3.448 C62.112,2.847997 62.3259979,2.36600182 62.754,2.002 C63.1820021,1.63799818 63.7399966,1.456 64.428,1.456 C65.0680032,1.456 65.5779981,1.62199834 65.958,1.954 C66.3380019,2.28600166 66.528,2.7319972 66.528,3.292 C66.528,3.72400216 66.4040012,4.1099983 66.156,4.45 C65.9079988,4.7900017 65.5000028,5.13199828 64.932,5.476 L66.6,7.18 C66.9280016,6.53199676 67.1079998,5.77600432 67.14,4.912 L68.388,4.912 C68.3399998,6.14400616 68.0400028,7.20399556 67.488,8.092 L69.348,10 L67.56,10 Z M63.732,2.746 C63.5559991,2.91800086 63.468,3.14799856 63.468,3.436 C63.468,3.62800096 63.5159995,3.81199912 63.612,3.988 C63.7080005,4.16400088 63.8919986,4.39599856 64.164,4.684 C64.5880021,4.4439988 64.8839992,4.22200102 65.052,4.018 C65.2200008,3.81399898 65.304,3.5920012 65.304,3.352 C65.304,3.08799868 65.2240008,2.87800078 65.064,2.722 C64.9039992,2.56599922 64.6960013,2.488 64.44,2.488 C64.1439985,2.488 63.9080009,2.57399914 63.732,2.746 Z M65.844,8.236 L63.78,6.1 C63.387998,6.3400012 63.1060009,6.58599874 62.934,6.838 C62.7619991,7.09000126 62.676,7.37999836 62.676,7.708 C62.676,8.08400188 62.8099987,8.3819989 63.078,8.602 C63.3460013,8.8220011 63.7079977,8.932 64.164,8.932 C64.7960032,8.932 65.3559976,8.70000232 65.844,8.236 Z M73.968,4.204 L72.396,4.12 L73.26,5.44 L72.348,5.968 L71.628,4.552 L70.908,5.956 L70.008,5.44 L70.872,4.108 L69.288,4.192 L69.288,3.148 L70.872,3.232 L70.008,1.9 L70.908,1.372 L71.628,2.788 L72.348,1.372 L73.26,1.912 L72.396,3.232 L73.968,3.148 L73.968,4.204 Z M74.76,11.932 C75.152002,10.9639952 75.4259992,10.084004 75.582,9.292 C75.7380008,8.49999604 75.816,7.6840042 75.816,6.844 C75.816,6.0039958 75.7380008,5.18800396 75.582,4.396 C75.4259992,3.60399604 75.152002,2.72400484 74.76,1.756 L75.756,1.348 C76.3400029,2.34000496 76.7519988,3.26799568 76.992,4.132 C77.2320012,4.99600432 77.352,5.89999528 77.352,6.844 C77.352,7.78800472 77.2320012,8.69199568 76.992,9.556 C76.7519988,10.4200043 76.3400029,11.347995 75.756,12.34 L74.76,11.932 Z M78.984,11.932 C79.376002,10.9639952 79.6499992,10.084004 79.806,9.292 C79.9620008,8.49999604 80.04,7.6840042 80.04,6.844 C80.04,6.0039958 79.9620008,5.18800396 79.806,4.396 C79.6499992,3.60399604 79.376002,2.72400484 78.984,1.756 L79.98,1.348 C80.5640029,2.34000496 80.9759988,3.26799568 81.216,4.132 C81.4560012,4.99600432 81.576,5.89999528 81.576,6.844 C81.576,7.78800472 81.4560012,8.69199568 81.216,9.556 C80.9759988,10.4200043 80.5640029,11.347995 79.98,12.34 L78.984,11.932 Z M84.36,9.556 C84.1199988,8.69199568 84,7.78800472 84,6.844 C84,5.89999528 84.1199988,4.99600432 84.36,4.132 C84.6000012,3.26799568 85.0119971,2.34000496 85.596,1.348 L86.592,1.756 C86.199998,2.72400484 85.9260008,3.60399604 85.77,4.396 C85.6139992,5.18800396 85.536,6.0039958 85.536,6.844 C85.536,7.6840042 85.6139992,8.49999604 85.77,9.292 C85.9260008,10.084004 86.199998,10.9639952 86.592,11.932 L85.596,12.34 C85.0119971,11.347995 84.6000012,10.4200043 84.36,9.556 Z M92.064,4.204 L90.492,4.12 L91.356,5.44 L90.444,5.968 L89.724,4.552 L89.004,5.956 L88.104,5.44 L88.968,4.108 L87.384,4.192 L87.384,3.148 L88.968,3.232 L88.104,1.9 L89.004,1.372 L89.724,2.788 L90.444,1.372 L91.356,1.912 L90.492,3.232 L92.064,3.148 L92.064,4.204 Z M99.252,10 L98.364,9.088 C98.0119982,9.4080016 97.6180022,9.65599912 97.182,9.832 C96.7459978,10.0080009 96.2880024,10.096 95.808,10.096 C95.2399972,10.096 94.7360022,9.99800098 94.296,9.802 C93.8559978,9.60599902 93.5140012,9.33400174 93.27,8.986 C93.0259988,8.63799826 92.904,8.23600228 92.904,7.78 C92.904,7.27599748 93.0459986,6.824002 93.33,6.424 C93.6140014,6.023998 94.0679969,5.64800176 94.692,5.296 C94.3799984,4.95199828 94.1540007,4.63600144 94.014,4.348 C93.8739993,4.05999856 93.804,3.76000156 93.804,3.448 C93.804,2.847997 94.0179979,2.36600182 94.446,2.002 C94.8740021,1.63799818 95.4319966,1.456 96.12,1.456 C96.7600032,1.456 97.2699981,1.62199834 97.65,1.954 C98.0300019,2.28600166 98.22,2.7319972 98.22,3.292 C98.22,3.72400216 98.0960012,4.1099983 97.848,4.45 C97.5999988,4.7900017 97.1920028,5.13199828 96.624,5.476 L98.292,7.18 C98.6200016,6.53199676 98.7999998,5.77600432 98.832,4.912 L100.08,4.912 C100.032,6.14400616 99.7320028,7.20399556 99.18,8.092 L101.04,10 L99.252,10 Z M95.424,2.746 C95.2479991,2.91800086 95.16,3.14799856 95.16,3.436 C95.16,3.62800096 95.2079995,3.81199912 95.304,3.988 C95.4000005,4.16400088 95.5839986,4.39599856 95.856,4.684 C96.2800021,4.4439988 96.5759992,4.22200102 96.744,4.018 C96.9120008,3.81399898 96.996,3.5920012 96.996,3.352 C96.996,3.08799868 96.9160008,2.87800078 96.756,2.722 C96.5959992,2.56599922 96.3880013,2.488 96.132,2.488 C95.8359985,2.488 95.6000009,2.57399914 95.424,2.746 Z M97.536,8.236 L95.472,6.1 C95.079998,6.3400012 94.7980009,6.58599874 94.626,6.838 C94.4539991,7.09000126 94.368,7.37999836 94.368,7.708 C94.368,8.08400188 94.5019987,8.3819989 94.77,8.602 C95.0380013,8.8220011 95.3999977,8.932 95.856,8.932 C96.4880032,8.932 97.0479976,8.70000232 97.536,8.236 Z M106.104,8.296 L104.208,3.784 L102.312,8.296 L101.16,8.296 L103.644,2.44 L104.772,2.44 L107.256,8.296 L106.104,8.296 Z M110.508,9.76 L115.464,1.204 L116.46,1.78 L111.504,10.336 L110.508,9.76 Z M108.888,5.932 C108.511998,5.4919978 108.324,4.84800424 108.324,4 C108.324,3.1599958 108.511998,2.5200022 108.888,2.08 C109.264002,1.6399978 109.787997,1.42 110.46,1.42 C111.132003,1.42 111.657998,1.6399978 112.038,2.08 C112.418002,2.5200022 112.608,3.1599958 112.608,4 C112.608,4.84800424 112.418002,5.4919978 112.038,5.932 C111.657998,6.3720022 111.132003,6.592 110.46,6.592 C109.787997,6.592 109.264002,6.3720022 108.888,5.932 Z M111.126,5.242 C111.266001,4.98999874 111.336,4.57600288 111.336,4 C111.336,3.4399972 111.264001,3.03200128 111.12,2.776 C110.975999,2.51999872 110.756001,2.392 110.46,2.392 C110.163999,2.392 109.946001,2.51799874 109.806,2.77 C109.665999,3.02200126 109.596,3.43199716 109.596,4 C109.596,4.57600288 109.665999,4.98999874 109.806,5.242 C109.946001,5.49400126 110.163999,5.62 110.46,5.62 C110.764002,5.62 110.985999,5.49400126 111.126,5.242 Z M114.924,9.424 C114.547998,8.9839978 114.36,8.33600428 114.36,7.48 C114.36,6.6399958 114.549998,6.00200218 114.93,5.566 C115.310002,5.12999782 115.831997,4.912 116.496,4.912 C117.168003,4.912 117.691998,5.1319978 118.068,5.572 C118.444002,6.0120022 118.632,6.6519958 118.632,7.492 C118.632,8.34000424 118.444002,8.9839978 118.068,9.424 C117.691998,9.8640022 117.168003,10.084 116.496,10.084 C115.823997,10.084 115.300002,9.8640022 114.924,9.424 Z M117.156,8.734 C117.300001,8.48199874 117.372,8.06800288 117.372,7.492 C117.372,6.9319972 117.300001,6.52400128 117.156,6.268 C117.011999,6.01199872 116.792001,5.884 116.496,5.884 C116.199999,5.884 115.980001,6.01199872 115.836,6.268 C115.691999,6.52400128 115.62,6.9319972 115.62,7.492 C115.62,8.06800288 115.691999,8.48199874 115.836,8.734 C115.980001,8.98600126 116.199999,9.112 116.496,9.112 C116.792001,9.112 117.011999,8.98600126 117.156,8.734 Z M125.268,9.226 C124.819998,9.67000222 124.224004,9.94799944 123.48,10.06 L123.48,11.38 L122.256,11.38 L122.256,10.084 C121.719997,10.0439998 121.226002,9.94000084 120.774,9.772 C120.321998,9.60399916 119.928002,9.3800014 119.592,9.1 L120.108,7.984 C120.516002,8.28800152 120.929998,8.51199928 121.35,8.656 C121.770002,8.80000072 122.223998,8.872 122.712,8.872 C123.256003,8.872 123.673999,8.76800104 123.966,8.56 C124.258001,8.35199896 124.404,8.05200196 124.404,7.66 C124.404,7.42799884 124.324001,7.24000072 124.164,7.096 C124.003999,6.95199928 123.806001,6.83800042 123.57,6.754 C123.333999,6.66999958 123.000002,6.57200056 122.568,6.46 C121.959997,6.30799924 121.468002,6.15400078 121.092,5.998 C120.715998,5.84199922 120.392001,5.60200162 120.12,5.278 C119.847999,4.95399838 119.712,4.52000272 119.712,3.976 C119.712,3.3359968 119.945998,2.78800228 120.414,2.332 C120.882002,1.87599772 121.487996,1.59200056 122.232,1.48 L122.232,0.16 L123.456,0.16 L123.456,1.468 C123.912002,1.52400028 124.345998,1.63599916 124.758,1.804 C125.170002,1.97200084 125.511999,2.17999876 125.784,2.428 L125.268,3.544 C124.523996,2.95999708 123.728004,2.668 122.88,2.668 C122.383998,2.668 121.990001,2.77599892 121.698,2.992 C121.405999,3.20800108 121.26,3.50799808 121.26,3.892 C121.26,4.15600132 121.343999,4.36999918 121.512,4.534 C121.680001,4.69800082 121.893999,4.82799952 122.154,4.924 C122.414001,5.02000048 122.763998,5.11999948 123.204,5.224 C123.788003,5.36800072 124.261998,5.51399926 124.626,5.662 C124.990002,5.81000074 125.299999,6.03999844 125.556,6.352 C125.812001,6.66400156 125.94,7.0799974 125.94,7.6 C125.94,8.2400032 125.716002,8.78199778 125.268,9.226 Z M131.844,8.296 L129.948,3.784 L128.052,8.296 L126.9,8.296 L129.384,2.44 L130.512,2.44 L132.996,8.296 L131.844,8.296 Z M140.364,10 L139.476,9.088 C139.123998,9.4080016 138.730002,9.65599912 138.294,9.832 C137.857998,10.0080009 137.400002,10.096 136.92,10.096 C136.351997,10.096 135.848002,9.99800098 135.408,9.802 C134.967998,9.60599902 134.626001,9.33400174 134.382,8.986 C134.137999,8.63799826 134.016,8.23600228 134.016,7.78 C134.016,7.27599748 134.157999,6.824002 134.442,6.424 C134.726001,6.023998 135.179997,5.64800176 135.804,5.296 C135.491998,4.95199828 135.266001,4.63600144 135.126,4.348 C134.985999,4.05999856 134.916,3.76000156 134.916,3.448 C134.916,2.847997 135.129998,2.36600182 135.558,2.002 C135.986002,1.63799818 136.543997,1.456 137.232,1.456 C137.872003,1.456 138.381998,1.62199834 138.762,1.954 C139.142002,2.28600166 139.332,2.7319972 139.332,3.292 C139.332,3.72400216 139.208001,4.1099983 138.96,4.45 C138.711999,4.7900017 138.304003,5.13199828 137.736,5.476 L139.404,7.18 C139.732002,6.53199676 139.912,5.77600432 139.944,4.912 L141.192,4.912 C141.144,6.14400616 140.844003,7.20399556 140.292,8.092 L142.152,10 L140.364,10 Z M136.536,2.746 C136.359999,2.91800086 136.272,3.14799856 136.272,3.436 C136.272,3.62800096 136.32,3.81199912 136.416,3.988 C136.512,4.16400088 136.695999,4.39599856 136.968,4.684 C137.392002,4.4439988 137.687999,4.22200102 137.856,4.018 C138.024001,3.81399898 138.108,3.5920012 138.108,3.352 C138.108,3.08799868 138.028001,2.87800078 137.868,2.722 C137.707999,2.56599922 137.500001,2.488 137.244,2.488 C136.947999,2.488 136.712001,2.57399914 136.536,2.746 Z M138.648,8.236 L136.584,6.1 C136.191998,6.3400012 135.910001,6.58599874 135.738,6.838 C135.565999,7.09000126 135.48,7.37999836 135.48,7.708 C135.48,8.08400188 135.613999,8.3819989 135.882,8.602 C136.150001,8.8220011 136.511998,8.932 136.968,8.932 C137.600003,8.932 138.159998,8.70000232 138.648,8.236 Z M146.772,4.204 L145.2,4.12 L146.064,5.44 L145.152,5.968 L144.432,4.552 L143.712,5.956 L142.812,5.44 L143.676,4.108 L142.092,4.192 L142.092,3.148 L143.676,3.232 L142.812,1.9 L143.712,1.372 L144.432,2.788 L145.152,1.372 L146.064,1.912 L145.2,3.232 L146.772,3.148 L146.772,4.204 Z" id="&amp;*($#())&amp;^&amp;*))(*&amp;^%$"></path>
                    <path d="M5.496,40.296 L3.6,35.784 L1.704,40.296 L0.552,40.296 L3.036,34.44 L4.164,34.44 L6.648,40.296 L5.496,40.296 Z M12.696,40.296 L10.8,35.784 L8.904,40.296 L7.752,40.296 L10.236,34.44 L11.364,34.44 L13.848,40.296 L12.696,40.296 Z M21.216,42 L20.328,41.088 C19.9759982,41.4080016 19.5820022,41.6559991 19.146,41.832 C18.7099978,42.0080009 18.2520024,42.096 17.772,42.096 C17.2039972,42.096 16.7000022,41.998001 16.26,41.802 C15.8199978,41.605999 15.4780012,41.3340017 15.234,40.986 C14.9899988,40.6379983 14.868,40.2360023 14.868,39.78 C14.868,39.2759975 15.0099986,38.824002 15.294,38.424 C15.5780014,38.023998 16.0319969,37.6480018 16.656,37.296 C16.3439984,36.9519983 16.1180007,36.6360014 15.978,36.348 C15.8379993,36.0599986 15.768,35.7600016 15.768,35.448 C15.768,34.847997 15.9819979,34.3660018 16.41,34.002 C16.8380021,33.6379982 17.3959966,33.456 18.084,33.456 C18.7240032,33.456 19.2339981,33.6219983 19.614,33.954 C19.9940019,34.2860017 20.184,34.7319972 20.184,35.292 C20.184,35.7240022 20.0600012,36.1099983 19.812,36.45 C19.5639988,36.7900017 19.1560028,37.1319983 18.588,37.476 L20.256,39.18 C20.5840016,38.5319968 20.7639998,37.7760043 20.796,36.912 L22.044,36.912 C21.9959998,38.1440062 21.6960028,39.2039956 21.144,40.092 L23.004,42 L21.216,42 Z M17.388,34.746 C17.2119991,34.9180009 17.124,35.1479986 17.124,35.436 C17.124,35.628001 17.1719995,35.8119991 17.268,35.988 C17.3640005,36.1640009 17.5479986,36.3959986 17.82,36.684 C18.2440021,36.4439988 18.5399992,36.222001 18.708,36.018 C18.8760008,35.813999 18.96,35.5920012 18.96,35.352 C18.96,35.0879987 18.8800008,34.8780008 18.72,34.722 C18.5599992,34.5659992 18.3520013,34.488 18.096,34.488 C17.7999985,34.488 17.5640009,34.5739991 17.388,34.746 Z M19.5,40.236 L17.436,38.1 C17.043998,38.3400012 16.7620009,38.5859987 16.59,38.838 C16.4179991,39.0900013 16.332,39.3799984 16.332,39.708 C16.332,40.0840019 16.4659987,40.3819989 16.734,40.602 C17.0020013,40.8220011 17.3639977,40.932 17.82,40.932 C18.4520032,40.932 19.0119976,40.7000023 19.5,40.236 Z M27.624,36.204 L26.052,36.12 L26.916,37.44 L26.004,37.968 L25.284,36.552 L24.564,37.956 L23.664,37.44 L24.528,36.108 L22.944,36.192 L22.944,35.148 L24.528,35.232 L23.664,33.9 L24.564,33.372 L25.284,34.788 L26.004,33.372 L26.916,33.912 L26.052,35.232 L27.624,35.148 L27.624,36.204 Z M28.416,43.932 C28.808002,42.9639952 29.0819992,42.084004 29.238,41.292 C29.3940008,40.499996 29.472,39.6840042 29.472,38.844 C29.472,38.0039958 29.3940008,37.188004 29.238,36.396 C29.0819992,35.603996 28.808002,34.7240048 28.416,33.756 L29.412,33.348 C29.9960029,34.340005 30.4079988,35.2679957 30.648,36.132 C30.8880012,36.9960043 31.008,37.8999953 31.008,38.844 C31.008,39.7880047 30.8880012,40.6919957 30.648,41.556 C30.4079988,42.4200043 29.9960029,43.347995 29.412,44.34 L28.416,43.932 Z M37.716,40.296 L35.82,35.784 L33.924,40.296 L32.772,40.296 L35.256,34.44 L36.384,34.44 L38.868,40.296 L37.716,40.296 Z M44.472,36.204 L42.9,36.12 L43.764,37.44 L42.852,37.968 L42.132,36.552 L41.412,37.956 L40.512,37.44 L41.376,36.108 L39.792,36.192 L39.792,35.148 L41.376,35.232 L40.512,33.9 L41.412,33.372 L42.132,34.788 L42.852,33.372 L43.764,33.912 L42.9,35.232 L44.472,35.148 L44.472,36.204 Z M45.264,43.932 C45.656002,42.9639952 45.9299992,42.084004 46.086,41.292 C46.2420008,40.499996 46.32,39.6840042 46.32,38.844 C46.32,38.0039958 46.2420008,37.188004 46.086,36.396 C45.9299992,35.603996 45.656002,34.7240048 45.264,33.756 L46.26,33.348 C46.8440029,34.340005 47.2559988,35.2679957 47.496,36.132 C47.7360012,36.9960043 47.856,37.8999953 47.856,38.844 C47.856,39.7880047 47.7360012,40.6919957 47.496,41.556 C47.2559988,42.4200043 46.8440029,43.347995 46.26,44.34 L45.264,43.932 Z M49.488,43.932 C49.880002,42.9639952 50.1539992,42.084004 50.31,41.292 C50.4660008,40.499996 50.544,39.6840042 50.544,38.844 C50.544,38.0039958 50.4660008,37.188004 50.31,36.396 C50.1539992,35.603996 49.880002,34.7240048 49.488,33.756 L50.484,33.348 C51.0680029,34.340005 51.4799988,35.2679957 51.72,36.132 C51.9600012,36.9960043 52.08,37.8999953 52.08,38.844 C52.08,39.7880047 51.9600012,40.6919957 51.72,41.556 C51.4799988,42.4200043 51.0680029,43.347995 50.484,44.34 L49.488,43.932 Z" id="^^&amp;*)^*))"></path>
                    <path d="M0.42,75.932 C0.81200196,74.9639952 1.08599922,74.084004 1.242,73.292 C1.39800078,72.499996 1.476,71.6840042 1.476,70.844 C1.476,70.0039958 1.39800078,69.188004 1.242,68.396 C1.08599922,67.603996 0.81200196,66.7240048 0.42,65.756 L1.416,65.348 C2.00000292,66.340005 2.4119988,67.2679957 2.652,68.132 C2.8920012,68.9960043 3.012,69.8999953 3.012,70.844 C3.012,71.7880047 2.8920012,72.6919957 2.652,73.556 C2.4119988,74.4200043 2.00000292,75.347995 1.416,76.34 L0.42,75.932 Z M5.796,73.556 C5.5559988,72.6919957 5.436,71.7880047 5.436,70.844 C5.436,69.8999953 5.5559988,68.9960043 5.796,68.132 C6.0360012,67.2679957 6.44799708,66.340005 7.032,65.348 L8.028,65.756 C7.63599804,66.7240048 7.36200078,67.603996 7.206,68.396 C7.04999922,69.188004 6.972,70.0039958 6.972,70.844 C6.972,71.6840042 7.04999922,72.499996 7.206,73.292 C7.36200078,74.084004 7.63599804,74.9639952 8.028,75.932 L7.032,76.34 C6.44799708,75.347995 6.0360012,74.4200043 5.796,73.556 Z M9.36,65.54 L15.024,65.54 L15.024,66.764 L10.872,66.764 L10.872,69.092 L14.784,69.092 L14.784,70.304 L10.872,70.304 L10.872,72.776 L15.024,72.776 L15.024,74 L9.36,74 L9.36,65.54 Z M21.18,68.468 L20.676,70.976 L21.936,70.976 L21.936,71.948 L20.484,71.948 L20.076,74 L19.044,74 L19.452,71.948 L17.928,71.948 L17.52,74 L16.476,74 L16.884,71.948 L16.044,71.948 L16.044,70.976 L17.076,70.976 L17.58,68.468 L16.296,68.468 L16.296,67.496 L17.772,67.496 L18.156,65.54 L19.188,65.54 L18.804,67.496 L20.328,67.496 L20.712,65.54 L21.756,65.54 L21.372,67.496 L22.188,67.496 L22.188,68.468 L21.18,68.468 Z M20.136,68.468 L18.612,68.468 L18.12,70.976 L19.644,70.976 L20.136,68.468 Z M28.38,68.468 L27.876,70.976 L29.136,70.976 L29.136,71.948 L27.684,71.948 L27.276,74 L26.244,74 L26.652,71.948 L25.128,71.948 L24.72,74 L23.676,74 L24.084,71.948 L23.244,71.948 L23.244,70.976 L24.276,70.976 L24.78,68.468 L23.496,68.468 L23.496,67.496 L24.972,67.496 L25.356,65.54 L26.388,65.54 L26.004,67.496 L27.528,67.496 L27.912,65.54 L28.956,65.54 L28.572,67.496 L29.388,67.496 L29.388,68.468 L28.38,68.468 Z M27.336,68.468 L25.812,68.468 L25.32,70.976 L26.844,70.976 L27.336,68.468 Z M36.036,73.226 C35.5879978,73.6700022 34.9920037,73.9479994 34.248,74.06 L34.248,75.38 L33.024,75.38 L33.024,74.084 C32.4879973,74.0439998 31.9940023,73.9400008 31.542,73.772 C31.0899977,73.6039992 30.6960017,73.3800014 30.36,73.1 L30.876,71.984 C31.284002,72.2880015 31.6979979,72.5119993 32.118,72.656 C32.5380021,72.8000007 32.9919976,72.872 33.48,72.872 C34.0240027,72.872 34.4419985,72.768001 34.734,72.56 C35.0260015,72.351999 35.172,72.052002 35.172,71.66 C35.172,71.4279988 35.0920008,71.2400007 34.932,71.096 C34.7719992,70.9519993 34.5740012,70.8380004 34.338,70.754 C34.1019988,70.6699996 33.7680022,70.5720006 33.336,70.46 C32.727997,70.3079992 32.2360019,70.1540008 31.86,69.998 C31.4839981,69.8419992 31.1600014,69.6020016 30.888,69.278 C30.6159986,68.9539984 30.48,68.5200027 30.48,67.976 C30.48,67.3359968 30.7139977,66.7880023 31.182,66.332 C31.6500023,65.8759977 32.2559963,65.5920006 33,65.48 L33,64.16 L34.224,64.16 L34.224,65.468 C34.6800023,65.5240003 35.1139979,65.6359992 35.526,65.804 C35.9380021,65.9720008 36.2799986,66.1799988 36.552,66.428 L36.036,67.544 C35.2919963,66.9599971 34.4960042,66.668 33.648,66.668 C33.1519975,66.668 32.7580015,66.7759989 32.466,66.992 C32.1739985,67.2080011 32.028,67.5079981 32.028,67.892 C32.028,68.1560013 32.1119992,68.3699992 32.28,68.534 C32.4480008,68.6980008 32.6619987,68.8279995 32.922,68.924 C33.1820013,69.0200005 33.5319978,69.1199995 33.972,69.224 C34.5560029,69.3680007 35.0299982,69.5139993 35.394,69.662 C35.7580018,69.8100007 36.0679987,70.0399984 36.324,70.352 C36.5800013,70.6640016 36.708,71.0799974 36.708,71.6 C36.708,72.2400032 36.4840022,72.7819978 36.036,73.226 Z M43.236,73.226 C42.7879978,73.6700022 42.1920037,73.9479994 41.448,74.06 L41.448,75.38 L40.224,75.38 L40.224,74.084 C39.6879973,74.0439998 39.1940023,73.9400008 38.742,73.772 C38.2899977,73.6039992 37.8960017,73.3800014 37.56,73.1 L38.076,71.984 C38.484002,72.2880015 38.8979979,72.5119993 39.318,72.656 C39.7380021,72.8000007 40.1919976,72.872 40.68,72.872 C41.2240027,72.872 41.6419985,72.768001 41.934,72.56 C42.2260015,72.351999 42.372,72.052002 42.372,71.66 C42.372,71.4279988 42.2920008,71.2400007 42.132,71.096 C41.9719992,70.9519993 41.7740012,70.8380004 41.538,70.754 C41.3019988,70.6699996 40.9680022,70.5720006 40.536,70.46 C39.927997,70.3079992 39.4360019,70.1540008 39.06,69.998 C38.6839981,69.8419992 38.3600014,69.6020016 38.088,69.278 C37.8159986,68.9539984 37.68,68.5200027 37.68,67.976 C37.68,67.3359968 37.9139977,66.7880023 38.382,66.332 C38.8500023,65.8759977 39.4559963,65.5920006 40.2,65.48 L40.2,64.16 L41.424,64.16 L41.424,65.468 C41.8800023,65.5240003 42.3139979,65.6359992 42.726,65.804 C43.1380021,65.9720008 43.4799986,66.1799988 43.752,66.428 L43.236,67.544 C42.4919963,66.9599971 41.6960042,66.668 40.848,66.668 C40.3519975,66.668 39.9580015,66.7759989 39.666,66.992 C39.3739985,67.2080011 39.228,67.5079981 39.228,67.892 C39.228,68.1560013 39.3119992,68.3699992 39.48,68.534 C39.6480008,68.6980008 39.8619987,68.8279995 40.122,68.924 C40.3820013,69.0200005 40.7319978,69.1199995 41.172,69.224 C41.7560029,69.3680007 42.2299982,69.5139993 42.594,69.662 C42.9580018,69.8100007 43.2679987,70.0399984 43.524,70.352 C43.7800013,70.6640016 43.908,71.0799974 43.908,71.6 C43.908,72.2400032 43.6840022,72.7819978 43.236,73.226 Z M49.98,68.468 L49.476,70.976 L50.736,70.976 L50.736,71.948 L49.284,71.948 L48.876,74 L47.844,74 L48.252,71.948 L46.728,71.948 L46.32,74 L45.276,74 L45.684,71.948 L44.844,71.948 L44.844,70.976 L45.876,70.976 L46.38,68.468 L45.096,68.468 L45.096,67.496 L46.572,67.496 L46.956,65.54 L47.988,65.54 L47.604,67.496 L49.128,67.496 L49.512,65.54 L50.556,65.54 L50.172,67.496 L50.988,67.496 L50.988,68.468 L49.98,68.468 Z M48.936,68.468 L47.412,68.468 L46.92,70.976 L48.444,70.976 L48.936,68.468 Z M57.636,73.226 C57.1879978,73.6700022 56.5920037,73.9479994 55.848,74.06 L55.848,75.38 L54.624,75.38 L54.624,74.084 C54.0879973,74.0439998 53.5940023,73.9400008 53.142,73.772 C52.6899977,73.6039992 52.2960017,73.3800014 51.96,73.1 L52.476,71.984 C52.884002,72.2880015 53.2979979,72.5119993 53.718,72.656 C54.1380021,72.8000007 54.5919976,72.872 55.08,72.872 C55.6240027,72.872 56.0419985,72.768001 56.334,72.56 C56.6260015,72.351999 56.772,72.052002 56.772,71.66 C56.772,71.4279988 56.6920008,71.2400007 56.532,71.096 C56.3719992,70.9519993 56.1740012,70.8380004 55.938,70.754 C55.7019988,70.6699996 55.3680022,70.5720006 54.936,70.46 C54.327997,70.3079992 53.8360019,70.1540008 53.46,69.998 C53.0839981,69.8419992 52.7600014,69.6020016 52.488,69.278 C52.2159986,68.9539984 52.08,68.5200027 52.08,67.976 C52.08,67.3359968 52.3139977,66.7880023 52.782,66.332 C53.2500023,65.8759977 53.8559963,65.5920006 54.6,65.48 L54.6,64.16 L55.824,64.16 L55.824,65.468 C56.2800023,65.5240003 56.7139979,65.6359992 57.126,65.804 C57.5380021,65.9720008 57.8799986,66.1799988 58.152,66.428 L57.636,67.544 C56.8919963,66.9599971 56.0960042,66.668 55.248,66.668 C54.7519975,66.668 54.3580015,66.7759989 54.066,66.992 C53.7739985,67.2080011 53.628,67.5079981 53.628,67.892 C53.628,68.1560013 53.7119992,68.3699992 53.88,68.534 C54.0480008,68.6980008 54.2619987,68.8279995 54.522,68.924 C54.7820013,69.0200005 55.1319978,69.1199995 55.572,69.224 C56.1560029,69.3680007 56.6299982,69.5139993 56.994,69.662 C57.3580018,69.8100007 57.6679987,70.0399984 57.924,70.352 C58.1800013,70.6640016 58.308,71.0799974 58.308,71.6 C58.308,72.2400032 58.0840022,72.7819978 57.636,73.226 Z M64.38,68.468 L63.876,70.976 L65.136,70.976 L65.136,71.948 L63.684,71.948 L63.276,74 L62.244,74 L62.652,71.948 L61.128,71.948 L60.72,74 L59.676,74 L60.084,71.948 L59.244,71.948 L59.244,70.976 L60.276,70.976 L60.78,68.468 L59.496,68.468 L59.496,67.496 L60.972,67.496 L61.356,65.54 L62.388,65.54 L62.004,67.496 L63.528,67.496 L63.912,65.54 L64.956,65.54 L64.572,67.496 L65.388,67.496 L65.388,68.468 L64.38,68.468 Z M63.336,68.468 L61.812,68.468 L61.32,70.976 L62.844,70.976 L63.336,68.468 Z M72.036,73.226 C71.5879978,73.6700022 70.9920037,73.9479994 70.248,74.06 L70.248,75.38 L69.024,75.38 L69.024,74.084 C68.4879973,74.0439998 67.9940023,73.9400008 67.542,73.772 C67.0899977,73.6039992 66.6960017,73.3800014 66.36,73.1 L66.876,71.984 C67.284002,72.2880015 67.6979979,72.5119993 68.118,72.656 C68.5380021,72.8000007 68.9919976,72.872 69.48,72.872 C70.0240027,72.872 70.4419985,72.768001 70.734,72.56 C71.0260015,72.351999 71.172,72.052002 71.172,71.66 C71.172,71.4279988 71.0920008,71.2400007 70.932,71.096 C70.7719992,70.9519993 70.5740012,70.8380004 70.338,70.754 C70.1019988,70.6699996 69.7680022,70.5720006 69.336,70.46 C68.727997,70.3079992 68.2360019,70.1540008 67.86,69.998 C67.4839981,69.8419992 67.1600014,69.6020016 66.888,69.278 C66.6159986,68.9539984 66.48,68.5200027 66.48,67.976 C66.48,67.3359968 66.7139977,66.7880023 67.182,66.332 C67.6500023,65.8759977 68.2559963,65.5920006 69,65.48 L69,64.16 L70.224,64.16 L70.224,65.468 C70.6800023,65.5240003 71.1139979,65.6359992 71.526,65.804 C71.9380021,65.9720008 72.2799986,66.1799988 72.552,66.428 L72.036,67.544 C71.2919963,66.9599971 70.4960042,66.668 69.648,66.668 C69.1519975,66.668 68.7580015,66.7759989 68.466,66.992 C68.1739985,67.2080011 68.028,67.5079981 68.028,67.892 C68.028,68.1560013 68.1119992,68.3699992 68.28,68.534 C68.4480008,68.6980008 68.6619987,68.8279995 68.922,68.924 C69.1820013,69.0200005 69.5319978,69.1199995 69.972,69.224 C70.5560029,69.3680007 71.0299982,69.5139993 71.394,69.662 C71.7580018,69.8100007 72.0679987,70.0399984 72.324,70.352 C72.5800013,70.6640016 72.708,71.0799974 72.708,71.6 C72.708,72.2400032 72.4840022,72.7819978 72.036,73.226 Z M75.816,73.76 L80.772,65.204 L81.768,65.78 L76.812,74.336 L75.816,73.76 Z M74.196,69.932 C73.8199981,69.4919978 73.632,68.8480042 73.632,68 C73.632,67.1599958 73.8199981,66.5200022 74.196,66.08 C74.5720019,65.6399978 75.0959966,65.42 75.768,65.42 C76.4400034,65.42 76.9659981,65.6399978 77.346,66.08 C77.7260019,66.5200022 77.916,67.1599958 77.916,68 C77.916,68.8480042 77.7260019,69.4919978 77.346,69.932 C76.9659981,70.3720022 76.4400034,70.592 75.768,70.592 C75.0959966,70.592 74.5720019,70.3720022 74.196,69.932 Z M76.434,69.242 C76.5740007,68.9899987 76.644,68.5760029 76.644,68 C76.644,67.4399972 76.5720007,67.0320013 76.428,66.776 C76.2839993,66.5199987 76.0640015,66.392 75.768,66.392 C75.4719985,66.392 75.2540007,66.5179987 75.114,66.77 C74.9739993,67.0220013 74.904,67.4319972 74.904,68 C74.904,68.5760029 74.9739993,68.9899987 75.114,69.242 C75.2540007,69.4940013 75.4719985,69.62 75.768,69.62 C76.0720015,69.62 76.2939993,69.4940013 76.434,69.242 Z M80.232,73.424 C79.8559981,72.9839978 79.668,72.3360043 79.668,71.48 C79.668,70.6399958 79.8579981,70.0020022 80.238,69.566 C80.6180019,69.1299978 81.1399967,68.912 81.804,68.912 C82.4760034,68.912 82.9999981,69.1319978 83.376,69.572 C83.7520019,70.0120022 83.94,70.6519958 83.94,71.492 C83.94,72.3400042 83.7520019,72.9839978 83.376,73.424 C82.9999981,73.8640022 82.4760034,74.084 81.804,74.084 C81.1319966,74.084 80.6080019,73.8640022 80.232,73.424 Z M82.464,72.734 C82.6080007,72.4819987 82.68,72.0680029 82.68,71.492 C82.68,70.9319972 82.6080007,70.5240013 82.464,70.268 C82.3199993,70.0119987 82.1000015,69.884 81.804,69.884 C81.5079985,69.884 81.2880007,70.0119987 81.144,70.268 C80.9999993,70.5240013 80.928,70.9319972 80.928,71.492 C80.928,72.0680029 80.9999993,72.4819987 81.144,72.734 C81.2880007,72.9860013 81.5079985,73.112 81.804,73.112 C82.1000015,73.112 82.3199993,72.9860013 82.464,72.734 Z M89.952,72.296 L88.056,67.784 L86.16,72.296 L85.008,72.296 L87.492,66.44 L88.62,66.44 L91.104,72.296 L89.952,72.296 Z" id=")(E##$$#$#$%^"></path>
                    <path d="M1.572,105.556 C1.3319988,104.691996 1.212,103.788005 1.212,102.844 C1.212,101.899995 1.3319988,100.996004 1.572,100.132 C1.8120012,99.2679957 2.22399708,98.340005 2.808,97.348 L3.804,97.756 C3.41199804,98.7240048 3.13800078,99.603996 2.982,100.396 C2.82599922,101.188004 2.748,102.003996 2.748,102.844 C2.748,103.684004 2.82599922,104.499996 2.982,105.292 C3.13800078,106.084004 3.41199804,106.963995 3.804,107.932 L2.808,108.34 C2.22399708,107.347995 1.8120012,106.420004 1.572,105.556 Z M6.924,105.76 L11.88,97.204 L12.876,97.78 L7.92,106.336 L6.924,105.76 Z M5.304,101.932 C4.92799812,101.491998 4.74,100.848004 4.74,100 C4.74,99.1599958 4.92799812,98.5200022 5.304,98.08 C5.68000188,97.6399978 6.20399664,97.42 6.876,97.42 C7.54800336,97.42 8.0739981,97.6399978 8.454,98.08 C8.8340019,98.5200022 9.024,99.1599958 9.024,100 C9.024,100.848004 8.8340019,101.491998 8.454,101.932 C8.0739981,102.372002 7.54800336,102.592 6.876,102.592 C6.20399664,102.592 5.68000188,102.372002 5.304,101.932 Z M7.542,101.242 C7.6820007,100.989999 7.752,100.576003 7.752,100 C7.752,99.4399972 7.68000072,99.0320013 7.536,98.776 C7.39199928,98.5199987 7.17200148,98.392 6.876,98.392 C6.57999852,98.392 6.3620007,98.5179987 6.222,98.77 C6.0819993,99.0220013 6.012,99.4319972 6.012,100 C6.012,100.576003 6.0819993,100.989999 6.222,101.242 C6.3620007,101.494001 6.57999852,101.62 6.876,101.62 C7.18000152,101.62 7.4019993,101.494001 7.542,101.242 Z M11.34,105.424 C10.9639981,104.983998 10.776,104.336004 10.776,103.48 C10.776,102.639996 10.9659981,102.002002 11.346,101.566 C11.7260019,101.129998 12.2479967,100.912 12.912,100.912 C13.5840034,100.912 14.1079981,101.131998 14.484,101.572 C14.8600019,102.012002 15.048,102.651996 15.048,103.492 C15.048,104.340004 14.8600019,104.983998 14.484,105.424 C14.1079981,105.864002 13.5840034,106.084 12.912,106.084 C12.2399966,106.084 11.7160019,105.864002 11.34,105.424 Z M13.572,104.734 C13.7160007,104.481999 13.788,104.068003 13.788,103.492 C13.788,102.931997 13.7160007,102.524001 13.572,102.268 C13.4279993,102.011999 13.2080015,101.884 12.912,101.884 C12.6159985,101.884 12.3960007,102.011999 12.252,102.268 C12.1079993,102.524001 12.036,102.931997 12.036,103.492 C12.036,104.068003 12.1079993,104.481999 12.252,104.734 C12.3960007,104.986001 12.6159985,105.112 12.912,105.112 C13.2080015,105.112 13.4279993,104.986001 13.572,104.734 Z M18.264,105.76 L23.22,97.204 L24.216,97.78 L19.26,106.336 L18.264,105.76 Z M16.644,101.932 C16.2679981,101.491998 16.08,100.848004 16.08,100 C16.08,99.1599958 16.2679981,98.5200022 16.644,98.08 C17.0200019,97.6399978 17.5439966,97.42 18.216,97.42 C18.8880034,97.42 19.4139981,97.6399978 19.794,98.08 C20.1740019,98.5200022 20.364,99.1599958 20.364,100 C20.364,100.848004 20.1740019,101.491998 19.794,101.932 C19.4139981,102.372002 18.8880034,102.592 18.216,102.592 C17.5439966,102.592 17.0200019,102.372002 16.644,101.932 Z M18.882,101.242 C19.0220007,100.989999 19.092,100.576003 19.092,100 C19.092,99.4399972 19.0200007,99.0320013 18.876,98.776 C18.7319993,98.5199987 18.5120015,98.392 18.216,98.392 C17.9199985,98.392 17.7020007,98.5179987 17.562,98.77 C17.4219993,99.0220013 17.352,99.4319972 17.352,100 C17.352,100.576003 17.4219993,100.989999 17.562,101.242 C17.7020007,101.494001 17.9199985,101.62 18.216,101.62 C18.5200015,101.62 18.7419993,101.494001 18.882,101.242 Z M22.68,105.424 C22.3039981,104.983998 22.116,104.336004 22.116,103.48 C22.116,102.639996 22.3059981,102.002002 22.686,101.566 C23.0660019,101.129998 23.5879967,100.912 24.252,100.912 C24.9240034,100.912 25.4479981,101.131998 25.824,101.572 C26.2000019,102.012002 26.388,102.651996 26.388,103.492 C26.388,104.340004 26.2000019,104.983998 25.824,105.424 C25.4479981,105.864002 24.9240034,106.084 24.252,106.084 C23.5799966,106.084 23.0560019,105.864002 22.68,105.424 Z M24.912,104.734 C25.0560007,104.481999 25.128,104.068003 25.128,103.492 C25.128,102.931997 25.0560007,102.524001 24.912,102.268 C24.7679993,102.011999 24.5480015,101.884 24.252,101.884 C23.9559985,101.884 23.7360007,102.011999 23.592,102.268 C23.4479993,102.524001 23.376,102.931997 23.376,103.492 C23.376,104.068003 23.4479993,104.481999 23.592,104.734 C23.7360007,104.986001 23.9559985,105.112 24.252,105.112 C24.5480015,105.112 24.7679993,104.986001 24.912,104.734 Z M32.4,104.296 L30.504,99.784 L28.608,104.296 L27.456,104.296 L29.94,98.44 L31.068,98.44 L33.552,104.296 L32.4,104.296 Z M36.804,105.76 L41.76,97.204 L42.756,97.78 L37.8,106.336 L36.804,105.76 Z M35.184,101.932 C34.8079981,101.491998 34.62,100.848004 34.62,100 C34.62,99.1599958 34.8079981,98.5200022 35.184,98.08 C35.5600019,97.6399978 36.0839966,97.42 36.756,97.42 C37.4280034,97.42 37.9539981,97.6399978 38.334,98.08 C38.7140019,98.5200022 38.904,99.1599958 38.904,100 C38.904,100.848004 38.7140019,101.491998 38.334,101.932 C37.9539981,102.372002 37.4280034,102.592 36.756,102.592 C36.0839966,102.592 35.5600019,102.372002 35.184,101.932 Z M37.422,101.242 C37.5620007,100.989999 37.632,100.576003 37.632,100 C37.632,99.4399972 37.5600007,99.0320013 37.416,98.776 C37.2719993,98.5199987 37.0520015,98.392 36.756,98.392 C36.4599985,98.392 36.2420007,98.5179987 36.102,98.77 C35.9619993,99.0220013 35.892,99.4319972 35.892,100 C35.892,100.576003 35.9619993,100.989999 36.102,101.242 C36.2420007,101.494001 36.4599985,101.62 36.756,101.62 C37.0600015,101.62 37.2819993,101.494001 37.422,101.242 Z M41.22,105.424 C40.8439981,104.983998 40.656,104.336004 40.656,103.48 C40.656,102.639996 40.8459981,102.002002 41.226,101.566 C41.6060019,101.129998 42.1279967,100.912 42.792,100.912 C43.4640034,100.912 43.9879981,101.131998 44.364,101.572 C44.7400019,102.012002 44.928,102.651996 44.928,103.492 C44.928,104.340004 44.7400019,104.983998 44.364,105.424 C43.9879981,105.864002 43.4640034,106.084 42.792,106.084 C42.1199966,106.084 41.5960019,105.864002 41.22,105.424 Z M43.452,104.734 C43.5960007,104.481999 43.668,104.068003 43.668,103.492 C43.668,102.931997 43.5960007,102.524001 43.452,102.268 C43.3079993,102.011999 43.0880015,101.884 42.792,101.884 C42.4959985,101.884 42.2760007,102.011999 42.132,102.268 C41.9879993,102.524001 41.916,102.931997 41.916,103.492 C41.916,104.068003 41.9879993,104.481999 42.132,104.734 C42.2760007,104.986001 42.4959985,105.112 42.792,105.112 C43.0880015,105.112 43.3079993,104.986001 43.452,104.734 Z M50.94,104.296 L49.044,99.784 L47.148,104.296 L45.996,104.296 L48.48,98.44 L49.608,98.44 L52.092,104.296 L50.94,104.296 Z M54.216,105.556 C53.9759988,104.691996 53.856,103.788005 53.856,102.844 C53.856,101.899995 53.9759988,100.996004 54.216,100.132 C54.4560012,99.2679957 54.8679971,98.340005 55.452,97.348 L56.448,97.756 C56.055998,98.7240048 55.7820008,99.603996 55.626,100.396 C55.4699992,101.188004 55.392,102.003996 55.392,102.844 C55.392,103.684004 55.4699992,104.499996 55.626,105.292 C55.7820008,106.084004 56.055998,106.963995 56.448,107.932 L55.452,108.34 C54.8679971,107.347995 54.4560012,106.420004 54.216,105.556 Z M57.768,107.932 C58.160002,106.963995 58.4339992,106.084004 58.59,105.292 C58.7460008,104.499996 58.824,103.684004 58.824,102.844 C58.824,102.003996 58.7460008,101.188004 58.59,100.396 C58.4339992,99.603996 58.160002,98.7240048 57.768,97.756 L58.764,97.348 C59.3480029,98.340005 59.7599988,99.2679957 60,100.132 C60.2400012,100.996004 60.36,101.899995 60.36,102.844 C60.36,103.788005 60.2400012,104.691996 60,105.556 C59.7599988,106.420004 59.3480029,107.347995 58.764,108.34 L57.768,107.932 Z M67.692,105.226 C67.2439978,105.670002 66.6480037,105.947999 65.904,106.06 L65.904,107.38 L64.68,107.38 L64.68,106.084 C64.1439973,106.044 63.6500023,105.940001 63.198,105.772 C62.7459977,105.603999 62.3520017,105.380001 62.016,105.1 L62.532,103.984 C62.940002,104.288002 63.3539979,104.511999 63.774,104.656 C64.1940021,104.800001 64.6479976,104.872 65.136,104.872 C65.6800027,104.872 66.0979985,104.768001 66.39,104.56 C66.6820015,104.351999 66.828,104.052002 66.828,103.66 C66.828,103.427999 66.7480008,103.240001 66.588,103.096 C66.4279992,102.951999 66.2300012,102.838 65.994,102.754 C65.7579988,102.67 65.4240022,102.572001 64.992,102.46 C64.383997,102.307999 63.8920019,102.154001 63.516,101.998 C63.1399981,101.841999 62.8160014,101.602002 62.544,101.278 C62.2719986,100.953998 62.136,100.520003 62.136,99.976 C62.136,99.3359968 62.3699977,98.7880023 62.838,98.332 C63.3060023,97.8759977 63.9119963,97.5920006 64.656,97.48 L64.656,96.16 L65.88,96.16 L65.88,97.468 C66.3360023,97.5240003 66.7699979,97.6359992 67.182,97.804 C67.5940021,97.9720008 67.9359986,98.1799988 68.208,98.428 L67.692,99.544 C66.9479963,98.9599971 66.1520042,98.668 65.304,98.668 C64.8079975,98.668 64.4140015,98.7759989 64.122,98.992 C63.8299985,99.2080011 63.684,99.5079981 63.684,99.892 C63.684,100.156001 63.7679992,100.369999 63.936,100.534 C64.1040008,100.698001 64.3179987,100.828 64.578,100.924 C64.8380013,101.02 65.1879978,101.119999 65.628,101.224 C66.2120029,101.368001 66.6859982,101.513999 67.05,101.662 C67.4140018,101.810001 67.7239987,102.039998 67.98,102.352 C68.2360013,102.664002 68.364,103.079997 68.364,103.6 C68.364,104.240003 68.1400022,104.781998 67.692,105.226 Z M71.472,105.76 L76.428,97.204 L77.424,97.78 L72.468,106.336 L71.472,105.76 Z M69.852,101.932 C69.4759981,101.491998 69.288,100.848004 69.288,100 C69.288,99.1599958 69.4759981,98.5200022 69.852,98.08 C70.2280019,97.6399978 70.7519966,97.42 71.424,97.42 C72.0960034,97.42 72.6219981,97.6399978 73.002,98.08 C73.3820019,98.5200022 73.572,99.1599958 73.572,100 C73.572,100.848004 73.3820019,101.491998 73.002,101.932 C72.6219981,102.372002 72.0960034,102.592 71.424,102.592 C70.7519966,102.592 70.2280019,102.372002 69.852,101.932 Z M72.09,101.242 C72.2300007,100.989999 72.3,100.576003 72.3,100 C72.3,99.4399972 72.2280007,99.0320013 72.084,98.776 C71.9399993,98.5199987 71.7200015,98.392 71.424,98.392 C71.1279985,98.392 70.9100007,98.5179987 70.77,98.77 C70.6299993,99.0220013 70.56,99.4319972 70.56,100 C70.56,100.576003 70.6299993,100.989999 70.77,101.242 C70.9100007,101.494001 71.1279985,101.62 71.424,101.62 C71.7280015,101.62 71.9499993,101.494001 72.09,101.242 Z M75.888,105.424 C75.5119981,104.983998 75.324,104.336004 75.324,103.48 C75.324,102.639996 75.5139981,102.002002 75.894,101.566 C76.2740019,101.129998 76.7959967,100.912 77.46,100.912 C78.1320034,100.912 78.6559981,101.131998 79.032,101.572 C79.4080019,102.012002 79.596,102.651996 79.596,103.492 C79.596,104.340004 79.4080019,104.983998 79.032,105.424 C78.6559981,105.864002 78.1320034,106.084 77.46,106.084 C76.7879966,106.084 76.2640019,105.864002 75.888,105.424 Z M78.12,104.734 C78.2640007,104.481999 78.336,104.068003 78.336,103.492 C78.336,102.931997 78.2640007,102.524001 78.12,102.268 C77.9759993,102.011999 77.7560015,101.884 77.46,101.884 C77.1639985,101.884 76.9440007,102.011999 76.8,102.268 C76.6559993,102.524001 76.584,102.931997 76.584,103.492 C76.584,104.068003 76.6559993,104.481999 76.8,104.734 C76.9440007,104.986001 77.1639985,105.112 77.46,105.112 C77.7560015,105.112 77.9759993,104.986001 78.12,104.734 Z M85.608,104.296 L83.712,99.784 L81.816,104.296 L80.664,104.296 L83.148,98.44 L84.276,98.44 L86.76,104.296 L85.608,104.296 Z M94.128,106 L93.24,105.088 C92.8879982,105.408002 92.4940022,105.655999 92.058,105.832 C91.6219978,106.008001 91.1640024,106.096 90.684,106.096 C90.1159972,106.096 89.6120022,105.998001 89.172,105.802 C88.7319978,105.605999 88.3900012,105.334002 88.146,104.986 C87.9019988,104.637998 87.78,104.236002 87.78,103.78 C87.78,103.275997 87.9219986,102.824002 88.206,102.424 C88.4900014,102.023998 88.9439969,101.648002 89.568,101.296 C89.2559984,100.951998 89.0300007,100.636001 88.89,100.348 C88.7499993,100.059999 88.68,99.7600016 88.68,99.448 C88.68,98.847997 88.8939979,98.3660018 89.322,98.002 C89.7500021,97.6379982 90.3079966,97.456 90.996,97.456 C91.6360032,97.456 92.1459981,97.6219983 92.526,97.954 C92.9060019,98.2860017 93.096,98.7319972 93.096,99.292 C93.096,99.7240022 92.9720012,100.109998 92.724,100.45 C92.4759988,100.790002 92.0680028,101.131998 91.5,101.476 L93.168,103.18 C93.4960016,102.531997 93.6759998,101.776004 93.708,100.912 L94.956,100.912 C94.9079998,102.144006 94.6080028,103.203996 94.056,104.092 L95.916,106 L94.128,106 Z M90.3,98.746 C90.1239991,98.9180009 90.036,99.1479986 90.036,99.436 C90.036,99.628001 90.0839995,99.8119991 90.18,99.988 C90.2760005,100.164001 90.4599986,100.395999 90.732,100.684 C91.1560021,100.443999 91.4519992,100.222001 91.62,100.018 C91.7880008,99.813999 91.872,99.5920012 91.872,99.352 C91.872,99.0879987 91.7920008,98.8780008 91.632,98.722 C91.4719992,98.5659992 91.2640013,98.488 91.008,98.488 C90.7119985,98.488 90.4760009,98.5739991 90.3,98.746 Z M92.412,104.236 L90.348,102.1 C89.955998,102.340001 89.6740009,102.585999 89.502,102.838 C89.3299991,103.090001 89.244,103.379998 89.244,103.708 C89.244,104.084002 89.3779987,104.381999 89.646,104.602 C89.9140013,104.822001 90.2759977,104.932 90.732,104.932 C91.3640032,104.932 91.9239976,104.700002 92.412,104.236 Z M100.536,100.204 L98.964,100.12 L99.828,101.44 L98.916,101.968 L98.196,100.552 L97.476,101.956 L96.576,101.44 L97.44,100.108 L95.856,100.192 L95.856,99.148 L97.44,99.232 L96.576,97.9 L97.476,97.372 L98.196,98.788 L98.916,97.372 L99.828,97.912 L98.964,99.232 L100.536,99.148 L100.536,100.204 Z M102.48,105.556 C102.239999,104.691996 102.12,103.788005 102.12,102.844 C102.12,101.899995 102.239999,100.996004 102.48,100.132 C102.720001,99.2679957 103.131997,98.340005 103.716,97.348 L104.712,97.756 C104.319998,98.7240048 104.046001,99.603996 103.89,100.396 C103.733999,101.188004 103.656,102.003996 103.656,102.844 C103.656,103.684004 103.733999,104.499996 103.89,105.292 C104.046001,106.084004 104.319998,106.963995 104.712,107.932 L103.716,108.34 C103.131997,107.347995 102.720001,106.420004 102.48,105.556 Z M110.184,100.204 L108.612,100.12 L109.476,101.44 L108.564,101.968 L107.844,100.552 L107.124,101.956 L106.224,101.44 L107.088,100.108 L105.504,100.192 L105.504,99.148 L107.088,99.232 L106.224,97.9 L107.124,97.372 L107.844,98.788 L108.564,97.372 L109.476,97.912 L108.612,99.232 L110.184,99.148 L110.184,100.204 Z M117.372,106 L116.484,105.088 C116.131998,105.408002 115.738002,105.655999 115.302,105.832 C114.865998,106.008001 114.408002,106.096 113.928,106.096 C113.359997,106.096 112.856002,105.998001 112.416,105.802 C111.975998,105.605999 111.634001,105.334002 111.39,104.986 C111.145999,104.637998 111.024,104.236002 111.024,103.78 C111.024,103.275997 111.165999,102.824002 111.45,102.424 C111.734001,102.023998 112.187997,101.648002 112.812,101.296 C112.499998,100.951998 112.274001,100.636001 112.134,100.348 C111.993999,100.059999 111.924,99.7600016 111.924,99.448 C111.924,98.847997 112.137998,98.3660018 112.566,98.002 C112.994002,97.6379982 113.551997,97.456 114.24,97.456 C114.880003,97.456 115.389998,97.6219983 115.77,97.954 C116.150002,98.2860017 116.34,98.7319972 116.34,99.292 C116.34,99.7240022 116.216001,100.109998 115.968,100.45 C115.719999,100.790002 115.312003,101.131998 114.744,101.476 L116.412,103.18 C116.740002,102.531997 116.92,101.776004 116.952,100.912 L118.2,100.912 C118.152,102.144006 117.852003,103.203996 117.3,104.092 L119.16,106 L117.372,106 Z M113.544,98.746 C113.367999,98.9180009 113.28,99.1479986 113.28,99.436 C113.28,99.628001 113.328,99.8119991 113.424,99.988 C113.52,100.164001 113.703999,100.395999 113.976,100.684 C114.400002,100.443999 114.695999,100.222001 114.864,100.018 C115.032001,99.813999 115.116,99.5920012 115.116,99.352 C115.116,99.0879987 115.036001,98.8780008 114.876,98.722 C114.715999,98.5659992 114.508001,98.488 114.252,98.488 C113.955999,98.488 113.720001,98.5739991 113.544,98.746 Z M115.656,104.236 L113.592,102.1 C113.199998,102.340001 112.918001,102.585999 112.746,102.838 C112.573999,103.090001 112.488,103.379998 112.488,103.708 C112.488,104.084002 112.621999,104.381999 112.89,104.602 C113.158001,104.822001 113.519998,104.932 113.976,104.932 C114.608003,104.932 115.167998,104.700002 115.656,104.236 Z M124.224,104.296 L122.328,99.784 L120.432,104.296 L119.28,104.296 L121.764,98.44 L122.892,98.44 L125.376,104.296 L124.224,104.296 Z M128.628,105.76 L133.584,97.204 L134.58,97.78 L129.624,106.336 L128.628,105.76 Z M127.008,101.932 C126.631998,101.491998 126.444,100.848004 126.444,100 C126.444,99.1599958 126.631998,98.5200022 127.008,98.08 C127.384002,97.6399978 127.907997,97.42 128.58,97.42 C129.252003,97.42 129.777998,97.6399978 130.158,98.08 C130.538002,98.5200022 130.728,99.1599958 130.728,100 C130.728,100.848004 130.538002,101.491998 130.158,101.932 C129.777998,102.372002 129.252003,102.592 128.58,102.592 C127.907997,102.592 127.384002,102.372002 127.008,101.932 Z M129.246,101.242 C129.386001,100.989999 129.456,100.576003 129.456,100 C129.456,99.4399972 129.384001,99.0320013 129.24,98.776 C129.095999,98.5199987 128.876001,98.392 128.58,98.392 C128.283999,98.392 128.066001,98.5179987 127.926,98.77 C127.785999,99.0220013 127.716,99.4319972 127.716,100 C127.716,100.576003 127.785999,100.989999 127.926,101.242 C128.066001,101.494001 128.283999,101.62 128.58,101.62 C128.884002,101.62 129.105999,101.494001 129.246,101.242 Z M133.044,105.424 C132.667998,104.983998 132.48,104.336004 132.48,103.48 C132.48,102.639996 132.669998,102.002002 133.05,101.566 C133.430002,101.129998 133.951997,100.912 134.616,100.912 C135.288003,100.912 135.811998,101.131998 136.188,101.572 C136.564002,102.012002 136.752,102.651996 136.752,103.492 C136.752,104.340004 136.564002,104.983998 136.188,105.424 C135.811998,105.864002 135.288003,106.084 134.616,106.084 C133.943997,106.084 133.420002,105.864002 133.044,105.424 Z M135.276,104.734 C135.420001,104.481999 135.492,104.068003 135.492,103.492 C135.492,102.931997 135.420001,102.524001 135.276,102.268 C135.131999,102.011999 134.912001,101.884 134.616,101.884 C134.319999,101.884 134.100001,102.011999 133.956,102.268 C133.811999,102.524001 133.74,102.931997 133.74,103.492 C133.74,104.068003 133.811999,104.481999 133.956,104.734 C134.100001,104.986001 134.319999,105.112 134.616,105.112 C134.912001,105.112 135.131999,104.986001 135.276,104.734 Z M143.388,105.226 C142.939998,105.670002 142.344004,105.947999 141.6,106.06 L141.6,107.38 L140.376,107.38 L140.376,106.084 C139.839997,106.044 139.346002,105.940001 138.894,105.772 C138.441998,105.603999 138.048002,105.380001 137.712,105.1 L138.228,103.984 C138.636002,104.288002 139.049998,104.511999 139.47,104.656 C139.890002,104.800001 140.343998,104.872 140.832,104.872 C141.376003,104.872 141.793999,104.768001 142.086,104.56 C142.378001,104.351999 142.524,104.052002 142.524,103.66 C142.524,103.427999 142.444001,103.240001 142.284,103.096 C142.123999,102.951999 141.926001,102.838 141.69,102.754 C141.453999,102.67 141.120002,102.572001 140.688,102.46 C140.079997,102.307999 139.588002,102.154001 139.212,101.998 C138.835998,101.841999 138.512001,101.602002 138.24,101.278 C137.967999,100.953998 137.832,100.520003 137.832,99.976 C137.832,99.3359968 138.065998,98.7880023 138.534,98.332 C139.002002,97.8759977 139.607996,97.5920006 140.352,97.48 L140.352,96.16 L141.576,96.16 L141.576,97.468 C142.032002,97.5240003 142.465998,97.6359992 142.878,97.804 C143.290002,97.9720008 143.631999,98.1799988 143.904,98.428 L143.388,99.544 C142.643996,98.9599971 141.848004,98.668 141,98.668 C140.503998,98.668 140.110001,98.7759989 139.818,98.992 C139.525999,99.2080011 139.38,99.5079981 139.38,99.892 C139.38,100.156001 139.463999,100.369999 139.632,100.534 C139.800001,100.698001 140.013999,100.828 140.274,100.924 C140.534001,101.02 140.883998,101.119999 141.324,101.224 C141.908003,101.368001 142.381998,101.513999 142.746,101.662 C143.110002,101.810001 143.419999,102.039998 143.676,102.352 C143.932001,102.664002 144.06,103.079997 144.06,103.6 C144.06,104.240003 143.836002,104.781998 143.388,105.226 Z M150.588,105.226 C150.139998,105.670002 149.544004,105.947999 148.8,106.06 L148.8,107.38 L147.576,107.38 L147.576,106.084 C147.039997,106.044 146.546002,105.940001 146.094,105.772 C145.641998,105.603999 145.248002,105.380001 144.912,105.1 L145.428,103.984 C145.836002,104.288002 146.249998,104.511999 146.67,104.656 C147.090002,104.800001 147.543998,104.872 148.032,104.872 C148.576003,104.872 148.993999,104.768001 149.286,104.56 C149.578001,104.351999 149.724,104.052002 149.724,103.66 C149.724,103.427999 149.644001,103.240001 149.484,103.096 C149.323999,102.951999 149.126001,102.838 148.89,102.754 C148.653999,102.67 148.320002,102.572001 147.888,102.46 C147.279997,102.307999 146.788002,102.154001 146.412,101.998 C146.035998,101.841999 145.712001,101.602002 145.44,101.278 C145.167999,100.953998 145.032,100.520003 145.032,99.976 C145.032,99.3359968 145.265998,98.7880023 145.734,98.332 C146.202002,97.8759977 146.807996,97.5920006 147.552,97.48 L147.552,96.16 L148.776,96.16 L148.776,97.468 C149.232002,97.5240003 149.665998,97.6359992 150.078,97.804 C150.490002,97.9720008 150.831999,98.1799988 151.104,98.428 L150.588,99.544 C149.843996,98.9599971 149.048004,98.668 148.2,98.668 C147.703998,98.668 147.310001,98.7759989 147.018,98.992 C146.725999,99.2080011 146.58,99.5079981 146.58,99.892 C146.58,100.156001 146.663999,100.369999 146.832,100.534 C147.000001,100.698001 147.213999,100.828 147.474,100.924 C147.734001,101.02 148.083998,101.119999 148.524,101.224 C149.108003,101.368001 149.581998,101.513999 149.946,101.662 C150.310002,101.810001 150.619999,102.039998 150.876,102.352 C151.132001,102.664002 151.26,103.079997 151.26,103.6 C151.26,104.240003 151.036002,104.781998 150.588,105.226 Z" id="(%%^%^()$%^&amp;*(*&amp;^%$$"></path>
                    <path d="M3.276,129.864 C3.54800136,130.120001 3.684,130.519997 3.684,131.064 L3.684,133.104 L2.496,133.104 L2.496,132.54 C2.40799956,132.740001 2.2740009,132.893999 2.094,133.002 C1.9139991,133.110001 1.71200112,133.164 1.488,133.164 C1.13599824,133.164 0.84200118,133.050001 0.606,132.822 C0.36999882,132.593999 0.252,132.332001 0.252,132.036 C0.252,131.675998 0.39999852,131.416001 0.696,131.256 C0.99200148,131.095999 1.50799632,131.016 2.244,131.016 L2.484,131.016 L2.484,130.86 C2.484,130.699999 2.43600048,130.582 2.34,130.506 C2.24399952,130.43 2.096001,130.392 1.896,130.392 C1.50399804,130.392 1.12000188,130.495999 0.744,130.704 L0.492,129.828 C0.70000104,129.723999 0.93799866,129.64 1.206,129.576 C1.47400134,129.512 1.7479986,129.48 2.028,129.48 C2.5880028,129.48 3.00399864,129.607999 3.276,129.864 Z M2.298,132.168 C2.42200062,132.055999 2.484,131.904001 2.484,131.712 L2.484,131.592 L2.364,131.592 C1.98799812,131.592 1.73200068,131.624 1.596,131.688 C1.45999932,131.752 1.392,131.847999 1.392,131.976 C1.392,132.080001 1.4319996,132.166 1.512,132.234 C1.5920004,132.302 1.69999932,132.336 1.836,132.336 C2.02000092,132.336 2.17399938,132.280001 2.298,132.168 Z M5.448,136.662 C5.11199832,136.473999 4.84600098,136.218002 4.65,135.894 C4.45399902,135.569998 4.356,135.212002 4.356,134.82 C4.356,134.451998 4.44999906,134.104002 4.638,133.776 C4.82600094,133.447998 5.08599834,133.184001 5.418,132.984 C5.75000166,132.783999 6.11999796,132.684 6.528,132.684 C6.91200192,132.684 7.26999834,132.777999 7.602,132.966 C7.93400166,133.154001 8.199999,133.409998 8.4,133.734 C8.600001,134.058002 8.7,134.419998 8.7,134.82 C8.7,135.204002 8.60200098,135.557998 8.406,135.882 C8.20999902,136.206002 7.94600166,136.463999 7.614,136.656 C7.28199834,136.848001 6.92000196,136.944 6.528,136.944 C6.14399808,136.944 5.78400168,136.850001 5.448,136.662 Z M12.3,129.864 C12.5720014,130.120001 12.708,130.519997 12.708,131.064 L12.708,133.104 L11.52,133.104 L11.52,132.54 C11.4319996,132.740001 11.2980009,132.893999 11.118,133.002 C10.9379991,133.110001 10.7360011,133.164 10.512,133.164 C10.1599982,133.164 9.86600118,133.050001 9.63,132.822 C9.39399882,132.593999 9.276,132.332001 9.276,132.036 C9.276,131.675998 9.42399852,131.416001 9.72,131.256 C10.0160015,131.095999 10.5319963,131.016 11.268,131.016 L11.508,131.016 L11.508,130.86 C11.508,130.699999 11.4600005,130.582 11.364,130.506 C11.2679995,130.43 11.120001,130.392 10.92,130.392 C10.527998,130.392 10.1440019,130.495999 9.768,130.704 L9.516,129.828 C9.72400104,129.723999 9.96199866,129.64 10.23,129.576 C10.4980013,129.512 10.7719986,129.48 11.052,129.48 C11.6120028,129.48 12.0279986,129.607999 12.3,129.864 Z M11.322,132.168 C11.4460006,132.055999 11.508,131.904001 11.508,131.712 L11.508,131.592 L11.388,131.592 C11.0119981,131.592 10.7560007,131.624 10.62,131.688 C10.4839993,131.752 10.416,131.847999 10.416,131.976 C10.416,132.080001 10.4559996,132.166 10.536,132.234 C10.6160004,132.302 10.7239993,132.336 10.86,132.336 C11.0440009,132.336 11.1979994,132.280001 11.322,132.168 Z M13.776,132.642 C13.4399983,132.293998 13.272,131.852003 13.272,131.316 C13.272,130.779997 13.4399983,130.340002 13.776,129.996 C14.1120017,129.651998 14.5959968,129.48 15.228,129.48 C15.8520031,129.48 16.3339983,129.653998 16.674,130.002 C17.0140017,130.350002 17.184,130.787997 17.184,131.316 C17.184,131.852003 17.0140017,132.293998 16.674,132.642 C16.3339983,132.990002 15.8520031,133.164 15.228,133.164 C14.5959968,133.164 14.1120017,132.990002 13.776,132.642 Z M15.768,131.952 C15.8960006,131.799999 15.96,131.588001 15.96,131.316 C15.96,131.035999 15.8980006,130.824001 15.774,130.68 C15.6499994,130.535999 15.4680012,130.464 15.228,130.464 C14.9959988,130.464 14.8200006,130.535999 14.7,130.68 C14.5799994,130.824001 14.52,131.035999 14.52,131.316 C14.52,131.588001 14.5819994,131.799999 14.706,131.952 C14.8300006,132.104001 15.0039989,132.18 15.228,132.18 C15.4600012,132.18 15.6399994,132.104001 15.768,131.952 Z M23.832,140.16 L22.776,140.16 L22.776,130.488 L21.432,130.488 L21.432,140.16 L20.376,140.16 L20.376,134.616 C19.8719975,134.616 19.4280019,134.510001 19.044,134.298 C18.6599981,134.085999 18.3620011,133.786002 18.15,133.398 C17.9379989,133.009998 17.832,132.568002 17.832,132.072 C17.832,131.575998 17.9379989,131.136002 18.15,130.752 C18.3620011,130.367998 18.663998,130.070001 19.056,129.858 C19.448002,129.645999 19.8999974,129.54 20.412,129.54 L23.832,129.54 L23.832,140.16 Z M30.9,136.326 C30.7719994,136.602001 30.5880012,136.843999 30.348,137.052 C30.5320009,137.356002 30.624,137.679998 30.624,138.024 C30.624,138.728004 30.3920023,139.273998 29.928,139.662 C29.4639977,140.050002 28.8160042,140.244 27.984,140.244 C26.9519948,140.244 26.1080033,139.996002 25.452,139.5 L25.872,138.444 C26.5200032,138.892002 27.1999964,139.116 27.912,139.116 C28.2960019,139.116 28.5979989,139.030001 28.818,138.858 C29.0380011,138.685999 29.148,138.448002 29.148,138.144 C29.148,137.895999 29.0820007,137.692001 28.95,137.532 C28.8179993,137.371999 28.5920016,137.216001 28.272,137.064 L26.856,136.404 C26.255997,136.131999 25.8240013,135.826002 25.56,135.486 C25.2959987,135.145998 25.164,134.736002 25.164,134.256 C25.164,133.943998 25.2279994,133.648001 25.356,133.368 C25.4840006,133.087999 25.6679988,132.844001 25.908,132.636 C25.7319991,132.355999 25.644,132.036002 25.644,131.676 C25.644,130.995997 25.8839976,130.456002 26.364,130.056 C26.8440024,129.655998 27.4999958,129.456 28.332,129.456 C28.7560021,129.456 29.1599981,129.519999 29.544,129.648 C29.9280019,129.776001 30.2639986,129.955999 30.552,130.188 L30.132,131.208 C29.8599986,131.007999 29.5720015,130.854001 29.268,130.746 C28.9639985,130.637999 28.6680014,130.584 28.38,130.584 C27.971998,130.584 27.6580011,130.665999 27.438,130.83 C27.2179989,130.994001 27.108,131.235998 27.108,131.556 C27.108,131.788001 27.1759993,131.987999 27.312,132.156 C27.4480007,132.324001 27.6719984,132.483999 27.984,132.636 L29.388,133.296 C29.980003,133.576001 30.4119986,133.885998 30.684,134.226 C30.9560014,134.566002 31.092,134.967998 31.092,135.432 C31.092,135.752002 31.0280006,136.049999 30.9,136.326 Z M29.58,136.284 C29.6920006,136.083999 29.748,135.892001 29.748,135.708 C29.748,135.459999 29.6620009,135.234001 29.49,135.03 C29.3179991,134.825999 29.0480018,134.628001 28.68,134.436 L27.252,133.74 C27.0199988,133.619999 26.8280008,133.508001 26.676,133.404 C26.5559994,133.620001 26.496,133.815999 26.496,133.992 C26.496,134.240001 26.5839991,134.463999 26.76,134.664 C26.9360009,134.864001 27.2119981,135.059999 27.588,135.252 L29.004,135.936 C29.204001,136.032 29.3959991,136.147999 29.58,136.284 Z M37.944,140.16 L36.888,140.16 L36.888,130.488 L35.544,130.488 L35.544,140.16 L34.488,140.16 L34.488,134.616 C33.9839975,134.616 33.5400019,134.510001 33.156,134.298 C32.7719981,134.085999 32.4740011,133.786002 32.262,133.398 C32.0499989,133.009998 31.944,132.568002 31.944,132.072 C31.944,131.575998 32.0499989,131.136002 32.262,130.752 C32.4740011,130.367998 32.775998,130.070001 33.168,129.858 C33.560002,129.645999 34.0119974,129.54 34.524,129.54 L37.944,129.54 L37.944,140.16 Z M44.832,129.54 L44.832,130.752 L44.22,130.752 C43.8759983,130.752 43.6200008,130.831999 43.452,130.992 C43.2839992,131.152001 43.2,131.411998 43.2,131.772 L43.2,137.988 C43.2,138.740004 42.9900021,139.289998 42.57,139.638 C42.1499979,139.986002 41.5840036,140.16 40.872,140.16 L40.068,140.16 L40.068,138.96 L40.692,138.96 C41.0360017,138.96 41.2919992,138.880001 41.46,138.72 C41.6280008,138.559999 41.712,138.300002 41.712,137.94 L41.712,131.724 C41.712,130.963996 41.9199979,130.410002 42.336,130.062 C42.7520021,129.713998 43.3159964,129.54 44.028,129.54 L44.832,129.54 Z M46.164,129.714 C46.3880011,129.437999 46.6799982,129.3 47.04,129.3 C47.1920008,129.3 47.3359993,129.33 47.472,129.39 C47.6080007,129.45 47.779999,129.539999 47.988,129.66 C48.1400008,129.756 48.2679995,129.828 48.372,129.876 C48.4760005,129.924 48.5759995,129.948 48.672,129.948 C48.8320008,129.948 48.9559996,129.892001 49.044,129.78 C49.1320004,129.667999 49.1839999,129.520001 49.2,129.336 L49.884,129.336 C49.884,129.864003 49.7720011,130.263999 49.548,130.536 C49.3239989,130.808001 49.0320018,130.944 48.672,130.944 C48.5199992,130.944 48.3760007,130.914 48.24,130.854 C48.1039993,130.794 47.932001,130.704001 47.724,130.584 C47.5719992,130.488 47.4440005,130.416 47.34,130.368 C47.2359995,130.32 47.1360005,130.296 47.04,130.296 C46.8799992,130.296 46.7560004,130.351999 46.668,130.464 C46.5799996,130.576001 46.5280001,130.723999 46.512,130.908 L45.828,130.908 C45.828,130.387997 45.9399989,129.990001 46.164,129.714 Z M52.284,129.408 L52.284,130.884 L50.628,130.884 L50.628,129.408 L52.284,129.408 Z M58.272,131.712 L58.188,132.084 L59.556,132.084 L59.556,133.008 L57.996,133.008 L56.916,138.048 C56.7639992,138.800004 56.4620023,139.349998 56.01,139.698 C55.5579977,140.046002 55.028003,140.22 54.42,140.22 L53.64,140.22 L53.64,139.032 L54.396,139.032 C54.9640028,139.032 55.3119994,138.688003 55.44,138 L56.508,133.008 L55.152,133.008 L55.152,132.084 L56.712,132.084 L56.796,131.664 C56.9480008,130.911996 57.2479978,130.360002 57.696,130.008 C58.1440022,129.655998 58.671997,129.48 59.28,129.48 L60.06,129.48 L60.06,130.68 L59.304,130.68 C58.7439972,130.68 58.4000006,131.023997 58.272,131.712 Z M67.53,130.044 C68.1820033,130.420002 68.6959981,130.933997 69.072,131.586 C69.4480019,132.238003 69.636,132.963996 69.636,133.764 C69.636,134.564004 69.4480019,135.289997 69.072,135.942 C68.6959981,136.594003 68.1800033,137.109998 67.524,137.49 C66.8679967,137.870002 66.144004,138.06 65.352,138.06 C64.551996,138.06 63.8240033,137.870002 63.168,137.49 C62.5119967,137.109998 61.9960019,136.594003 61.62,135.942 C61.2439981,135.289997 61.056,134.564004 61.056,133.764 C61.056,132.963996 61.2439981,132.238003 61.62,131.586 C61.9960019,130.933997 62.5119967,130.420002 63.168,130.044 C63.8240033,129.667998 64.551996,129.48 65.352,129.48 C66.152004,129.48 66.8779967,129.667998 67.53,130.044 Z M67.176,136.92 C67.7200027,136.599998 68.1479984,136.164003 68.46,135.612 C68.7720016,135.059997 68.928,134.444003 68.928,133.764 C68.928,133.083997 68.7720016,132.468003 68.46,131.916 C68.1479984,131.363997 67.7200027,130.930002 67.176,130.614 C66.6319973,130.297998 66.0240034,130.14 65.352,130.14 C64.6719966,130.14 64.0600027,130.297998 63.516,130.614 C62.9719973,130.930002 62.5440016,131.363997 62.232,131.916 C61.9199984,132.468003 61.764,133.083997 61.764,133.764 C61.764,134.444003 61.9199984,135.059997 62.232,135.612 C62.5440016,136.164003 62.9719973,136.599998 63.516,136.92 C64.0600027,137.240002 64.6719966,137.4 65.352,137.4 C66.0240034,137.4 66.6319973,137.240002 67.176,136.92 Z M67.092,134.892 L67.884,136.296 L66.384,136.296 L65.532,134.676 C65.4759997,134.58 65.4160003,134.51 65.352,134.466 C65.2879997,134.422 65.2040005,134.4 65.1,134.4 L64.692,134.4 L64.692,136.296 L63.372,136.296 L63.372,131.232 L65.688,131.232 C66.280003,131.232 66.7359984,131.371999 67.056,131.652 C67.3760016,131.932001 67.536,132.311998 67.536,132.792 C67.536,133.168002 67.432001,133.489999 67.224,133.758 C67.015999,134.026001 66.7240019,134.204 66.348,134.292 C66.6600016,134.364 66.9079991,134.563998 67.092,134.892 Z M66.078,133.314 C66.2020006,133.222 66.264,133.072001 66.264,132.864 C66.264,132.647999 66.2020006,132.490001 66.078,132.39 C65.9539994,132.29 65.7640013,132.24 65.508,132.24 L64.68,132.24 L64.68,133.452 L65.508,133.452 C65.7640013,133.452 65.9539994,133.406 66.078,133.314 Z M72.864,130.884 L74.136,130.884 L74.136,131.832 L72.864,131.832 L72.864,136.02 L71.76,136.02 L71.76,131.832 L70.476,131.832 L70.476,130.884 L71.76,130.884 L71.76,129.444 L72.864,129.444 L72.864,130.884 Z M79.2,133.248 L80.76,133.248 L80.76,134.196 L78.744,134.196 L78.744,135.084 L80.76,135.084 L80.76,136.032 L78.744,136.032 L78.744,138 L77.196,138 L77.196,136.032 L75.192,136.032 L75.192,135.084 L77.196,135.084 L77.196,134.196 L75.192,134.196 L75.192,133.248 L76.74,133.248 L74.184,129.54 L75.852,129.54 L77.976,132.708 L80.1,129.54 L81.768,129.54 L79.2,133.248 Z M82.992,129.456 L82.992,130.824 L81.552,130.824 L81.552,129.456 L82.992,129.456 Z M85.2,129.456 L85.2,130.824 L83.76,130.824 L83.76,129.456 L85.2,129.456 Z M91.608,140.16 L90.552,140.16 L90.552,130.488 L89.208,130.488 L89.208,140.16 L88.152,140.16 L88.152,134.616 C87.6479975,134.616 87.2040019,134.510001 86.82,134.298 C86.4359981,134.085999 86.1380011,133.786002 85.926,133.398 C85.7139989,133.009998 85.608,132.568002 85.608,132.072 C85.608,131.575998 85.7139989,131.136002 85.926,130.752 C86.1380011,130.367998 86.439998,130.070001 86.832,129.858 C87.224002,129.645999 87.6759974,129.54 88.188,129.54 L91.608,129.54 L91.608,140.16 Z M98.676,136.326 C98.5479994,136.602001 98.3640012,136.843999 98.124,137.052 C98.3080009,137.356002 98.4,137.679998 98.4,138.024 C98.4,138.728004 98.1680023,139.273998 97.704,139.662 C97.2399977,140.050002 96.5920042,140.244 95.76,140.244 C94.7279948,140.244 93.8840033,139.996002 93.228,139.5 L93.648,138.444 C94.2960032,138.892002 94.9759964,139.116 95.688,139.116 C96.0720019,139.116 96.3739989,139.030001 96.594,138.858 C96.8140011,138.685999 96.924,138.448002 96.924,138.144 C96.924,137.895999 96.8580007,137.692001 96.726,137.532 C96.5939993,137.371999 96.3680016,137.216001 96.048,137.064 L94.632,136.404 C94.031997,136.131999 93.6000013,135.826002 93.336,135.486 C93.0719987,135.145998 92.94,134.736002 92.94,134.256 C92.94,133.943998 93.0039994,133.648001 93.132,133.368 C93.2600006,133.087999 93.4439988,132.844001 93.684,132.636 C93.5079991,132.355999 93.42,132.036002 93.42,131.676 C93.42,130.995997 93.6599976,130.456002 94.14,130.056 C94.6200024,129.655998 95.2759958,129.456 96.108,129.456 C96.5320021,129.456 96.9359981,129.519999 97.32,129.648 C97.7040019,129.776001 98.0399986,129.955999 98.328,130.188 L97.908,131.208 C97.6359986,131.007999 97.3480015,130.854001 97.044,130.746 C96.7399985,130.637999 96.4440014,130.584 96.156,130.584 C95.747998,130.584 95.4340011,130.665999 95.214,130.83 C94.9939989,130.994001 94.884,131.235998 94.884,131.556 C94.884,131.788001 94.9519993,131.987999 95.088,132.156 C95.2240007,132.324001 95.4479984,132.483999 95.76,132.636 L97.164,133.296 C97.756003,133.576001 98.1879986,133.885998 98.46,134.226 C98.7320014,134.566002 98.868,134.967998 98.868,135.432 C98.868,135.752002 98.8040006,136.049999 98.676,136.326 Z M97.356,136.284 C97.4680006,136.083999 97.524,135.892001 97.524,135.708 C97.524,135.459999 97.4380009,135.234001 97.266,135.03 C97.0939991,134.825999 96.8240018,134.628001 96.456,134.436 L95.028,133.74 C94.7959988,133.619999 94.6040008,133.508001 94.452,133.404 C94.3319994,133.620001 94.272,133.815999 94.272,133.992 C94.272,134.240001 94.3599991,134.463999 94.536,134.664 C94.7120009,134.864001 94.9879981,135.059999 95.364,135.252 L96.78,135.936 C96.980001,136.032 97.1719991,136.147999 97.356,136.284 Z M101.916,130.884 L103.188,130.884 L103.188,131.832 L101.916,131.832 L101.916,136.02 L100.812,136.02 L100.812,131.832 L99.528,131.832 L99.528,130.884 L100.812,130.884 L100.812,129.444 L101.916,129.444 L101.916,130.884 Z M106.14,137.49 C105.483997,137.109998 104.968002,136.594003 104.592,135.942 C104.215998,135.289997 104.028,134.564004 104.028,133.764 C104.028,132.963996 104.215998,132.238003 104.592,131.586 C104.968002,130.933997 105.483997,130.420002 106.14,130.044 C106.796003,129.667998 107.523996,129.48 108.324,129.48 C109.124004,129.48 109.849997,129.667998 110.502,130.044 C111.154003,130.420002 111.667998,130.933997 112.044,131.586 C112.420002,132.238003 112.608,132.963996 112.608,133.764 C112.608,134.564004 112.420002,135.289997 112.044,135.942 C111.667998,136.594003 111.152003,137.109998 110.496,137.49 C109.839997,137.870002 109.116004,138.06 108.324,138.06 C107.523996,138.06 106.796003,137.870002 106.14,137.49 Z M110.148,136.92 C110.692003,136.599998 111.119998,136.164003 111.432,135.612 C111.744002,135.059997 111.9,134.444003 111.9,133.764 C111.9,133.083997 111.744002,132.468003 111.432,131.916 C111.119998,131.363997 110.692003,130.930002 110.148,130.614 C109.603997,130.297998 108.996003,130.14 108.324,130.14 C107.643997,130.14 107.032003,130.297998 106.488,130.614 C105.943997,130.930002 105.516002,131.363997 105.204,131.916 C104.891998,132.468003 104.736,133.083997 104.736,133.764 C104.736,134.444003 104.891998,135.059997 105.204,135.612 C105.516002,136.164003 105.943997,136.599998 106.488,136.92 C107.032003,137.240002 107.643997,137.4 108.324,137.4 C108.996003,137.4 109.603997,137.240002 110.148,136.92 Z M106.608,135.654 C106.151998,135.185998 105.924,134.556004 105.924,133.764 C105.924,132.971996 106.151998,132.344002 106.608,131.88 C107.064002,131.415998 107.683996,131.184 108.468,131.184 C108.820002,131.184 109.157998,131.235999 109.482,131.34 C109.806002,131.444001 110.079999,131.591999 110.304,131.784 L109.944,132.72 C109.767999,132.583999 109.566001,132.472 109.338,132.384 C109.109999,132.296 108.884001,132.252 108.66,132.252 C108.227998,132.252 107.894001,132.381999 107.658,132.642 C107.421999,132.902001 107.304,133.275998 107.304,133.764 C107.304,134.252002 107.421999,134.627999 107.658,134.892 C107.894001,135.156001 108.227998,135.288 108.66,135.288 C108.884001,135.288 109.109999,135.244 109.338,135.156 C109.566001,135.068 109.767999,134.956001 109.944,134.82 L110.304,135.756 C110.071999,135.948001 109.796002,136.095999 109.476,136.2 C109.155998,136.304001 108.820002,136.356 108.468,136.356 C107.683996,136.356 107.064002,136.122002 106.608,135.654 Z M115.836,129.408 L115.836,130.884 L114.18,130.884 L114.18,129.408 L115.836,129.408 Z M125.622,133.668 C125.505999,134.012002 125.300001,134.421998 125.004,134.898 C124.707999,135.374002 124.276003,135.991996 123.708,136.752 L125.664,136.752 L125.664,138 L122.316,138 L122.316,136.788 C123.068004,135.603994 123.577999,134.722003 123.846,134.142 C124.114001,133.561997 124.248,133.060002 124.248,132.636 C124.248,132.011997 124.018002,131.528002 123.558,131.184 C123.097998,130.839998 122.448004,130.668 121.608,130.668 C120.767996,130.668 120.116002,130.839998 119.652,131.184 C119.187998,131.528002 118.956,132.011997 118.956,132.636 C118.956,133.060002 119.091999,133.557997 119.364,134.13 C119.636001,134.702003 120.147996,135.587994 120.9,136.788 L120.9,138 L117.552,138 L117.552,136.752 L119.508,136.752 C118.923997,135.967996 118.486001,135.340002 118.194,134.868 C117.901999,134.395998 117.698001,133.990002 117.582,133.65 C117.465999,133.309998 117.408,132.960002 117.408,132.6 C117.408,131.951997 117.577998,131.390002 117.918,130.914 C118.258002,130.437998 118.743997,130.072001 119.376,129.816 C120.008003,129.559999 120.751996,129.432 121.608,129.432 C122.448004,129.432 123.183997,129.561999 123.816,129.822 C124.448003,130.082001 124.935998,130.449998 125.28,130.926 C125.624002,131.402002 125.796,131.959997 125.796,132.6 C125.796,132.968002 125.738001,133.323998 125.622,133.668 Z" id=""></path>
                    <path d="M2.538,169.58 C1.93399698,169.227998 1.46800164,168.724003 1.14,168.068 C0.81199836,167.411997 0.648,166.644004 0.648,165.764 C0.648,164.883996 0.80999838,164.118003 1.134,163.466 C1.45800162,162.813997 1.92399696,162.312002 2.532,161.96 C3.14000304,161.607998 3.85599588,161.432 4.68,161.432 C5.50400412,161.432 6.21799698,161.607998 6.822,161.96 C7.42600302,162.312002 7.88999838,162.813997 8.214,163.466 C8.53800162,164.118003 8.7,164.883996 8.7,165.764 C8.7,166.644004 8.53600164,167.411997 8.208,168.068 C7.87999836,168.724003 7.41400302,169.227998 6.81,169.58 C6.20599698,169.932002 5.49600408,170.108 4.68,170.108 C3.85599588,170.108 3.14200302,169.932002 2.538,169.58 Z M6.498,168.068 C6.93400218,167.531997 7.152,166.764005 7.152,165.764 C7.152,164.763995 6.93400218,163.998003 6.498,163.466 C6.06199782,162.933997 5.45600388,162.668 4.68,162.668 C3.89599608,162.668 3.28600218,162.933997 2.85,163.466 C2.41399782,163.998003 2.196,164.763995 2.196,165.764 C2.196,166.764005 2.41399782,167.531997 2.85,168.068 C3.28600218,168.604003 3.89599608,168.872 4.68,168.872 C5.45600388,168.872 6.06199782,168.604003 6.498,168.068 Z M2.7,160.82 L4.224,158.972 L5.112,158.972 L6.636,160.82 L5.46,160.82 L4.668,159.716 L3.876,160.82 L2.7,160.82 Z M11.832,167.3 L9.552,165.572 L12.384,165.572 L13.272,162.884 L14.196,165.572 L17.04,165.572 L14.748,167.3 L15.6,169.988 L13.272,168.368 L10.992,169.988 L11.832,167.3 Z M14.394,167.504 C14.5020005,167.416 14.556,167.300001 14.556,167.156 C14.556,167.011999 14.5160004,166.912 14.436,166.856 C14.3559996,166.8 14.2400008,166.752 14.088,166.712 C13.9759994,166.688 13.8960002,166.664 13.848,166.64 C13.7999998,166.616 13.776,166.572 13.776,166.508 C13.776,166.452 13.7979998,166.408 13.842,166.376 C13.8860002,166.344 13.9399997,166.328 14.004,166.328 C14.1320006,166.328 14.2679993,166.376 14.412,166.472 L14.508,166.232 C14.4519997,166.176 14.3760005,166.132 14.28,166.1 C14.1839995,166.068 14.0920004,166.052 14.004,166.052 C13.8439992,166.052 13.7080006,166.098 13.596,166.19 C13.4839994,166.282 13.428,166.399999 13.428,166.544 C13.428,166.688001 13.4699996,166.79 13.554,166.85 C13.6380004,166.91 13.7599992,166.96 13.92,167 C14.0160005,167.024 14.0879998,167.048 14.136,167.072 C14.1840002,167.096 14.208,167.136 14.208,167.192 C14.208,167.248 14.1860002,167.29 14.142,167.318 C14.0979998,167.346 14.0400004,167.36 13.968,167.36 C13.8159992,167.36 13.6640008,167.308001 13.512,167.204 L13.404,167.456 C13.4760004,167.512 13.5639995,167.556 13.668,167.588 C13.7720005,167.62 13.8679996,167.636 13.956,167.636 C14.1400009,167.636 14.2859995,167.592 14.394,167.504 Z M12.432,167.624 L12.432,166.76 L12.984,167.624 L13.248,167.624 L13.248,166.064 L12.912,166.064 L12.912,166.928 L12.36,166.064 L12.096,166.064 L12.096,167.624 L12.432,167.624 Z M17.076,163.364 L18.576,160.916 L19.512,160.916 L21.012,163.364 L19.8,163.364 L19.044,161.852 L18.288,163.364 L17.076,163.364 Z M23.382,169.58 C22.777997,169.227998 22.3120016,168.724003 21.984,168.068 C21.6559984,167.411997 21.492,166.644004 21.492,165.764 C21.492,164.883996 21.6539984,164.118003 21.978,163.466 C22.3020016,162.813997 22.767997,162.312002 23.376,161.96 C23.984003,161.607998 24.6999959,161.432 25.524,161.432 C26.3480041,161.432 27.061997,161.607998 27.666,161.96 C28.270003,162.312002 28.7339984,162.813997 29.058,163.466 C29.3820016,164.118003 29.544,164.883996 29.544,165.764 C29.544,166.644004 29.3800016,167.411997 29.052,168.068 C28.7239984,168.724003 28.258003,169.227998 27.654,169.58 C27.049997,169.932002 26.3400041,170.108 25.524,170.108 C24.6999959,170.108 23.986003,169.932002 23.382,169.58 Z M27.342,168.068 C27.7780022,167.531997 27.996,166.764005 27.996,165.764 C27.996,164.763995 27.7780022,163.998003 27.342,163.466 C26.9059978,162.933997 26.3000039,162.668 25.524,162.668 C24.7399961,162.668 24.1300022,162.933997 23.694,163.466 C23.2579978,163.998003 23.04,164.763995 23.04,165.764 C23.04,166.764005 23.2579978,167.531997 23.694,168.068 C24.1300022,168.604003 24.7399961,168.872 25.524,168.872 C26.3000039,168.872 26.9059978,168.604003 27.342,168.068 Z M23.316,158.972 L24.768,158.972 L25.992,160.82 L25.032,160.82 L23.316,158.972 Z M32.73,169.58 C32.125997,169.227998 31.6600016,168.724003 31.332,168.068 C31.0039984,167.411997 30.84,166.644004 30.84,165.764 C30.84,164.883996 31.0019984,164.118003 31.326,163.466 C31.6500016,162.813997 32.115997,162.312002 32.724,161.96 C33.332003,161.607998 34.0479959,161.432 34.872,161.432 C35.6960041,161.432 36.409997,161.607998 37.014,161.96 C37.618003,162.312002 38.0819984,162.813997 38.406,163.466 C38.7300016,164.118003 38.892,164.883996 38.892,165.764 C38.892,166.644004 38.7280016,167.411997 38.4,168.068 C38.0719984,168.724003 37.606003,169.227998 37.002,169.58 C36.397997,169.932002 35.6880041,170.108 34.872,170.108 C34.0479959,170.108 33.334003,169.932002 32.73,169.58 Z M36.69,168.068 C37.1260022,167.531997 37.344,166.764005 37.344,165.764 C37.344,164.763995 37.1260022,163.998003 36.69,163.466 C36.2539978,162.933997 35.6480039,162.668 34.872,162.668 C34.0879961,162.668 33.4780022,162.933997 33.042,163.466 C32.6059978,163.998003 32.388,164.763995 32.388,165.764 C32.388,166.764005 32.6059978,167.531997 33.042,168.068 C33.4780022,168.604003 34.0879961,168.872 34.872,168.872 C35.6480039,168.872 36.2539978,168.604003 36.69,168.068 Z M34.38,160.82 L35.604,158.972 L37.056,158.972 L35.34,160.82 L34.38,160.82 Z M43.308,160.916 L41.808,163.364 L40.872,163.364 L39.372,160.916 L40.584,160.916 L41.34,162.428 L42.096,160.916 L43.308,160.916 Z M45.84,169.76 L50.796,161.204 L51.792,161.78 L46.836,170.336 L45.84,169.76 Z M44.22,165.932 C43.8439981,165.491998 43.656,164.848004 43.656,164 C43.656,163.159996 43.8439981,162.520002 44.22,162.08 C44.5960019,161.639998 45.1199966,161.42 45.792,161.42 C46.4640034,161.42 46.9899981,161.639998 47.37,162.08 C47.7500019,162.520002 47.94,163.159996 47.94,164 C47.94,164.848004 47.7500019,165.491998 47.37,165.932 C46.9899981,166.372002 46.4640034,166.592 45.792,166.592 C45.1199966,166.592 44.5960019,166.372002 44.22,165.932 Z M46.458,165.242 C46.5980007,164.989999 46.668,164.576003 46.668,164 C46.668,163.439997 46.5960007,163.032001 46.452,162.776 C46.3079993,162.519999 46.0880015,162.392 45.792,162.392 C45.4959985,162.392 45.2780007,162.517999 45.138,162.77 C44.9979993,163.022001 44.928,163.431997 44.928,164 C44.928,164.576003 44.9979993,164.989999 45.138,165.242 C45.2780007,165.494001 45.4959985,165.62 45.792,165.62 C46.0960015,165.62 46.3179993,165.494001 46.458,165.242 Z M50.256,169.424 C49.8799981,168.983998 49.692,168.336004 49.692,167.48 C49.692,166.639996 49.8819981,166.002002 50.262,165.566 C50.6420019,165.129998 51.1639967,164.912 51.828,164.912 C52.5000034,164.912 53.0239981,165.131998 53.4,165.572 C53.7760019,166.012002 53.964,166.651996 53.964,167.492 C53.964,168.340004 53.7760019,168.983998 53.4,169.424 C53.0239981,169.864002 52.5000034,170.084 51.828,170.084 C51.1559966,170.084 50.6320019,169.864002 50.256,169.424 Z M55.032,169.424 C54.6559981,168.983998 54.468,168.336004 54.468,167.48 C54.468,166.639996 54.6579981,166.002002 55.038,165.566 C55.4180019,165.129998 55.9399967,164.912 56.604,164.912 C57.2760034,164.912 57.8019981,165.131998 58.182,165.572 C58.5620019,166.012002 58.752,166.651996 58.752,167.492 C58.752,168.340004 58.5620019,168.983998 58.182,169.424 C57.8019981,169.864002 57.2760034,170.084 56.604,170.084 C55.9319966,170.084 55.4080019,169.864002 55.032,169.424 Z M52.488,168.734 C52.6320007,168.481999 52.704,168.068003 52.704,167.492 C52.704,166.931997 52.6320007,166.524001 52.488,166.268 C52.3439993,166.011999 52.1240015,165.884 51.828,165.884 C51.5319985,165.884 51.3120007,166.011999 51.168,166.268 C51.0239993,166.524001 50.952,166.931997 50.952,167.492 C50.952,168.068003 51.0239993,168.481999 51.168,168.734 C51.3120007,168.986001 51.5319985,169.112 51.828,169.112 C52.1240015,169.112 52.3439993,168.986001 52.488,168.734 Z M57.27,168.734 C57.4100007,168.481999 57.48,168.068003 57.48,167.492 C57.48,166.931997 57.4080007,166.524001 57.264,166.268 C57.1199993,166.011999 56.9000015,165.884 56.604,165.884 C56.3079985,165.884 56.0900007,166.009999 55.95,166.262 C55.8099993,166.514001 55.74,166.923997 55.74,167.492 C55.74,168.068003 55.8099993,168.481999 55.95,168.734 C56.0900007,168.986001 56.3079985,169.112 56.604,169.112 C56.9080015,169.112 57.1299993,168.986001 57.27,168.734 Z M61.968,169.76 L66.924,161.204 L67.92,161.78 L62.964,170.336 L61.968,169.76 Z M60.348,165.932 C59.9719981,165.491998 59.784,164.848004 59.784,164 C59.784,163.159996 59.9719981,162.520002 60.348,162.08 C60.7240019,161.639998 61.2479966,161.42 61.92,161.42 C62.5920034,161.42 63.1179981,161.639998 63.498,162.08 C63.8780019,162.520002 64.068,163.159996 64.068,164 C64.068,164.848004 63.8780019,165.491998 63.498,165.932 C63.1179981,166.372002 62.5920034,166.592 61.92,166.592 C61.2479966,166.592 60.7240019,166.372002 60.348,165.932 Z M62.586,165.242 C62.7260007,164.989999 62.796,164.576003 62.796,164 C62.796,163.439997 62.7240007,163.032001 62.58,162.776 C62.4359993,162.519999 62.2160015,162.392 61.92,162.392 C61.6239985,162.392 61.4060007,162.517999 61.266,162.77 C61.1259993,163.022001 61.056,163.431997 61.056,164 C61.056,164.576003 61.1259993,164.989999 61.266,165.242 C61.4060007,165.494001 61.6239985,165.62 61.92,165.62 C62.2240015,165.62 62.4459993,165.494001 62.586,165.242 Z M66.384,169.424 C66.0079981,168.983998 65.82,168.336004 65.82,167.48 C65.82,166.639996 66.0099981,166.002002 66.39,165.566 C66.7700019,165.129998 67.2919967,164.912 67.956,164.912 C68.6280034,164.912 69.1519981,165.131998 69.528,165.572 C69.9040019,166.012002 70.092,166.651996 70.092,167.492 C70.092,168.340004 69.9040019,168.983998 69.528,169.424 C69.1519981,169.864002 68.6280034,170.084 67.956,170.084 C67.2839966,170.084 66.7600019,169.864002 66.384,169.424 Z M71.16,169.424 C70.7839981,168.983998 70.596,168.336004 70.596,167.48 C70.596,166.639996 70.7859981,166.002002 71.166,165.566 C71.5460019,165.129998 72.0679967,164.912 72.732,164.912 C73.4040034,164.912 73.9299981,165.131998 74.31,165.572 C74.6900019,166.012002 74.88,166.651996 74.88,167.492 C74.88,168.340004 74.6900019,168.983998 74.31,169.424 C73.9299981,169.864002 73.4040034,170.084 72.732,170.084 C72.0599966,170.084 71.5360019,169.864002 71.16,169.424 Z M68.616,168.734 C68.7600007,168.481999 68.832,168.068003 68.832,167.492 C68.832,166.931997 68.7600007,166.524001 68.616,166.268 C68.4719993,166.011999 68.2520015,165.884 67.956,165.884 C67.6599985,165.884 67.4400007,166.011999 67.296,166.268 C67.1519993,166.524001 67.08,166.931997 67.08,167.492 C67.08,168.068003 67.1519993,168.481999 67.296,168.734 C67.4400007,168.986001 67.6599985,169.112 67.956,169.112 C68.2520015,169.112 68.4719993,168.986001 68.616,168.734 Z M73.398,168.734 C73.5380007,168.481999 73.608,168.068003 73.608,167.492 C73.608,166.931997 73.5360007,166.524001 73.392,166.268 C73.2479993,166.011999 73.0280015,165.884 72.732,165.884 C72.4359985,165.884 72.2180007,166.009999 72.078,166.262 C71.9379993,166.514001 71.868,166.923997 71.868,167.492 C71.868,168.068003 71.9379993,168.481999 72.078,168.734 C72.2180007,168.986001 72.4359985,169.112 72.732,169.112 C73.0360015,169.112 73.2579993,168.986001 73.398,168.734 Z M79.164,160.916 L77.664,163.364 L76.728,163.364 L75.228,160.916 L76.44,160.916 L77.196,162.428 L77.952,160.916 L79.164,160.916 Z M81.696,169.76 L86.652,161.204 L87.648,161.78 L82.692,170.336 L81.696,169.76 Z M80.076,165.932 C79.6999981,165.491998 79.512,164.848004 79.512,164 C79.512,163.159996 79.6999981,162.520002 80.076,162.08 C80.4520019,161.639998 80.9759966,161.42 81.648,161.42 C82.3200034,161.42 82.8459981,161.639998 83.226,162.08 C83.6060019,162.520002 83.796,163.159996 83.796,164 C83.796,164.848004 83.6060019,165.491998 83.226,165.932 C82.8459981,166.372002 82.3200034,166.592 81.648,166.592 C80.9759966,166.592 80.4520019,166.372002 80.076,165.932 Z M82.314,165.242 C82.4540007,164.989999 82.524,164.576003 82.524,164 C82.524,163.439997 82.4520007,163.032001 82.308,162.776 C82.1639993,162.519999 81.9440015,162.392 81.648,162.392 C81.3519985,162.392 81.1340007,162.517999 80.994,162.77 C80.8539993,163.022001 80.784,163.431997 80.784,164 C80.784,164.576003 80.8539993,164.989999 80.994,165.242 C81.1340007,165.494001 81.3519985,165.62 81.648,165.62 C81.9520015,165.62 82.1739993,165.494001 82.314,165.242 Z M86.112,169.424 C85.7359981,168.983998 85.548,168.336004 85.548,167.48 C85.548,166.639996 85.7379981,166.002002 86.118,165.566 C86.4980019,165.129998 87.0199967,164.912 87.684,164.912 C88.3560034,164.912 88.8799981,165.131998 89.256,165.572 C89.6320019,166.012002 89.82,166.651996 89.82,167.492 C89.82,168.340004 89.6320019,168.983998 89.256,169.424 C88.8799981,169.864002 88.3560034,170.084 87.684,170.084 C87.0119966,170.084 86.4880019,169.864002 86.112,169.424 Z M90.888,169.424 C90.5119981,168.983998 90.324,168.336004 90.324,167.48 C90.324,166.639996 90.5139981,166.002002 90.894,165.566 C91.2740019,165.129998 91.7959967,164.912 92.46,164.912 C93.1320034,164.912 93.6579981,165.131998 94.038,165.572 C94.4180019,166.012002 94.608,166.651996 94.608,167.492 C94.608,168.340004 94.4180019,168.983998 94.038,169.424 C93.6579981,169.864002 93.1320034,170.084 92.46,170.084 C91.7879966,170.084 91.2640019,169.864002 90.888,169.424 Z M88.344,168.734 C88.4880007,168.481999 88.56,168.068003 88.56,167.492 C88.56,166.931997 88.4880007,166.524001 88.344,166.268 C88.1999993,166.011999 87.9800015,165.884 87.684,165.884 C87.3879985,165.884 87.1680007,166.011999 87.024,166.268 C86.8799993,166.524001 86.808,166.931997 86.808,167.492 C86.808,168.068003 86.8799993,168.481999 87.024,168.734 C87.1680007,168.986001 87.3879985,169.112 87.684,169.112 C87.9800015,169.112 88.1999993,168.986001 88.344,168.734 Z M93.126,168.734 C93.2660007,168.481999 93.336,168.068003 93.336,167.492 C93.336,166.931997 93.2640007,166.524001 93.12,166.268 C92.9759993,166.011999 92.7560015,165.884 92.46,165.884 C92.1639985,165.884 91.9460007,166.009999 91.806,166.262 C91.6659993,166.514001 91.596,166.923997 91.596,167.492 C91.596,168.068003 91.6659993,168.481999 91.806,168.734 C91.9460007,168.986001 92.1639985,169.112 92.46,169.112 C92.7640015,169.112 92.9859993,168.986001 93.126,168.734 Z" id=""></path>
                </g>
                <path d="M53,17.5 L53,212.523076" id="Line-3" stroke="#D2D5DB" stroke-width="2" stroke-linecap="square"></path>
                <rect id="Rectangle-3" fill="#E4E6EA" x="8" y="25" width="38.7528326" height="3" rx="1.5"></rect>
                <rect id="Rectangle-3-Copy-3" fill="#E4E6EA" x="8" y="32" width="38.7528326" height="3" rx="1.5"></rect>
                <rect id="Rectangle-3-Copy-4" fill="#E4E6EA" x="8" y="39" width="29.8449763" height="3" rx="1.5"></rect>
                <rect id="Rectangle-3-Copy-5" fill="#E4E6EA" x="8" y="46" width="38.7528326" height="3" rx="1.5"></rect>
                <rect id="Rectangle-3-Copy-6" fill="#E4E6EA" x="8" y="53" width="35.1143537" height="3" rx="1.5"></rect>
                <rect id="Rectangle-3-Copy-7" fill="#E4E6EA" x="8" y="60" width="38.7528326" height="3" rx="1.5"></rect>
                <rect id="Rectangle-3-Copy-8" fill="#E4E6EA" x="8" y="67" width="26" height="3" rx="1.5"></rect>
                <rect id="Rectangle-3-Copy-9" fill="#E4E6EA" x="8" y="74" width="38.7528326" height="3" rx="1.5"></rect>
                <rect id="Rectangle-3-Copy-10" fill="#E4E6EA" x="8" y="81" width="38.7528326" height="3" rx="1.5"></rect>
                <rect id="Rectangle-3-Copy-11" fill="#E4E6EA" x="8" y="88" width="33.6605777" height="3" rx="1.5"></rect>
                <rect id="Rectangle-3-Copy-12" fill="#E4E6EA" x="8" y="95" width="21.2952581" height="3" rx="1.5"></rect>
                <rect id="Rectangle-3-Copy-13" fill="#E4E6EA" x="8" y="102" width="38.7528326" height="3" rx="1.5"></rect>
                <rect id="Rectangle-3-Copy-14" fill="#E4E6EA" x="8" y="109" width="38.7528326" height="3" rx="1.5"></rect>
                <rect id="Rectangle-3-Copy-15" fill="#E4E6EA" x="8" y="116" width="35.1143537" height="3" rx="1.5"></rect>
                <rect id="Rectangle-3-Copy-16" fill="#E4E6EA" x="8" y="123" width="38.7528326" height="3" rx="1.5"></rect>
                <rect id="Rectangle-3-Copy-17" fill="#E4E6EA" x="8" y="130" width="13" height="3" rx="1.5"></rect>
                <rect id="Rectangle-3-Copy-18" fill="#E4E6EA" x="8" y="137" width="38.7528326" height="3" rx="1.5"></rect>
                <rect id="Rectangle-3-Copy-19" fill="#E4E6EA" x="8" y="144" width="29.8449763" height="3" rx="1.5"></rect>
                <rect id="Rectangle-3-Copy-20" fill="#E4E6EA" x="8" y="151" width="32.3923396" height="3" rx="1.5"></rect>
                <rect id="Rectangle-3-Copy-21" fill="#E4E6EA" x="8" y="158" width="21.2952581" height="3" rx="1.5"></rect>
                <rect id="Rectangle-3-Copy-22" fill="#E4E6EA" x="8" y="165" width="38.7528326" height="3" rx="1.5"></rect>
                <rect id="Rectangle-3-Copy-23" fill="#E4E6EA" x="8" y="172" width="33.6605777" height="3" rx="1.5"></rect>
                <rect id="Rectangle-3-Copy-24" fill="#E4E6EA" x="8" y="179" width="10.6476291" height="3" rx="1.5"></rect>
                <rect id="Rectangle-3-Copy-25" fill="#E4E6EA" x="8" y="186" width="26" height="3" rx="1.5"></rect>
                <rect id="Rectangle-3-Copy-26" fill="#E4E6EA" x="8" y="193" width="38.7528326" height="3" rx="1.5"></rect>
                <rect id="Rectangle-3-Copy-27" fill="#E4E6EA" x="8" y="200" width="35.1143537" height="3" rx="1.5"></rect>
                <rect id="Rectangle-3-Copy-28" fill="#E4E6EA" x="8" y="207" width="13" height="3" rx="1.5"></rect>
            </g>
        </g>
    </g>
</svg>