<?xml version="1.0" encoding="UTF-8"?>
<svg width="21px" height="22px" viewBox="0 0 21 22" version="1.1" xmlns="http://www.w3.org/2000/svg" xmlns:xlink="http://www.w3.org/1999/xlink">
    <!-- Generator: Sketch 45.2 (43514) - http://www.bohemiancoding.com/sketch -->
    <title>in</title>
    <desc>Created with Sketch.</desc>
    <defs></defs>
    <g id="Visuals" stroke="none" stroke-width="1" fill="none" fill-rule="evenodd">
        <path d="M1.4336,20.7984 C1.15519861,20.5679988 1.016,20.2224023 1.016,19.7616 L1.016,8.0688 C1.016,7.6079977 1.15519861,7.2576012 1.4336,7.0176 C1.71200139,6.7775988 2.06239789,6.6576 2.4848,6.6576 C2.90720211,6.6576 3.25279866,6.7775988 3.5216,7.0176 C3.79040134,7.2576012 3.9248,7.6079977 3.9248,8.0688 L3.9248,19.7616 C3.9248,20.2224023 3.79040134,20.5679988 3.5216,20.7984 C3.25279866,21.0288012 2.90720211,21.144 2.4848,21.144 C2.06239789,21.144 1.71200139,21.0288012 1.4336,20.7984 Z M1.16,3.3744 C0.833598368,3.06719846 0.6704,2.6640025 0.6704,2.1648 C0.6704,1.6655975 0.833598368,1.26720149 1.16,0.9696 C1.48640163,0.671998512 1.92799722,0.5232 2.4848,0.5232 C3.02240269,0.5232 3.45919832,0.671998512 3.7952,0.9696 C4.13120168,1.26720149 4.2992,1.6655975 4.2992,2.1648 C4.2992,2.6640025 4.13600163,3.06719846 3.8096,3.3744 C3.48319837,3.68160154 3.04160278,3.8352 2.4848,3.8352 C1.92799722,3.8352 1.48640163,3.68160154 1.16,3.3744 Z M20.6,12.2736 L20.6,19.7616 C20.6,20.2032022 20.4704013,20.5439988 20.2112,20.784 C19.9519987,21.0240012 19.5920023,21.144 19.1312,21.144 C18.6895978,21.144 18.3392013,21.0192012 18.08,20.7696 C17.8207987,20.5199988 17.6912,20.1840021 17.6912,19.7616 L17.6912,12.4176 C17.6912,11.227194 17.4560024,10.3536028 16.9856,9.7968 C16.5151976,9.23999722 15.780805,8.9616 14.7824,8.9616 C13.6111941,8.9616 12.6704036,9.32639635 11.96,10.056 C11.2495964,10.7856036 10.8944,11.7647939 10.8944,12.9936 L10.8944,19.7616 C10.8944,20.1840021 10.7648013,20.5199988 10.5056,20.7696 C10.2463987,21.0192012 9.89600221,21.144 9.4544,21.144 C9.01279779,21.144 8.65760134,21.0192012 8.3888,20.7696 C8.11999866,20.5199988 7.9856,20.1840021 7.9856,19.7616 L7.9856,8.04 C7.9856,7.63679798 8.12479861,7.3056013 8.4032,7.0464 C8.68160139,6.7871987 9.03199789,6.6576 9.4544,6.6576 C9.87680211,6.6576 10.2127988,6.78239875 10.4624,7.032 C10.7120012,7.28160125 10.8368,7.60799798 10.8368,8.0112 L10.8368,9.192 C11.2976023,8.34719578 11.9407959,7.70400221 12.7664,7.2624 C13.5920041,6.82079779 14.5231948,6.6 15.56,6.6 C18.9200168,6.6 20.6,8.49118109 20.6,12.2736 Z" id="in" fill="#18325F"></path>
    </g>
</svg>