<?xml version="1.0" encoding="UTF-8"?>
<svg width="125px" height="15px" viewBox="0 0 125 15" version="1.1" xmlns="http://www.w3.org/2000/svg" xmlns:xlink="http://www.w3.org/1999/xlink">
    <!-- Generator: Sketch 45.2 (43514) - http://www.bohemiancoding.com/sketch -->
    <title>Group 9 Copy</title>
    <desc>Created with Sketch.</desc>
    <defs></defs>
    <g id="Visuals" stroke="none" stroke-width="1" fill="none" fill-rule="evenodd">
        <g id="Group-9-Copy">
            <path d="M0.9424,11.3888 L2.5168,11.2928 C2.99040237,11.2671999 3.32959898,11.152001 3.5344,10.9472 C3.73920102,10.742399 3.8416,10.4160022 3.8416,9.968 L3.8416,0.464 L7.3936,0.464 L7.3936,9.9104 C7.3936,11.2288066 7.04160352,12.2367965 6.3376,12.9344 C5.63359648,13.6320035 4.56480717,14.0255996 3.1312,14.1152 L1.1536,14.2112 L0.9424,11.3888 Z M12.6832,13.3184 C11.6655949,12.7487972 10.8816028,11.9424052 10.3312,10.8992 C9.78079725,9.85599478 9.5056,8.63040704 9.5056,7.2224 C9.5056,5.81439296 9.78079725,4.58880522 10.3312,3.5456 C10.8816028,2.50239478 11.6655949,1.69920282 12.6832,1.136 C13.7008051,0.572797184 14.9007931,0.2912 16.2832,0.2912 C17.6656069,0.2912 18.8655949,0.572797184 19.8832,1.136 C20.9008051,1.69920282 21.6815973,2.50239478 22.2256,3.5456 C22.7696027,4.58880522 23.0416,5.81439296 23.0416,7.2224 C23.0416,8.63040704 22.7664028,9.85599478 22.216,10.8992 C21.6655972,11.9424052 20.8816051,12.7487972 19.864,13.3184 C18.8463949,13.8880028 17.6528068,14.1728 16.2832,14.1728 C14.9007931,14.1728 13.7008051,13.8880028 12.6832,13.3184 Z M18.6832,10.3808 C19.2592029,9.65759638 19.5472,8.60480691 19.5472,7.2224 C19.5472,5.83999309 19.2560029,4.79040358 18.6736,4.0736 C18.0911971,3.35679642 17.2944051,2.9984 16.2832,2.9984 C15.2591949,2.9984 14.4592029,3.35359645 13.8832,4.064 C13.3071971,4.77440355 13.0192,5.82719302 13.0192,7.2224 C13.0192,8.61760698 13.3071971,9.67359642 13.8832,10.3904 C14.4592029,11.1072036 15.2591949,11.4656 16.2832,11.4656 C17.3072051,11.4656 18.1071971,11.1040036 18.6832,10.3808 Z M37.576,0.464 L37.576,14 L34.12,14 L34.12,8.528 L28.5904,8.528 L28.5904,14 L25.1344,14 L25.1344,0.464 L28.5904,0.464 L28.5904,5.7248 L34.12,5.7248 L34.12,0.464 L37.576,0.464 Z M52.1104,0.464 L52.1104,14 L49.4992,14 L43.3168,6.2624 L43.3168,14 L40.0336,14 L40.0336,0.464 L42.6064,0.464 L48.808,8.2016 L48.808,0.464 L52.1104,0.464 Z" id="JOHN" fill="#18325F"></path>
            <path d="M61.5184,13.3088 C60.4751948,12.7327971 59.6752028,11.9200052 59.1184,10.8704 C58.5615972,9.82079475 58.2832,8.60480691 58.2832,7.2224 C58.2832,5.83999309 58.5615972,4.62720522 59.1184,3.584 C59.6752028,2.54079478 60.4751948,1.73120288 61.5184,1.1552 C62.5616052,0.57919712 63.787193,0.2912 65.1952,0.2912 C66.0784044,0.2912 66.9327959,0.425598656 67.7584,0.6944 C68.5840041,0.963201344 69.2591974,1.32159776 69.784,1.7696 L68.6896,4.2656 C67.5759944,3.4847961 66.4368058,3.0944 65.272,3.0944 C64.1711945,3.0944 63.3296029,3.43999654 62.7472,4.1312 C62.1647971,4.82240346 61.8736,5.85279315 61.8736,7.2224 C61.8736,8.59200685 62.1647971,9.62559651 62.7472,10.3232 C63.3296029,11.0208035 64.1711945,11.3696 65.272,11.3696 C66.4368058,11.3696 67.5759944,10.9792039 68.6896,10.1984 L69.784,12.6944 C69.2591974,13.1424022 68.5840041,13.5007987 67.7584,13.7696 C66.9327959,14.0384013 66.0784044,14.1728 65.1952,14.1728 C63.787193,14.1728 62.5616052,13.8848029 61.5184,13.3088 Z M84.088,0.464 L84.088,14 L80.632,14 L80.632,8.528 L75.1024,8.528 L75.1024,14 L71.6464,14 L71.6464,0.464 L75.1024,0.464 L75.1024,5.7248 L80.632,5.7248 L80.632,0.464 L84.088,0.464 Z M86.5456,0.464 L96.1648,0.464 L96.1648,3.1904 L89.9824,3.1904 L89.9824,5.7632 L95.7808,5.7632 L95.7808,8.4704 L89.9824,8.4704 L89.9824,11.2736 L96.1648,11.2736 L96.1648,14 L86.5456,14 L86.5456,0.464 Z M110.0848,0.464 L110.0848,14 L107.4736,14 L101.2912,6.2624 L101.2912,14 L98.008,14 L98.008,0.464 L100.5808,0.464 L106.7824,8.2016 L106.7824,0.464 L110.0848,0.464 Z M124.5232,6.3584 L124.5232,13.136 C123.819196,13.4688017 123.019204,13.7247991 122.1232,13.904 C121.227196,14.0832009 120.312005,14.1728 119.3776,14.1728 C117.905593,14.1728 116.628805,13.8944028 115.5472,13.3376 C114.465595,12.7807972 113.636803,11.9808052 113.0608,10.9376 C112.484797,9.89439478 112.1968,8.65600717 112.1968,7.2224 C112.1968,5.82719302 112.484797,4.60480525 113.0608,3.5552 C113.636803,2.50559475 114.452795,1.69920282 115.5088,1.136 C116.564805,0.572797184 117.803193,0.2912 119.224,0.2912 C120.209605,0.2912 121.134396,0.41919872 121.9984,0.6752 C122.862404,0.93120128 123.563197,1.28319776 124.1008,1.7312 L123.0064,4.2272 C122.379197,3.81759795 121.777603,3.5232009 121.2016,3.344 C120.625597,3.1647991 120.011203,3.0752 119.3584,3.0752 C118.142394,3.0752 117.236803,3.41439661 116.6416,4.0928 C116.046397,4.77120339 115.7488,5.81439296 115.7488,7.2224 C115.7488,8.66880723 116.059197,9.74079651 116.68,10.4384 C117.300803,11.1360035 118.251194,11.4848 119.5312,11.4848 C120.145603,11.4848 120.753597,11.4208006 121.3552,11.2928 L121.3552,8.7776 L118.9744,8.7776 L118.9744,6.3584 L124.5232,6.3584 Z" id="CHENG" fill="#8896AC"></path>
        </g>
    </g>
</svg>