<?xml version="1.0" encoding="UTF-8"?>
<svg width="125px" height="15px" viewBox="0 0 125 15" version="1.1" xmlns="http://www.w3.org/2000/svg" xmlns:xlink="http://www.w3.org/1999/xlink">
    <!-- Generator: Sketch 45.2 (43514) - http://www.bohemiancoding.com/sketch -->
    <title>Group 9</title>
    <desc>Created with Sketch.</desc>
    <defs></defs>
    <g id="Visuals" stroke="none" stroke-width="1" fill="none" fill-rule="evenodd">
        <g id="Group-9" transform="translate(1.000000, -5.000000)" fill="#FFFFFF">
            <path d="M-0.0576,16.3888 L1.5168,16.2928 C1.99040237,16.2671999 2.32959898,16.152001 2.5344,15.9472 C2.73920102,15.742399 2.8416,15.4160022 2.8416,14.968 L2.8416,5.464 L6.3936,5.464 L6.3936,14.9104 C6.3936,16.2288066 6.04160352,17.2367965 5.3376,17.9344 C4.63359648,18.6320035 3.56480717,19.0255996 2.1312,19.1152 L0.1536,19.2112 L-0.0576,16.3888 Z M11.6832,18.3184 C10.6655949,17.7487972 9.88160275,16.9424052 9.3312,15.8992 C8.78079725,14.8559948 8.5056,13.630407 8.5056,12.2224 C8.5056,10.814393 8.78079725,9.58880522 9.3312,8.5456 C9.88160275,7.50239478 10.6655949,6.69920282 11.6832,6.136 C12.7008051,5.57279718 13.9007931,5.2912 15.2832,5.2912 C16.6656069,5.2912 17.8655949,5.57279718 18.8832,6.136 C19.9008051,6.69920282 20.6815973,7.50239478 21.2256,8.5456 C21.7696027,9.58880522 22.0416,10.814393 22.0416,12.2224 C22.0416,13.630407 21.7664028,14.8559948 21.216,15.8992 C20.6655972,16.9424052 19.8816051,17.7487972 18.864,18.3184 C17.8463949,18.8880028 16.6528068,19.1728 15.2832,19.1728 C13.9007931,19.1728 12.7008051,18.8880028 11.6832,18.3184 Z M17.6832,15.3808 C18.2592029,14.6575964 18.5472,13.6048069 18.5472,12.2224 C18.5472,10.8399931 18.2560029,9.79040358 17.6736,9.0736 C17.0911971,8.35679642 16.2944051,7.9984 15.2832,7.9984 C14.2591949,7.9984 13.4592029,8.35359645 12.8832,9.064 C12.3071971,9.77440355 12.0192,10.827193 12.0192,12.2224 C12.0192,13.617607 12.3071971,14.6735964 12.8832,15.3904 C13.4592029,16.1072036 14.2591949,16.4656 15.2832,16.4656 C16.3072051,16.4656 17.1071971,16.1040036 17.6832,15.3808 Z M36.576,5.464 L36.576,19 L33.12,19 L33.12,13.528 L27.5904,13.528 L27.5904,19 L24.1344,19 L24.1344,5.464 L27.5904,5.464 L27.5904,10.7248 L33.12,10.7248 L33.12,5.464 L36.576,5.464 Z M51.1104,5.464 L51.1104,19 L48.4992,19 L42.3168,11.2624 L42.3168,19 L39.0336,19 L39.0336,5.464 L41.6064,5.464 L47.808,13.2016 L47.808,5.464 L51.1104,5.464 Z" id="JOHN"></path>
            <path d="M60.5184,18.3088 C59.4751948,17.7327971 58.6752028,16.9200052 58.1184,15.8704 C57.5615972,14.8207948 57.2832,13.6048069 57.2832,12.2224 C57.2832,10.8399931 57.5615972,9.62720522 58.1184,8.584 C58.6752028,7.54079478 59.4751948,6.73120288 60.5184,6.1552 C61.5616052,5.57919712 62.787193,5.2912 64.1952,5.2912 C65.0784044,5.2912 65.9327959,5.42559866 66.7584,5.6944 C67.5840041,5.96320134 68.2591974,6.32159776 68.784,6.7696 L67.6896,9.2656 C66.5759944,8.4847961 65.4368058,8.0944 64.272,8.0944 C63.1711945,8.0944 62.3296029,8.43999654 61.7472,9.1312 C61.1647971,9.82240346 60.8736,10.8527932 60.8736,12.2224 C60.8736,13.5920068 61.1647971,14.6255965 61.7472,15.3232 C62.3296029,16.0208035 63.1711945,16.3696 64.272,16.3696 C65.4368058,16.3696 66.5759944,15.9792039 67.6896,15.1984 L68.784,17.6944 C68.2591974,18.1424022 67.5840041,18.5007987 66.7584,18.7696 C65.9327959,19.0384013 65.0784044,19.1728 64.1952,19.1728 C62.787193,19.1728 61.5616052,18.8848029 60.5184,18.3088 Z M83.088,5.464 L83.088,19 L79.632,19 L79.632,13.528 L74.1024,13.528 L74.1024,19 L70.6464,19 L70.6464,5.464 L74.1024,5.464 L74.1024,10.7248 L79.632,10.7248 L79.632,5.464 L83.088,5.464 Z M85.5456,5.464 L95.1648,5.464 L95.1648,8.1904 L88.9824,8.1904 L88.9824,10.7632 L94.7808,10.7632 L94.7808,13.4704 L88.9824,13.4704 L88.9824,16.2736 L95.1648,16.2736 L95.1648,19 L85.5456,19 L85.5456,5.464 Z M109.0848,5.464 L109.0848,19 L106.4736,19 L100.2912,11.2624 L100.2912,19 L97.008,19 L97.008,5.464 L99.5808,5.464 L105.7824,13.2016 L105.7824,5.464 L109.0848,5.464 Z M123.5232,11.3584 L123.5232,18.136 C122.819196,18.4688017 122.019204,18.7247991 121.1232,18.904 C120.227196,19.0832009 119.312005,19.1728 118.3776,19.1728 C116.905593,19.1728 115.628805,18.8944028 114.5472,18.3376 C113.465595,17.7807972 112.636803,16.9808052 112.0608,15.9376 C111.484797,14.8943948 111.1968,13.6560072 111.1968,12.2224 C111.1968,10.827193 111.484797,9.60480525 112.0608,8.5552 C112.636803,7.50559475 113.452795,6.69920282 114.5088,6.136 C115.564805,5.57279718 116.803193,5.2912 118.224,5.2912 C119.209605,5.2912 120.134396,5.41919872 120.9984,5.6752 C121.862404,5.93120128 122.563197,6.28319776 123.1008,6.7312 L122.0064,9.2272 C121.379197,8.81759795 120.777603,8.5232009 120.2016,8.344 C119.625597,8.1647991 119.011203,8.0752 118.3584,8.0752 C117.142394,8.0752 116.236803,8.41439661 115.6416,9.0928 C115.046397,9.77120339 114.7488,10.814393 114.7488,12.2224 C114.7488,13.6688072 115.059197,14.7407965 115.68,15.4384 C116.300803,16.1360035 117.251194,16.4848 118.5312,16.4848 C119.145603,16.4848 119.753597,16.4208006 120.3552,16.2928 L120.3552,13.7776 L117.9744,13.7776 L117.9744,11.3584 L123.5232,11.3584 Z" id="CHENG" opacity="0.493093297"></path>
        </g>
    </g>
</svg>