<?xml version="1.0" encoding="UTF-8"?>
<svg width="20px" height="21px" viewBox="0 0 20 21" version="1.1" xmlns="http://www.w3.org/2000/svg" xmlns:xlink="http://www.w3.org/1999/xlink">
    <!-- Generator: Sketch 45.2 (43514) - http://www.bohemiancoding.com/sketch -->
    <title>in</title>
    <desc>Created with Sketch.</desc>
    <defs></defs>
    <g id="Visuals-Asset-Export" stroke="none" stroke-width="1" fill="none" fill-rule="evenodd">
        <path d="M0.7632,20.2752 C0.484798608,20.0447988 0.3456,19.6992023 0.3456,19.2384 L0.3456,7.5456 C0.3456,7.0847977 0.484798608,6.7344012 0.7632,6.4944 C1.04160139,6.2543988 1.39199789,6.1344 1.8144,6.1344 C2.23680211,6.1344 2.58239866,6.2543988 2.8512,6.4944 C3.12000134,6.7344012 3.2544,7.0847977 3.2544,7.5456 L3.2544,19.2384 C3.2544,19.6992023 3.12000134,20.0447988 2.8512,20.2752 C2.58239866,20.5056012 2.23680211,20.6208 1.8144,20.6208 C1.39199789,20.6208 1.04160139,20.5056012 0.7632,20.2752 Z M0.4896,2.8512 C0.163198368,2.54399846 0,2.1408025 0,1.6416 C0,1.1423975 0.163198368,0.744001488 0.4896,0.4464 C0.816001632,0.148798512 1.25759722,0 1.8144,0 C2.35200269,0 2.78879832,0.148798512 3.1248,0.4464 C3.46080168,0.744001488 3.6288,1.1423975 3.6288,1.6416 C3.6288,2.1408025 3.46560163,2.54399846 3.1392,2.8512 C2.81279837,3.15840154 2.37120278,3.312 1.8144,3.312 C1.25759722,3.312 0.816001632,3.15840154 0.4896,2.8512 Z M19.9296,11.7504 L19.9296,19.2384 C19.9296,19.6800022 19.8000013,20.0207988 19.5408,20.2608 C19.2815987,20.5008012 18.9216023,20.6208 18.4608,20.6208 C18.0191978,20.6208 17.6688013,20.4960012 17.4096,20.2464 C17.1503987,19.9967988 17.0208,19.6608021 17.0208,19.2384 L17.0208,11.8944 C17.0208,10.703994 16.7856024,9.83040278 16.3152,9.2736 C15.8447976,8.71679722 15.110405,8.4384 14.112,8.4384 C12.9407941,8.4384 12.0000036,8.80319635 11.2896,9.5328 C10.5791964,10.2624036 10.224,11.2415939 10.224,12.4704 L10.224,19.2384 C10.224,19.6608021 10.0944013,19.9967988 9.8352,20.2464 C9.5759987,20.4960012 9.22560221,20.6208 8.784,20.6208 C8.34239779,20.6208 7.98720134,20.4960012 7.7184,20.2464 C7.44959866,19.9967988 7.3152,19.6608021 7.3152,19.2384 L7.3152,7.5168 C7.3152,7.11359798 7.45439861,6.7824013 7.7328,6.5232 C8.01120139,6.2639987 8.36159789,6.1344 8.784,6.1344 C9.20640211,6.1344 9.54239875,6.25919875 9.792,6.5088 C10.0416012,6.75840125 10.1664,7.08479798 10.1664,7.488 L10.1664,8.6688 C10.6272023,7.82399578 11.2703959,7.18080221 12.096,6.7392 C12.9216041,6.29759779 13.8527948,6.0768 14.8896,6.0768 C18.2496168,6.0768 19.9296,7.96798109 19.9296,11.7504 Z" id="in" fill="#FFFFFF"></path>
    </g>
</svg>