<?xml version="1.0" encoding="UTF-8"?>
<svg width="938px" height="729px" viewBox="0 0 938 729" version="1.1" xmlns="http://www.w3.org/2000/svg" xmlns:xlink="http://www.w3.org/1999/xlink">
    <!-- Generator: Sketch 45.2 (43514) - http://www.bohemiancoding.com/sketch -->
    <title>Group</title>
    <desc>Created with Sketch.</desc>
    <defs></defs>
    <g id="Visuals-Asset-Export" stroke="none" stroke-width="1" fill="none" fill-rule="evenodd">
        <g id="Greenbits" transform="translate(-1474.000000, -12710.000000)">
            <g id="Group" transform="translate(1474.000000, 12710.000000)">
                <rect id="Rectangle-5" stroke="#44A88B" stroke-width="2" x="1" y="1.67382836" width="936" height="726" rx="10"></rect>
                <rect id="Rectangle-8" stroke="#44A88B" stroke-width="2" x="23" y="15.6738284" width="530.420259" height="76" rx="10"></rect>
                <rect id="Rectangle-8-Copy-2" stroke="#44A88B" stroke-width="2" x="23" y="107.673828" width="530.420259" height="600.53266" rx="10"></rect>
                <rect id="Rectangle-8-Copy-3" stroke="#44A88B" stroke-width="2" x="573" y="107.673828" width="348" height="468.696131" rx="10"></rect>
                <rect id="Rectangle-8-Copy" stroke="#44A88B" stroke-width="2" x="573" y="15.6738284" width="348" height="76" rx="10"></rect>
                <rect id="Rectangle-8-Copy-4" stroke="#44A88B" stroke-width="2" x="573" y="593.673828" width="348" height="114.274342" rx="10"></rect>
                <path d="M182.958,38.03 L192.444,38.03 C194.960013,38.03 196.914993,38.6419939 198.309,39.866 C199.703007,41.0900061 200.4,42.8239888 200.4,45.068 C200.4,47.3120112 199.69734,49.0573271 198.292,50.304 C196.88666,51.5506729 194.937346,52.174 192.444,52.174 L185.746,52.174 L185.746,62 L182.958,62 L182.958,38.03 Z M192.172,49.862 C195.821352,49.862 197.646,48.264016 197.646,45.068 C197.646,41.9173176 195.821352,40.342 192.172,40.342 L185.746,40.342 L185.746,49.862 L192.172,49.862 Z M218.216,45.442 L218.216,62 L215.53,62 L215.53,59.178 C215.008664,60.1753383 214.277671,60.9346641 213.337,61.456 C212.396329,61.9773359 211.336673,62.238 210.158,62.238 C208.18599,62.238 206.701338,61.6883388 205.704,60.589 C204.706662,59.4896612 204.208,57.8633441 204.208,55.71 L204.208,45.442 L206.962,45.442 L206.962,55.642 C206.962,57.1153407 207.256664,58.1976632 207.846,58.889 C208.435336,59.5803368 209.36466,59.926 210.634,59.926 C212.084674,59.926 213.251996,59.4556714 214.136,58.515 C215.020004,57.5743286 215.462,56.333341 215.462,54.792 L215.462,45.442 L218.216,45.442 Z M232.734,47.414 L230.932,47.584 C229.231992,47.7426675 228.002337,48.2753288 227.243,49.182 C226.483663,50.0886712 226.104,51.21066 226.104,52.548 L226.104,62 L223.35,62 L223.35,45.442 L226.036,45.442 L226.036,48.332 C226.965338,46.4053237 228.789986,45.3286678 231.51,45.102 L232.496,45.034 L232.734,47.414 Z M237.766,61.184 C236.564661,60.4813298 235.641003,59.4896731 234.995,58.209 C234.348997,56.9283269 234.026,55.4266753 234.026,53.704 C234.026,51.9813247 234.36033,50.4683399 235.029,49.165 C235.69767,47.8616601 236.638327,46.847337 237.851,46.122 C239.063673,45.396663 240.485992,45.034 242.118,45.034 C243.228672,45.034 244.316661,45.2323314 245.382,45.629 C246.447339,46.0256686 247.308663,46.5526634 247.966,47.21 L247.048,49.25 C245.483992,47.9806603 243.897341,47.346 242.288,47.346 C240.587992,47.346 239.262005,47.9013278 238.31,49.012 C237.357995,50.1226722 236.882,51.6866566 236.882,53.704 C236.882,55.6986766 237.357995,57.2399946 238.31,58.328 C239.262005,59.4160054 240.587992,59.96 242.288,59.96 C243.897341,59.96 245.483992,59.3253397 247.048,58.056 L247.966,60.096 C247.26333,60.7533366 246.379339,61.2746647 245.314,61.66 C244.248661,62.0453353 243.149339,62.238 242.016,62.238 C240.383992,62.238 238.967339,61.8866702 237.766,61.184 Z M265.578,51.596 L265.578,62 L262.824,62 L262.824,51.766 C262.824,50.224659 262.52367,49.1026702 261.923,48.4 C261.32233,47.6973298 260.364673,47.346 259.05,47.346 C257.531326,47.346 256.318671,47.810662 255.412,48.74 C254.505329,49.669338 254.052,50.9273254 254.052,52.514 L254.052,62 L251.298,62 L251.298,38.03 L254.052,38.03 L254.052,48.094 C254.596003,47.0966617 255.349662,46.3373359 256.313,45.816 C257.276338,45.2946641 258.381327,45.034 259.628,45.034 C263.594687,45.034 265.578,47.2213115 265.578,51.596 Z M282.051,46.649 C283.082338,47.7256721 283.598,49.3633223 283.598,51.562 L283.598,62 L280.912,62 L280.912,59.178 C280.481331,60.1526715 279.824004,60.9063307 278.94,61.439 C278.055996,61.9716693 277.036006,62.238 275.88,62.238 C274.814661,62.238 273.834338,62.0226688 272.939,61.592 C272.043662,61.1613312 271.335336,60.5606705 270.814,59.79 C270.292664,59.0193295 270.032,58.169338 270.032,57.24 C270.032,55.9933271 270.34933,55.0243368 270.984,54.333 C271.61867,53.6416632 272.661326,53.1430015 274.112,52.837 C275.562674,52.5309985 277.579987,52.378 280.164,52.378 L280.912,52.378 L280.912,51.256 C280.912,49.8733264 280.628669,48.8703364 280.062,48.247 C279.49533,47.6236636 278.57734,47.312 277.308,47.312 C275.40399,47.312 273.511343,47.9013274 271.63,49.08 L270.712,47.074 C271.573338,46.4619969 272.610327,45.9690019 273.823,45.595 C275.035673,45.2209981 276.208661,45.034 277.342,45.034 C279.450011,45.034 281.019662,45.5723279 282.051,46.649 Z M279.603,58.685 C280.475671,57.7669954 280.912,56.5826739 280.912,55.132 L280.912,54.146 L280.3,54.146 C278.305323,54.146 276.786672,54.2309992 275.744,54.401 C274.701328,54.5710008 273.959002,54.8543313 273.517,55.251 C273.074998,55.6476686 272.854,56.2313295 272.854,57.002 C272.854,57.8860044 273.176997,58.6169971 273.823,59.195 C274.469003,59.7730029 275.279328,60.062 276.254,60.062 C277.614007,60.062 278.730329,59.6030046 279.603,58.685 Z M287.61,60.096 L288.528,58.056 C289.412004,58.7586702 290.312995,59.2629985 291.231,59.569 C292.149005,59.8750015 293.185994,60.028 294.342,60.028 C295.566006,60.028 296.500997,59.8183354 297.147,59.399 C297.793003,58.9796646 298.116,58.3733373 298.116,57.58 C298.116,56.9226634 297.900669,56.4013353 297.47,56.016 C297.039331,55.6306647 296.325338,55.3246678 295.328,55.098 L292.54,54.452 C291.13466,54.1346651 290.058004,53.5906705 289.31,52.82 C288.561996,52.0493295 288.188,51.097339 288.188,49.964 C288.188,48.4906593 288.765994,47.3006712 289.922,46.394 C291.078006,45.4873288 292.619324,45.034 294.546,45.034 C295.702006,45.034 296.801328,45.2209981 297.844,45.595 C298.886672,45.9690019 299.75933,46.5073298 300.462,47.21 L299.544,49.216 C298.025326,47.9239935 296.359342,47.278 294.546,47.278 C293.389994,47.278 292.489003,47.4989978 291.843,47.941 C291.196997,48.3830022 290.874,49.0006627 290.874,49.794 C290.874,50.4513366 291.072331,50.9783313 291.469,51.375 C291.865669,51.7716687 292.505996,52.071999 293.39,52.276 L296.212,52.956 C297.753341,53.3186685 298.897996,53.8683297 299.646,54.605 C300.394004,55.3416704 300.768,56.2993274 300.768,57.478 C300.768,58.9286739 300.184339,60.0846624 299.017,60.946 C297.849661,61.8073376 296.257343,62.238 294.24,62.238 C291.451986,62.238 289.242008,61.5240071 287.61,60.096 Z M318.822,54.146 L306.718,54.146 C306.808667,56.0726763 307.329995,57.5289951 308.282,58.515 C309.234005,59.5010049 310.582658,59.994 312.328,59.994 C314.254676,59.994 316.022659,59.3366732 317.632,58.022 L318.55,60.028 C317.824663,60.7080034 316.895339,61.2463313 315.762,61.643 C314.628661,62.0396687 313.472673,62.238 312.294,62.238 C309.709987,62.238 307.675674,61.4786743 306.191,59.96 C304.706326,58.4413257 303.964,56.34468 303.964,53.67 C303.964,51.9699915 304.292663,50.4683399 304.95,49.165 C305.607337,47.8616601 306.530994,46.847337 307.721,46.122 C308.911006,45.396663 310.265326,45.034 311.784,45.034 C313.982678,45.034 315.705327,45.7536595 316.952,47.193 C318.198673,48.6323405 318.822,50.6099874 318.822,53.126 L318.822,54.146 Z M308.333,48.536 C307.460329,49.4426712 306.944667,50.7233251 306.786,52.378 L316.408,52.378 C316.362666,50.7006583 315.943337,49.4143378 315.15,48.519 C314.356663,47.6236622 313.246007,47.176 311.818,47.176 C310.367326,47.176 309.205671,47.6293288 308.333,48.536 Z M351.258,38.03 L351.258,62 L349.116,62 L334.666,42.722 L334.666,62 L332.048,62 L332.048,38.03 L334.19,38.03 L348.64,57.308 L348.64,38.03 L351.258,38.03 Z M368.207,46.649 C369.238338,47.7256721 369.754,49.3633223 369.754,51.562 L369.754,62 L367.068,62 L367.068,59.178 C366.637331,60.1526715 365.980004,60.9063307 365.096,61.439 C364.211996,61.9716693 363.192006,62.238 362.036,62.238 C360.970661,62.238 359.990338,62.0226688 359.095,61.592 C358.199662,61.1613312 357.491336,60.5606705 356.97,59.79 C356.448664,59.0193295 356.188,58.169338 356.188,57.24 C356.188,55.9933271 356.50533,55.0243368 357.14,54.333 C357.77467,53.6416632 358.817326,53.1430015 360.268,52.837 C361.718674,52.5309985 363.735987,52.378 366.32,52.378 L367.068,52.378 L367.068,51.256 C367.068,49.8733264 366.78467,48.8703364 366.218,48.247 C365.651331,47.6236636 364.73334,47.312 363.464,47.312 C361.55999,47.312 359.667343,47.9013274 357.786,49.08 L356.868,47.074 C357.729338,46.4619969 358.766327,45.9690019 359.979,45.595 C361.191673,45.2209981 362.364661,45.034 363.498,45.034 C365.606011,45.034 367.175662,45.5723279 368.207,46.649 Z M365.759,58.685 C366.631671,57.7669954 367.068,56.5826739 367.068,55.132 L367.068,54.146 L366.456,54.146 C364.461323,54.146 362.942672,54.2309992 361.9,54.401 C360.857328,54.5710008 360.115002,54.8543313 359.673,55.251 C359.230998,55.6476686 359.01,56.2313295 359.01,57.002 C359.01,57.8860044 359.332997,58.6169971 359.979,59.195 C360.625003,59.7730029 361.435328,60.062 362.41,60.062 C363.770007,60.062 364.886329,59.6030046 365.759,58.685 Z M389.406,45.476 L382.266,62 L379.682,62 L372.576,45.476 L375.5,45.476 L381.042,59.008 L386.652,45.476 L389.406,45.476 Z" id="Purchase-Nav" fill="#44A88B"></path>
                <path d="M681.598,59.246 L682.686,57.104 C683.864673,58.1013383 685.07166,58.8153312 686.307,59.246 C687.54234,59.6766688 688.975992,59.892 690.608,59.892 C692.534676,59.892 694.019328,59.5180037 695.062,58.77 C696.104672,58.0219963 696.626,56.9680068 696.626,55.608 C696.626,54.8146627 696.376669,54.1686692 695.878,53.67 C695.379331,53.1713308 694.722004,52.7746681 693.906,52.48 C693.089996,52.1853319 691.990674,51.8793349 690.608,51.562 C688.749324,51.1313312 687.225006,50.6780024 686.035,50.202 C684.844994,49.7259976 683.88167,49.0460044 683.145,48.162 C682.40833,47.2779956 682.04,46.1220071 682.04,44.694 C682.04,43.3339932 682.396996,42.1270053 683.111,41.073 C683.825004,40.0189947 684.844993,39.2030029 686.171,38.625 C687.497007,38.0469971 689.032658,37.758 690.778,37.758 C692.432675,37.758 693.979659,38.0186641 695.419,38.54 C696.858341,39.0613359 698.076662,39.8093285 699.074,40.784 L698.02,42.926 C696.886661,41.9513285 695.736339,41.2430022 694.569,40.801 C693.401661,40.3589978 692.138007,40.138 690.778,40.138 C688.919324,40.138 687.463005,40.5289961 686.409,41.311 C685.354995,42.0930039 684.828,43.1866596 684.828,44.592 C684.828,45.7933393 685.292662,46.6999969 686.222,47.312 C687.151338,47.9240031 688.556657,48.4453312 690.438,48.876 C692.500677,49.3746692 694.121327,49.8336646 695.3,50.253 C696.478673,50.6723354 697.458996,51.3013291 698.241,52.14 C699.023004,52.9786709 699.414,54.1006596 699.414,55.506 C699.414,56.8660068 699.057004,58.0559949 698.343,59.076 C697.628996,60.0960051 696.60334,60.8836639 695.266,61.439 C693.92866,61.9943361 692.364676,62.272 690.574,62.272 C686.833981,62.272 683.842011,61.2633434 681.598,59.246 Z M717.4,54.146 L705.296,54.146 C705.386667,56.0726763 705.907995,57.5289951 706.86,58.515 C707.812005,59.5010049 709.160658,59.994 710.906,59.994 C712.832676,59.994 714.600659,59.3366732 716.21,58.022 L717.128,60.028 C716.402663,60.7080034 715.473339,61.2463313 714.34,61.643 C713.206661,62.0396687 712.050673,62.238 710.872,62.238 C708.287987,62.238 706.253674,61.4786743 704.769,59.96 C703.284326,58.4413257 702.542,56.34468 702.542,53.67 C702.542,51.9699915 702.870663,50.4683399 703.528,49.165 C704.185337,47.8616601 705.108994,46.847337 706.299,46.122 C707.489006,45.396663 708.843326,45.034 710.362,45.034 C712.560678,45.034 714.283327,45.7536595 715.53,47.193 C716.776673,48.6323405 717.4,50.6099874 717.4,53.126 L717.4,54.146 Z M706.911,48.536 C706.038329,49.4426712 705.522667,50.7233251 705.364,52.378 L714.986,52.378 C714.940666,50.7006583 714.521337,49.4143378 713.728,48.519 C712.934663,47.6236622 711.824007,47.176 710.396,47.176 C708.945326,47.176 707.783671,47.6293288 706.911,48.536 Z M730.116,59.926 L729.98,62.102 C729.458664,62.1926671 728.892003,62.238 728.28,62.238 C726.285323,62.238 724.783672,61.7166719 723.775,60.674 C722.766328,59.6313281 722.262,58.180676 722.262,56.322 L722.262,47.618 L719.032,47.618 L719.032,45.442 L722.262,45.442 L722.262,40.41 L725.016,40.41 L725.016,45.442 L729.708,45.442 L729.708,47.618 L725.016,47.618 L725.016,56.118 C725.016,58.7246797 726.217321,60.028 728.62,60.028 C729.118669,60.028 729.617331,59.9940003 730.116,59.926 Z M741.778,59.926 L741.642,62.102 C741.120664,62.1926671 740.554003,62.238 739.942,62.238 C737.947323,62.238 736.445672,61.7166719 735.437,60.674 C734.428328,59.6313281 733.924,58.180676 733.924,56.322 L733.924,47.618 L730.694,47.618 L730.694,45.442 L733.924,45.442 L733.924,40.41 L736.678,40.41 L736.678,45.442 L741.37,45.442 L741.37,47.618 L736.678,47.618 L736.678,56.118 C736.678,58.7246797 737.879321,60.028 740.282,60.028 C740.780669,60.028 741.279331,59.9940003 741.778,59.926 Z M744.566,45.442 L747.32,45.442 L747.32,62 L744.566,62 L744.566,45.442 Z M747.626,38.268 L747.626,41.362 L744.294,41.362 L744.294,38.268 L747.626,38.268 Z M766.734,51.596 L766.734,62 L763.98,62 L763.98,51.766 C763.98,50.224659 763.67967,49.1026702 763.079,48.4 C762.47833,47.6973298 761.520673,47.346 760.206,47.346 C758.687326,47.346 757.474671,47.810662 756.568,48.74 C755.661329,49.669338 755.208,50.9273254 755.208,52.514 L755.208,62 L752.454,62 L752.454,45.442 L755.174,45.442 L755.174,48.162 C755.718003,47.1419949 756.477328,46.3656693 757.452,45.833 C758.426672,45.3003307 759.537327,45.034 760.784,45.034 C764.750687,45.034 766.734,47.2213115 766.734,51.596 Z M786.59,45.442 L786.59,60.878 C786.59,63.348679 785.95534,65.2129937 784.686,66.471 C783.41666,67.7290063 781.535346,68.358 779.042,68.358 C776.140652,68.358 773.70401,67.6100075 771.732,66.114 L772.65,64.074 C773.760672,64.799337 774.803328,65.3206651 775.778,65.638 C776.752672,65.9553349 777.840661,66.114 779.042,66.114 C780.628675,66.114 781.829996,65.6890042 782.646,64.839 C783.462004,63.9889957 783.87,62.7480082 783.87,61.116 L783.87,58.192 C783.393998,59.2573387 782.663005,60.0733305 781.677,60.64 C780.690995,61.2066695 779.52934,61.49 778.192,61.49 C776.741326,61.49 775.455006,61.1500034 774.333,60.47 C773.210994,59.7899966 772.338336,58.8266729 771.715,57.58 C771.091664,56.3333271 770.78,54.8940082 770.78,53.262 C770.78,51.6299918 771.091664,50.1906729 771.715,48.944 C772.338336,47.6973271 773.210994,46.7340034 774.333,46.054 C775.455006,45.3739966 776.741326,45.034 778.192,45.034 C779.506673,45.034 780.651328,45.3173305 781.626,45.884 C782.600672,46.4506695 783.337331,47.2553281 783.836,48.298 L783.836,45.442 L786.59,45.442 Z M782.476,57.631 C783.382671,56.5769947 783.836,55.120676 783.836,53.262 C783.836,51.4259908 783.388338,49.9810053 782.493,48.927 C781.597662,47.8729947 780.345341,47.346 778.736,47.346 C777.126659,47.346 775.863005,47.8729947 774.945,48.927 C774.026995,49.9810053 773.568,51.4259908 773.568,53.262 C773.568,55.120676 774.026995,56.5769947 774.945,57.631 C775.863005,58.6850053 777.126659,59.212 778.736,59.212 C780.322675,59.212 781.569329,58.6850053 782.476,57.631 Z M790.67,60.096 L791.588,58.056 C792.472004,58.7586702 793.372995,59.2629985 794.291,59.569 C795.209005,59.8750015 796.245994,60.028 797.402,60.028 C798.626006,60.028 799.560997,59.8183354 800.207,59.399 C800.853003,58.9796646 801.176,58.3733373 801.176,57.58 C801.176,56.9226634 800.960669,56.4013353 800.53,56.016 C800.099331,55.6306647 799.385338,55.3246678 798.388,55.098 L795.6,54.452 C794.19466,54.1346651 793.118004,53.5906705 792.37,52.82 C791.621996,52.0493295 791.248,51.097339 791.248,49.964 C791.248,48.4906593 791.825994,47.3006712 792.982,46.394 C794.138006,45.4873288 795.679324,45.034 797.606,45.034 C798.762006,45.034 799.861328,45.2209981 800.904,45.595 C801.946672,45.9690019 802.81933,46.5073298 803.522,47.21 L802.604,49.216 C801.085326,47.9239935 799.419342,47.278 797.606,47.278 C796.449994,47.278 795.549003,47.4989978 794.903,47.941 C794.256997,48.3830022 793.934,49.0006627 793.934,49.794 C793.934,50.4513366 794.132331,50.9783313 794.529,51.375 C794.925669,51.7716687 795.565996,52.071999 796.45,52.276 L799.272,52.956 C800.813341,53.3186685 801.957996,53.8683297 802.706,54.605 C803.454004,55.3416704 803.828,56.2993274 803.828,57.478 C803.828,58.9286739 803.244339,60.0846624 802.077,60.946 C800.909661,61.8073376 799.317343,62.238 797.3,62.238 C794.511986,62.238 792.302008,61.5240071 790.67,60.096 Z" id="Settings" fill="#44A88B"></path>
                <path d="M229.771,363.732 C230.530337,364.729338 230.91,365.975993 230.91,367.472 C230.91,369.580011 230.218674,371.194994 228.836,372.317 C227.453326,373.439006 225.492679,374 222.954,374 L212.958,374 L212.958,350.03 L222.58,350.03 C225.050679,350.03 226.965993,350.573995 228.326,351.662 C229.686007,352.750005 230.366,354.291323 230.366,356.286 C230.366,357.578006 230.03167,358.688662 229.363,359.618 C228.69433,360.547338 227.759339,361.238664 226.558,361.692 C227.940674,362.054668 229.011663,362.734662 229.771,363.732 Z M215.712,360.672 L222.172,360.672 C223.962676,360.672 225.316995,360.309337 226.235,359.584 C227.153005,358.858663 227.612,357.804674 227.612,356.422 C227.612,353.701986 225.798685,352.342 222.172,352.342 L215.712,352.342 L215.712,360.672 Z M226.847,370.651 C227.742338,369.959663 228.19,368.877341 228.19,367.404 C228.19,364.457319 226.354018,362.984 222.682,362.984 L215.712,362.984 L215.712,371.688 L222.682,371.688 C224.563343,371.688 225.951662,371.342337 226.847,370.651 Z M244.85,359.414 L243.048,359.584 C241.347992,359.742667 240.118337,360.275329 239.359,361.182 C238.599663,362.088671 238.22,363.21066 238.22,364.548 L238.22,374 L235.466,374 L235.466,357.442 L238.152,357.442 L238.152,360.332 C239.081338,358.405324 240.905986,357.328668 243.626,357.102 L244.612,357.034 L244.85,359.414 Z M249.865,373.184 C248.674994,372.48133 247.757003,371.47834 247.111,370.175 C246.464997,368.87166 246.142,367.358675 246.142,365.636 C246.142,363.913325 246.464997,362.40034 247.111,361.097 C247.757003,359.79366 248.674994,358.79067 249.865,358.088 C251.055006,357.38533 252.431992,357.034 253.996,357.034 C255.560008,357.034 256.942661,357.38533 258.144,358.088 C259.345339,358.79067 260.268997,359.79366 260.915,361.097 C261.561003,362.40034 261.884,363.913325 261.884,365.636 C261.884,367.358675 261.561003,368.87166 260.915,370.175 C260.268997,371.47834 259.345339,372.48133 258.144,373.184 C256.942661,373.88667 255.560008,374.238 253.996,374.238 C252.431992,374.238 251.055006,373.88667 249.865,373.184 Z M257.753,370.345 C258.625671,369.268328 259.062,367.698677 259.062,365.636 C259.062,363.618657 258.620004,362.060339 257.736,360.961 C256.851996,359.861661 255.605341,359.312 253.996,359.312 C252.386659,359.312 251.140004,359.861661 250.256,360.961 C249.371996,362.060339 248.93,363.618657 248.93,365.636 C248.93,367.67601 249.366329,369.239995 250.239,370.328 C251.111671,371.416005 252.363992,371.96 253.996,371.96 C255.628008,371.96 256.880329,371.421672 257.753,370.345 Z M291.022,357.442 L284.868,374 L282.216,374 L277.558,361.182 L272.866,374 L270.248,374 L264.094,357.442 L266.95,357.442 L271.642,370.736 L276.436,357.442 L278.816,357.442 L283.542,370.736 L288.268,357.442 L291.022,357.442 Z M293.096,372.096 L294.014,370.056 C294.898004,370.75867 295.798995,371.262998 296.717,371.569 C297.635005,371.875002 298.671994,372.028 299.828,372.028 C301.052006,372.028 301.986997,371.818335 302.633,371.399 C303.279003,370.979665 303.602,370.373337 303.602,369.58 C303.602,368.922663 303.386669,368.401335 302.956,368.016 C302.525331,367.630665 301.811338,367.324668 300.814,367.098 L298.026,366.452 C296.62066,366.134665 295.544004,365.590671 294.796,364.82 C294.047996,364.049329 293.674,363.097339 293.674,361.964 C293.674,360.490659 294.251994,359.300671 295.408,358.394 C296.564006,357.487329 298.105324,357.034 300.032,357.034 C301.188006,357.034 302.287328,357.220998 303.33,357.595 C304.372672,357.969002 305.24533,358.50733 305.948,359.21 L305.03,361.216 C303.511326,359.923994 301.845342,359.278 300.032,359.278 C298.875994,359.278 297.975003,359.498998 297.329,359.941 C296.682997,360.383002 296.36,361.000663 296.36,361.794 C296.36,362.451337 296.558331,362.978331 296.955,363.375 C297.351669,363.771669 297.991996,364.071999 298.876,364.276 L301.698,364.956 C303.239341,365.318668 304.383996,365.86833 305.132,366.605 C305.880004,367.34167 306.254,368.299327 306.254,369.478 C306.254,370.928674 305.670339,372.084662 304.503,372.946 C303.335661,373.807338 301.743343,374.238 299.726,374.238 C296.937986,374.238 294.728008,373.524007 293.096,372.096 Z M324.308,366.146 L312.204,366.146 C312.294667,368.072676 312.815995,369.528995 313.768,370.515 C314.720005,371.501005 316.068658,371.994 317.814,371.994 C319.740676,371.994 321.508659,371.336673 323.118,370.022 L324.036,372.028 C323.310663,372.708003 322.381339,373.246331 321.248,373.643 C320.114661,374.039669 318.958673,374.238 317.78,374.238 C315.195987,374.238 313.161674,373.478674 311.677,371.96 C310.192326,370.441326 309.45,368.34468 309.45,365.67 C309.45,363.969992 309.778663,362.46834 310.436,361.165 C311.093337,359.86166 312.016994,358.847337 313.207,358.122 C314.397006,357.396663 315.751326,357.034 317.27,357.034 C319.468678,357.034 321.191327,357.753659 322.438,359.193 C323.684673,360.632341 324.308,362.609987 324.308,365.126 L324.308,366.146 Z M313.819,360.536 C312.946329,361.442671 312.430667,362.723325 312.272,364.378 L321.894,364.378 C321.848666,362.700658 321.429337,361.414338 320.636,360.519 C319.842663,359.623662 318.732007,359.176 317.304,359.176 C315.853326,359.176 314.691671,359.629329 313.819,360.536 Z" id="Browse" fill="#44A88B"></path>
                <path d="M626.958,290.03 L635.016,290.03 C638.846686,290.03 641.810323,291.06699 643.907,293.141 C646.003677,295.21501 647.052,298.167314 647.052,301.998 C647.052,305.828686 646.003677,308.786656 643.907,310.872 C641.810323,312.957344 638.846686,314 635.016,314 L626.958,314 L626.958,290.03 Z M634.846,311.62 C641.056698,311.62 644.162,308.412699 644.162,301.998 C644.162,295.605968 641.056698,292.41 634.846,292.41 L629.746,292.41 L629.746,311.62 L634.846,311.62 Z M665.548,306.146 L653.444,306.146 C653.534667,308.072676 654.055995,309.528995 655.008,310.515 C655.960005,311.501005 657.308658,311.994 659.054,311.994 C660.980676,311.994 662.748659,311.336673 664.358,310.022 L665.276,312.028 C664.550663,312.708003 663.621339,313.246331 662.488,313.643 C661.354661,314.039669 660.198673,314.238 659.02,314.238 C656.435987,314.238 654.401674,313.478674 652.917,311.96 C651.432326,310.441326 650.69,308.34468 650.69,305.67 C650.69,303.969992 651.018663,302.46834 651.676,301.165 C652.333337,299.86166 653.256994,298.847337 654.447,298.122 C655.637006,297.396663 656.991326,297.034 658.51,297.034 C660.708678,297.034 662.431327,297.753659 663.678,299.193 C664.924673,300.632341 665.548,302.609987 665.548,305.126 L665.548,306.146 Z M655.059,300.536 C654.186329,301.442671 653.670667,302.723325 653.512,304.378 L663.134,304.378 C663.088666,302.700658 662.669337,301.414338 661.876,300.519 C661.082663,299.623662 659.972007,299.176 658.544,299.176 C657.093326,299.176 655.931671,299.629329 655.059,300.536 Z M678.264,311.926 L678.128,314.102 C677.606664,314.192667 677.040003,314.238 676.428,314.238 C674.433323,314.238 672.931672,313.716672 671.923,312.674 C670.914328,311.631328 670.41,310.180676 670.41,308.322 L670.41,299.618 L667.18,299.618 L667.18,297.442 L670.41,297.442 L670.41,292.41 L673.164,292.41 L673.164,297.442 L677.856,297.442 L677.856,299.618 L673.164,299.618 L673.164,308.118 C673.164,310.72468 674.365321,312.028 676.768,312.028 C677.266669,312.028 677.765331,311.994 678.264,311.926 Z M692.493,298.649 C693.524338,299.725672 694.04,301.363322 694.04,303.562 L694.04,314 L691.354,314 L691.354,311.178 C690.923331,312.152672 690.266004,312.906331 689.382,313.439 C688.497996,313.971669 687.478006,314.238 686.322,314.238 C685.256661,314.238 684.276338,314.022669 683.381,313.592 C682.485662,313.161331 681.777336,312.560671 681.256,311.79 C680.734664,311.019329 680.474,310.169338 680.474,309.24 C680.474,307.993327 680.79133,307.024337 681.426,306.333 C682.06067,305.641663 683.103326,305.143002 684.554,304.837 C686.004674,304.530998 688.021987,304.378 690.606,304.378 L691.354,304.378 L691.354,303.256 C691.354,301.873326 691.070669,300.870336 690.504,300.247 C689.93733,299.623664 689.01934,299.312 687.75,299.312 C685.84599,299.312 683.953343,299.901327 682.072,301.08 L681.154,299.074 C682.015338,298.461997 683.052327,297.969002 684.265,297.595 C685.477673,297.220998 686.650661,297.034 687.784,297.034 C689.892011,297.034 691.461662,297.572328 692.493,298.649 Z M690.045,310.685 C690.917671,309.766995 691.354,308.582674 691.354,307.132 L691.354,306.146 L690.742,306.146 C688.747323,306.146 687.228672,306.230999 686.186,306.401 C685.143328,306.571001 684.401002,306.854331 683.959,307.251 C683.516998,307.647669 683.296,308.231329 683.296,309.002 C683.296,309.886004 683.618997,310.616997 684.265,311.195 C684.911003,311.773003 685.721328,312.062 686.696,312.062 C688.056007,312.062 689.172329,311.603005 690.045,310.685 Z M699.072,297.442 L701.826,297.442 L701.826,314 L699.072,314 L699.072,297.442 Z M702.132,290.268 L702.132,293.362 L698.8,293.362 L698.8,290.268 L702.132,290.268 Z M706.96,290.03 L709.714,290.03 L709.714,314 L706.96,314 L706.96,290.03 Z M713.828,312.096 L714.746,310.056 C715.630004,310.75867 716.530995,311.262998 717.449,311.569 C718.367005,311.875002 719.403994,312.028 720.56,312.028 C721.784006,312.028 722.718997,311.818335 723.365,311.399 C724.011003,310.979665 724.334,310.373337 724.334,309.58 C724.334,308.922663 724.118669,308.401335 723.688,308.016 C723.257331,307.630665 722.543338,307.324668 721.546,307.098 L718.758,306.452 C717.35266,306.134665 716.276004,305.590671 715.528,304.82 C714.779996,304.049329 714.406,303.097339 714.406,301.964 C714.406,300.490659 714.983994,299.300671 716.14,298.394 C717.296006,297.487329 718.837324,297.034 720.764,297.034 C721.920006,297.034 723.019328,297.220998 724.062,297.595 C725.104672,297.969002 725.97733,298.50733 726.68,299.21 L725.762,301.216 C724.243326,299.923994 722.577342,299.278 720.764,299.278 C719.607994,299.278 718.707003,299.498998 718.061,299.941 C717.414997,300.383002 717.092,301.000663 717.092,301.794 C717.092,302.451337 717.290331,302.978331 717.687,303.375 C718.083669,303.771669 718.723996,304.071999 719.608,304.276 L722.43,304.956 C723.971341,305.318668 725.115996,305.86833 725.864,306.605 C726.612004,307.34167 726.986,308.299327 726.986,309.478 C726.986,310.928674 726.402339,312.084662 725.235,312.946 C724.067661,313.807338 722.475343,314.238 720.458,314.238 C717.669986,314.238 715.460008,313.524007 713.828,312.096 Z M751.381,298.649 C752.412338,299.725672 752.928,301.363322 752.928,303.562 L752.928,314 L750.242,314 L750.242,311.178 C749.811331,312.152672 749.154004,312.906331 748.27,313.439 C747.385996,313.971669 746.366006,314.238 745.21,314.238 C744.144661,314.238 743.164338,314.022669 742.269,313.592 C741.373662,313.161331 740.665336,312.560671 740.144,311.79 C739.622664,311.019329 739.362,310.169338 739.362,309.24 C739.362,307.993327 739.67933,307.024337 740.314,306.333 C740.94867,305.641663 741.991326,305.143002 743.442,304.837 C744.892674,304.530998 746.909987,304.378 749.494,304.378 L750.242,304.378 L750.242,303.256 C750.242,301.873326 749.958669,300.870336 749.392,300.247 C748.82533,299.623664 747.90734,299.312 746.638,299.312 C744.73399,299.312 742.841343,299.901327 740.96,301.08 L740.042,299.074 C740.903338,298.461997 741.940327,297.969002 743.153,297.595 C744.365673,297.220998 745.538661,297.034 746.672,297.034 C748.780011,297.034 750.349662,297.572328 751.381,298.649 Z M748.933,310.685 C749.805671,309.766995 750.242,308.582674 750.242,307.132 L750.242,306.146 L749.63,306.146 C747.635323,306.146 746.116672,306.230999 745.074,306.401 C744.031328,306.571001 743.289002,306.854331 742.847,307.251 C742.404998,307.647669 742.184,308.231329 742.184,309.002 C742.184,309.886004 742.506997,310.616997 743.153,311.195 C743.799003,311.773003 744.609328,312.062 745.584,312.062 C746.944007,312.062 748.060329,311.603005 748.933,310.685 Z M772.24,303.596 L772.24,314 L769.486,314 L769.486,303.766 C769.486,302.224659 769.18567,301.10267 768.585,300.4 C767.98433,299.69733 767.026673,299.346 765.712,299.346 C764.193326,299.346 762.980671,299.810662 762.074,300.74 C761.167329,301.669338 760.714,302.927325 760.714,304.514 L760.714,314 L757.96,314 L757.96,297.442 L760.68,297.442 L760.68,300.162 C761.224003,299.141995 761.983328,298.365669 762.958,297.833 C763.932672,297.300331 765.043327,297.034 766.29,297.034 C770.256686,297.034 772.24,299.221311 772.24,303.596 Z M791.96,290.03 L791.96,314 L789.206,314 L789.206,310.974 C788.707331,312.016672 787.976338,312.821331 787.013,313.388 C786.049662,313.95467 784.922006,314.238 783.63,314.238 C782.179326,314.238 780.898672,313.875337 779.788,313.15 C778.677328,312.424663 777.816003,311.41034 777.204,310.107 C776.591997,308.80366 776.286,307.290675 776.286,305.568 C776.286,303.867991 776.591997,302.372006 777.204,301.08 C777.816003,299.787994 778.677328,298.79067 779.788,298.088 C780.898672,297.38533 782.179326,297.034 783.63,297.034 C784.922006,297.034 786.049662,297.317331 787.013,297.884 C787.976338,298.45067 788.707331,299.255328 789.206,300.298 L789.206,290.03 L791.96,290.03 Z M787.897,310.311 C788.769671,309.211661 789.206,307.653343 789.206,305.636 C789.206,303.618657 788.769671,302.066005 787.897,300.978 C787.024329,299.889995 785.783341,299.346 784.174,299.346 C782.564659,299.346 781.312338,299.889995 780.417,300.978 C779.521662,302.066005 779.074,303.59599 779.074,305.568 C779.074,307.585343 779.521662,309.154994 780.417,310.277 C781.312338,311.399006 782.564659,311.96 784.174,311.96 C785.783341,311.96 787.024329,311.410339 787.897,310.311 Z M808.586,313.184 C807.384661,312.48133 806.461003,311.489673 805.815,310.209 C805.168997,308.928327 804.846,307.426675 804.846,305.704 C804.846,303.981325 805.18033,302.46834 805.849,301.165 C806.51767,299.86166 807.458327,298.847337 808.671,298.122 C809.883673,297.396663 811.305992,297.034 812.938,297.034 C814.048672,297.034 815.136661,297.232331 816.202,297.629 C817.267339,298.025669 818.128663,298.552663 818.786,299.21 L817.868,301.25 C816.303992,299.98066 814.717341,299.346 813.108,299.346 C811.407992,299.346 810.082005,299.901328 809.13,301.012 C808.177995,302.122672 807.702,303.686657 807.702,305.704 C807.702,307.698677 808.177995,309.239995 809.13,310.328 C810.082005,311.416005 811.407992,311.96 813.108,311.96 C814.717341,311.96 816.303992,311.32534 817.868,310.056 L818.786,312.096 C818.08333,312.753337 817.199339,313.274665 816.134,313.66 C815.068661,314.045335 813.969339,314.238 812.836,314.238 C811.203992,314.238 809.787339,313.88667 808.586,313.184 Z M833.559,298.649 C834.590338,299.725672 835.106,301.363322 835.106,303.562 L835.106,314 L832.42,314 L832.42,311.178 C831.989331,312.152672 831.332004,312.906331 830.448,313.439 C829.563996,313.971669 828.544006,314.238 827.388,314.238 C826.322661,314.238 825.342338,314.022669 824.447,313.592 C823.551662,313.161331 822.843336,312.560671 822.322,311.79 C821.800664,311.019329 821.54,310.169338 821.54,309.24 C821.54,307.993327 821.85733,307.024337 822.492,306.333 C823.12667,305.641663 824.169326,305.143002 825.62,304.837 C827.070674,304.530998 829.087987,304.378 831.672,304.378 L832.42,304.378 L832.42,303.256 C832.42,301.873326 832.13667,300.870336 831.57,300.247 C831.003331,299.623664 830.08534,299.312 828.816,299.312 C826.91199,299.312 825.019343,299.901327 823.138,301.08 L822.22,299.074 C823.081338,298.461997 824.118327,297.969002 825.331,297.595 C826.543673,297.220998 827.716661,297.034 828.85,297.034 C830.958011,297.034 832.527662,297.572328 833.559,298.649 Z M831.111,310.685 C831.983671,309.766995 832.42,308.582674 832.42,307.132 L832.42,306.146 L831.808,306.146 C829.813323,306.146 828.294672,306.230999 827.252,306.401 C826.209328,306.571001 825.467002,306.854331 825.025,307.251 C824.582998,307.647669 824.362,308.231329 824.362,309.002 C824.362,309.886004 824.684997,310.616997 825.331,311.195 C825.977003,311.773003 826.787328,312.062 827.762,312.062 C829.122007,312.062 830.238329,311.603005 831.111,310.685 Z M849.522,299.414 L847.72,299.584 C846.019992,299.742667 844.790337,300.275329 844.031,301.182 C843.271663,302.088671 842.892,303.21066 842.892,304.548 L842.892,314 L840.138,314 L840.138,297.442 L842.824,297.442 L842.824,300.332 C843.753338,298.405324 845.577986,297.328668 848.298,297.102 L849.284,297.034 L849.522,299.414 Z M862.238,311.926 L862.102,314.102 C861.580664,314.192667 861.014003,314.238 860.402,314.238 C858.407323,314.238 856.905672,313.716672 855.897,312.674 C854.888328,311.631328 854.384,310.180676 854.384,308.322 L854.384,299.618 L851.154,299.618 L851.154,297.442 L854.384,297.442 L854.384,292.41 L857.138,292.41 L857.138,297.442 L861.83,297.442 L861.83,299.618 L857.138,299.618 L857.138,308.118 C857.138,310.72468 858.339321,312.028 860.742,312.028 C861.240669,312.028 861.739331,311.994 862.238,311.926 Z" id="Details-and-cart" fill="#44A88B"></path>
                <path d="M706.632,653.846 L694.12,653.846 L691.468,660 L688.612,660 L699.152,636.03 L701.566,636.03 L712.106,660 L709.284,660 L706.632,653.846 Z M705.646,651.534 L700.376,639.26 L695.106,651.534 L705.646,651.534 Z M718.022,659.184 C716.820661,658.48133 715.897003,657.489673 715.251,656.209 C714.604997,654.928327 714.282,653.426675 714.282,651.704 C714.282,649.981325 714.61633,648.46834 715.285,647.165 C715.95367,645.86166 716.894327,644.847337 718.107,644.122 C719.319673,643.396663 720.741992,643.034 722.374,643.034 C723.484672,643.034 724.572661,643.232331 725.638,643.629 C726.703339,644.025669 727.564663,644.552663 728.222,645.21 L727.304,647.25 C725.739992,645.98066 724.153341,645.346 722.544,645.346 C720.843991,645.346 719.518005,645.901328 718.566,647.012 C717.613995,648.122672 717.138,649.686657 717.138,651.704 C717.138,653.698677 717.613995,655.239995 718.566,656.328 C719.518005,657.416005 720.843991,657.96 722.544,657.96 C724.153341,657.96 725.739992,657.32534 727.304,656.056 L728.222,658.096 C727.51933,658.753337 726.635339,659.274665 725.57,659.66 C724.504661,660.045335 723.405339,660.238 722.272,660.238 C720.639992,660.238 719.223339,659.88667 718.022,659.184 Z M740.36,657.926 L740.224,660.102 C739.702664,660.192667 739.136003,660.238 738.524,660.238 C736.529323,660.238 735.027672,659.716672 734.019,658.674 C733.010328,657.631328 732.506,656.180676 732.506,654.322 L732.506,645.618 L729.276,645.618 L729.276,643.442 L732.506,643.442 L732.506,638.41 L735.26,638.41 L735.26,643.442 L739.952,643.442 L739.952,645.618 L735.26,645.618 L735.26,654.118 C735.26,656.72468 736.461321,658.028 738.864,658.028 C739.362669,658.028 739.861331,657.994 740.36,657.926 Z M743.148,643.442 L745.902,643.442 L745.902,660 L743.148,660 L743.148,643.442 Z M746.208,636.268 L746.208,639.362 L742.876,639.362 L742.876,636.268 L746.208,636.268 Z M753.773,659.184 C752.582994,658.48133 751.665003,657.47834 751.019,656.175 C750.372997,654.87166 750.05,653.358675 750.05,651.636 C750.05,649.913325 750.372997,648.40034 751.019,647.097 C751.665003,645.79366 752.582994,644.79067 753.773,644.088 C754.963006,643.38533 756.339992,643.034 757.904,643.034 C759.468008,643.034 760.850661,643.38533 762.052,644.088 C763.253339,644.79067 764.176997,645.79366 764.823,647.097 C765.469003,648.40034 765.792,649.913325 765.792,651.636 C765.792,653.358675 765.469003,654.87166 764.823,656.175 C764.176997,657.47834 763.253339,658.48133 762.052,659.184 C760.850661,659.88667 759.468008,660.238 757.904,660.238 C756.339992,660.238 754.963006,659.88667 753.773,659.184 Z M761.661,656.345 C762.533671,655.268328 762.97,653.698677 762.97,651.636 C762.97,649.618657 762.528004,648.060339 761.644,646.961 C760.759996,645.861661 759.513341,645.312 757.904,645.312 C756.294659,645.312 755.048004,645.861661 754.164,646.961 C753.279996,648.060339 752.838,649.618657 752.838,651.636 C752.838,653.67601 753.274329,655.239995 754.147,656.328 C755.019671,657.416005 756.271992,657.96 757.904,657.96 C759.536008,657.96 760.788329,657.421672 761.661,656.345 Z M784.186,649.596 L784.186,660 L781.432,660 L781.432,649.766 C781.432,648.224659 781.13167,647.10267 780.531,646.4 C779.93033,645.69733 778.972673,645.346 777.658,645.346 C776.139326,645.346 774.926671,645.810662 774.02,646.74 C773.113329,647.669338 772.66,648.927325 772.66,650.514 L772.66,660 L769.906,660 L769.906,643.442 L772.626,643.442 L772.626,646.162 C773.170003,645.141995 773.929328,644.365669 774.904,643.833 C775.878672,643.300331 776.989327,643.034 778.236,643.034 C782.202686,643.034 784.186,645.221311 784.186,649.596 Z M788.198,658.096 L789.116,656.056 C790.000004,656.75867 790.900995,657.262998 791.819,657.569 C792.737005,657.875002 793.773994,658.028 794.93,658.028 C796.154006,658.028 797.088997,657.818335 797.735,657.399 C798.381003,656.979665 798.704,656.373337 798.704,655.58 C798.704,654.922663 798.488669,654.401335 798.058,654.016 C797.627331,653.630665 796.913338,653.324668 795.916,653.098 L793.128,652.452 C791.72266,652.134665 790.646004,651.590671 789.898,650.82 C789.149996,650.049329 788.776,649.097339 788.776,647.964 C788.776,646.490659 789.353994,645.300671 790.51,644.394 C791.666006,643.487329 793.207324,643.034 795.134,643.034 C796.290006,643.034 797.389328,643.220998 798.432,643.595 C799.474672,643.969002 800.34733,644.50733 801.05,645.21 L800.132,647.216 C798.613326,645.923994 796.947342,645.278 795.134,645.278 C793.977994,645.278 793.077003,645.498998 792.431,645.941 C791.784997,646.383002 791.462,647.000663 791.462,647.794 C791.462,648.451337 791.660331,648.978331 792.057,649.375 C792.453669,649.771669 793.093996,650.071999 793.978,650.276 L796.8,650.956 C798.341341,651.318668 799.485996,651.86833 800.234,652.605 C800.982004,653.34167 801.356,654.299327 801.356,655.478 C801.356,656.928674 800.772339,658.084662 799.605,658.946 C798.437661,659.807338 796.845343,660.238 794.828,660.238 C792.039986,660.238 789.830008,659.524007 788.198,658.096 Z" id="Actions" fill="#44A88B"></path>
            </g>
        </g>
    </g>
</svg>