<?xml version="1.0" encoding="UTF-8"?>
<svg width="742px" height="618px" viewBox="0 0 742 618" version="1.1" xmlns="http://www.w3.org/2000/svg" xmlns:xlink="http://www.w3.org/1999/xlink">
    <!-- Generator: Sketch 45.2 (43514) - http://www.bohemiancoding.com/sketch -->
    <title>Group 8</title>
    <desc>Created with Sketch.</desc>
    <defs></defs>
    <g id="Visuals" stroke="none" stroke-width="1" fill="none" fill-rule="evenodd" opacity="0.143002717">
        <g id="Landing-Page" transform="translate(-698.000000, -3491.000000)" fill-rule="nonzero" fill="#FFFFFF">
            <g id="Group-7" transform="translate(0.000000, 3491.000000)">
                <g id="Group-8" transform="translate(1664.582632, 406.834008) rotate(-19.000000) translate(-1664.582632, -406.834008) translate(800.582632, -172.665992)">
                    <path d="M144,96 C117.490332,96 96,117.490332 96,144 L96,1008 C96,1034.50967 117.490332,1056 144,1056 L1584,1056 C1610.50967,1056 1632,1034.50967 1632,1008 L1632,144 C1632,117.490332 1610.50967,96 1584,96 L144,96 Z M144,-5.68434189e-13 L1584,-5.68434189e-13 C1663.529,-5.82645043e-13 1728,64.470996 1728,144 L1728,1008 C1728,1087.529 1663.529,1152 1584,1152 L144,1152 C64.470996,1152 -7.81597009e-13,1087.529 -7.95807864e-13,1008 L-7.95807864e-13,144 C-8.10018719e-13,64.470996 64.470996,-4.97379915e-13 144,-5.68434189e-13 Z" id="Rectangle-15"></path>
                    <path d="M549.196562,459.86494 L53.517496,133.714105 L106.285895,53.517496 L798.250429,508.821798 C829.757336,529.552962 870.48423,529.914697 902.354404,509.746449 L1622.89284,53.7715827 L1674.22842,134.892842 L1181.75634,446.541573 L1690.44072,1017.14154 L1618.78207,1081.02454 L1099.53334,498.574359 L953.68998,590.867708 C889.949631,631.204206 808.495842,630.480734 745.48203,589.018407 L629.54021,512.73009 L146.377803,1158.31977 L69.518992,1100.79827 L549.196562,459.86494 Z" id="Combined-Shape"></path>
                </g>
            </g>
        </g>
    </g>
</svg>