<?xml version="1.0" encoding="UTF-8"?>
<svg width="726px" height="474px" viewBox="0 0 726 474" version="1.1" xmlns="http://www.w3.org/2000/svg" xmlns:xlink="http://www.w3.org/1999/xlink">
    <!-- Generator: Sketch 45.2 (43514) - http://www.bohemiancoding.com/sketch -->
    <title>dematic-sprint</title>
    <desc>Created with Sketch.</desc>
    <defs></defs>
    <g id="Visuals-Asset-Export" stroke="none" stroke-width="1" fill="none" fill-rule="evenodd">
        <g id="Dematic" transform="translate(-1621.000000, -9417.000000)" fill="#6F6F8F">
            <g id="dematic-sprint" transform="translate(1620.000000, 9408.000000)">
                <path d="M307.568,28.672 L307.568,32 L293.648,32 L293.648,28.672 L298.544,28.672 L298.544,14.144 L294.672,16.48 L293.04,13.472 L299.728,9.44 L302.672,9.44 L302.672,28.672 L307.568,28.672 Z M315.408,27.584 L315.408,32 L310.928,32 L310.928,27.584 L315.408,27.584 Z M333.552,12.832 L326.192,12.832 L326.192,9.44 L345.04,9.44 L345.04,12.832 L337.68,12.832 L337.68,32 L333.552,32 L333.552,12.832 Z M356.624,17.568 C357.690672,18.634672 358.224,20.2773222 358.224,22.496 L358.224,32 L354.416,32 L354.416,29.6 C354.053332,30.4320042 353.482671,31.0826643 352.704,31.552 C351.925329,32.0213357 351.024005,32.256 350,32.256 C348.954661,32.256 348.005338,32.0426688 347.152,31.616 C346.298662,31.1893312 345.626669,30.6026704 345.136,29.856 C344.645331,29.1093296 344.4,28.2773379 344.4,27.36 C344.4,26.2079942 344.69333,25.3013366 345.28,24.64 C345.86667,23.9786634 346.821327,23.4986682 348.144,23.2 C349.466673,22.9013318 351.290655,22.752 353.616,22.752 L354.416,22.752 L354.416,22.016 C354.416,20.949328 354.186669,20.1813357 353.728,19.712 C353.269331,19.2426643 352.506672,19.008 351.44,19.008 C350.607996,19.008 349.738671,19.1519986 348.832,19.44 C347.925329,19.7280014 347.034671,20.1279974 346.16,20.64 L345.04,17.888 C345.914671,17.3333306 346.97066,16.8746685 348.208,16.512 C349.44534,16.1493315 350.618661,15.968 351.728,15.968 C353.925344,15.968 355.557328,16.501328 356.624,17.568 Z M353.408,28.304 C354.080003,27.5893298 354.416,26.6666723 354.416,25.536 L354.416,24.864 L353.84,24.864 C352.41066,24.864 351.301337,24.9279994 350.512,25.056 C349.722663,25.1840006 349.157335,25.4079984 348.816,25.728 C348.474665,26.0480016 348.304,26.4853306 348.304,27.04 C348.304,27.7226701 348.538664,28.2826645 349.008,28.72 C349.477336,29.1573355 350.074663,29.376 350.8,29.376 C351.866672,29.376 352.735997,29.0186702 353.408,28.304 Z M372.592,19.296 L370.256,19.52 C367.610653,19.7973347 366.288,21.1413213 366.288,23.552 L366.288,32 L362.288,32 L362.288,16.352 L366.096,16.352 L366.096,19.104 C366.906671,17.2266573 368.581321,16.2026675 371.12,16.032 L372.336,15.936 L372.592,19.296 Z M389.456,16.352 L389.456,30.56 C389.456,33.0133456 388.778673,34.869327 387.424,36.128 C386.069327,37.386673 384.069347,38.016 381.424,38.016 C380.05866,38.016 378.746673,37.8400018 377.488,37.488 C376.229327,37.1359982 375.130671,36.6400032 374.192,36 L375.312,33.184 C377.253343,34.3573392 379.258656,34.944 381.328,34.944 C384.101347,34.944 385.488,33.5786803 385.488,30.848 L385.488,28.8 C385.018664,29.674671 384.336004,30.3519976 383.44,30.832 C382.543996,31.3120024 381.520006,31.552 380.368,31.552 C379.00266,31.552 377.792005,31.2266699 376.736,30.576 C375.679995,29.9253301 374.853336,29.0133392 374.256,27.84 C373.658664,26.6666608 373.36,25.3120077 373.36,23.776 C373.36,22.2399923 373.65333,20.8800059 374.24,19.696 C374.82667,18.5119941 375.653328,17.5946699 376.72,16.944 C377.786672,16.2933301 379.00266,15.968 380.368,15.968 C381.520006,15.968 382.543996,16.2079976 383.44,16.688 C384.336004,17.1680024 385.018664,17.845329 385.488,18.72 L385.488,16.352 L389.456,16.352 Z M384.416,27.2 C385.13067,26.3679958 385.488,25.2266739 385.488,23.776 C385.488,22.3039926 385.13067,21.1520042 384.416,20.32 C383.70133,19.4879958 382.704006,19.072 381.424,19.072 C380.165327,19.072 379.173337,19.4879958 378.448,20.32 C377.722663,21.1520042 377.36,22.3039926 377.36,23.776 C377.36,25.2053405 377.722663,26.3413291 378.448,27.184 C379.173337,28.0266709 380.165327,28.448 381.424,28.448 C382.704006,28.448 383.70133,28.0320042 384.416,27.2 Z M407.312,24.896 L396.656,24.896 C396.784001,26.3466739 397.22133,27.4239965 397.968,28.128 C398.71467,28.8320035 399.781326,29.184 401.168,29.184 C402.896009,29.184 404.47466,28.6293389 405.904,27.52 L407.056,30.272 C406.330663,30.8693363 405.418672,31.3493315 404.32,31.712 C403.221328,32.0746685 402.117339,32.256 401.008,32.256 C398.447987,32.256 396.426674,31.5306739 394.944,30.08 C393.461326,28.6293261 392.72,26.6453459 392.72,24.128 C392.72,22.527992 393.039997,21.1093395 393.68,19.872 C394.320003,18.6346605 395.221328,17.6746701 396.384,16.992 C397.546672,16.3093299 398.863993,15.968 400.336,15.968 C402.490677,15.968 404.191994,16.6613264 405.44,18.048 C406.688006,19.4346736 407.312,21.3439878 407.312,23.776 L407.312,24.896 Z M397.856,19.808 C397.20533,20.4906701 396.805334,21.4719936 396.656,22.752 L403.888,22.752 C403.845333,21.4506602 403.525336,20.4640034 402.928,19.792 C402.330664,19.1199966 401.498672,18.784 400.432,18.784 C399.365328,18.784 398.50667,19.1253299 397.856,19.808 Z M419.824,29.152 L419.632,32.128 C418.991997,32.1920003 418.405336,32.224 417.872,32.224 C415.674656,32.224 414.053339,31.7173384 413.008,30.704 C411.962661,29.6906616 411.44,28.1813434 411.44,26.176 L411.44,19.36 L408.432,19.36 L408.432,16.352 L411.44,16.352 L411.44,11.68 L415.44,11.68 L415.44,16.352 L419.568,16.352 L419.568,19.36 L415.44,19.36 L415.44,26.112 C415.44,28.2026771 416.410657,29.248 418.352,29.248 C418.821336,29.248 419.311997,29.2160003 419.824,29.152 Z" id="1.-Target" fill-opacity="0.551403986"></path>
                <path d="M609.504,228.672 L609.504,232 L594.336,232 L594.336,228.96 L602.016,220.704 C602.912004,219.722662 603.567998,218.821337 603.984,218 C604.400002,217.178663 604.608,216.362671 604.608,215.552 C604.608,214.527995 604.31467,213.754669 603.728,213.232 C603.14133,212.709331 602.282672,212.448 601.152,212.448 C599.125323,212.448 597.08801,213.226659 595.04,214.784 L593.664,211.776 C594.560004,210.986663 595.70666,210.352002 597.104,209.872 C598.50134,209.391998 599.903993,209.152 601.312,209.152 C603.573345,209.152 605.365327,209.706661 606.688,210.816 C608.010673,211.925339 608.672,213.418657 608.672,215.296 C608.672,216.59734 608.394669,217.818661 607.84,218.96 C607.285331,220.101339 606.346673,221.375993 605.024,222.784 L599.488,228.672 L609.504,228.672 Z M617.44,227.584 L617.44,232 L612.96,232 L612.96,227.584 L617.44,227.584 Z M633.056,231.584 C631.541326,231.114664 630.261339,230.453338 629.216,229.6 L630.592,226.592 C631.680005,227.424004 632.826661,228.031998 634.032,228.416 C635.237339,228.800002 636.543993,228.992 637.952,228.992 C639.509341,228.992 640.709329,228.720003 641.552,228.176 C642.394671,227.631997 642.816,226.869338 642.816,225.888 C642.816,225.034662 642.426671,224.384002 641.648,223.936 C640.869329,223.487998 639.573342,223.061335 637.76,222.656 C635.882657,222.250665 634.357339,221.781336 633.184,221.248 C632.010661,220.714664 631.125336,220.032004 630.528,219.2 C629.930664,218.367996 629.632,217.312006 629.632,216.032 C629.632,214.709327 629.994663,213.525339 630.72,212.48 C631.445337,211.434661 632.469327,210.61867 633.792,210.032 C635.114673,209.44533 636.639991,209.152 638.368,209.152 C639.946675,209.152 641.45066,209.391998 642.88,209.872 C644.30934,210.352002 645.482662,211.007996 646.4,211.84 L645.024,214.848 C643.018657,213.247992 640.800012,212.448 638.368,212.448 C636.917326,212.448 635.770671,212.74133 634.928,213.328 C634.085329,213.91467 633.664,214.730661 633.664,215.776 C633.664,216.650671 634.03733,217.322664 634.784,217.792 C635.53067,218.261336 636.799991,218.698665 638.592,219.104 C640.490676,219.530669 642.031994,220.005331 643.216,220.528 C644.400006,221.050669 645.306664,221.717329 645.936,222.528 C646.565336,223.338671 646.88,224.36266 646.88,225.6 C646.88,226.944007 646.52267,228.122662 645.808,229.136 C645.09333,230.149338 644.058673,230.927997 642.704,231.472 C641.349327,232.016003 639.754676,232.288 637.92,232.288 C636.191991,232.288 634.570674,232.053336 633.056,231.584 Z M661.056,232 L654.336,224.864 L654.336,232 L650.336,232 L650.336,209.44 L654.336,209.44 L654.336,223.2 L660.64,216.384 L665.504,216.384 L658.464,223.872 L666.016,232 L661.056,232 Z M680.992,224.896 L670.336,224.896 C670.464001,226.346674 670.90133,227.423996 671.648,228.128 C672.39467,228.832004 673.461326,229.184 674.848,229.184 C676.576009,229.184 678.15466,228.629339 679.584,227.52 L680.736,230.272 C680.010663,230.869336 679.098672,231.349332 678,231.712 C676.901328,232.074668 675.797339,232.256 674.688,232.256 C672.127987,232.256 670.106674,231.530674 668.624,230.08 C667.141326,228.629326 666.4,226.645346 666.4,224.128 C666.4,222.527992 666.719997,221.10934 667.36,219.872 C668.000003,218.63466 668.901328,217.67467 670.064,216.992 C671.226672,216.30933 672.543993,215.968 674.016,215.968 C676.170677,215.968 677.871994,216.661326 679.12,218.048 C680.368006,219.434674 680.992,221.343988 680.992,223.776 L680.992,224.896 Z M671.536,219.808 C670.88533,220.49067 670.485334,221.471994 670.336,222.752 L677.568,222.752 C677.525333,221.45066 677.205336,220.464003 676.608,219.792 C676.010664,219.119997 675.178672,218.784 674.112,218.784 C673.045328,218.784 672.18667,219.12533 671.536,219.808 Z M693.504,229.152 L693.312,232.128 C692.671997,232.192 692.085336,232.224 691.552,232.224 C689.354656,232.224 687.733339,231.717338 686.688,230.704 C685.642661,229.690662 685.12,228.181343 685.12,226.176 L685.12,219.36 L682.112,219.36 L682.112,216.352 L685.12,216.352 L685.12,211.68 L689.12,211.68 L689.12,216.352 L693.248,216.352 L693.248,219.36 L689.12,219.36 L689.12,226.112 C689.12,228.202677 690.090657,229.248 692.032,229.248 C692.501336,229.248 692.991997,229.216 693.504,229.152 Z M698.704,231.264 C697.498661,230.602663 696.576003,229.664006 695.936,228.448 C695.295997,227.231994 694.976,225.813341 694.976,224.192 C694.976,222.570659 695.311997,221.136006 695.984,219.888 C696.656003,218.639994 697.61066,217.67467 698.848,216.992 C700.08534,216.30933 701.514659,215.968 703.136,215.968 C704.245339,215.968 705.327995,216.143998 706.384,216.496 C707.440005,216.848002 708.287997,217.322664 708.928,217.92 L707.776,220.736 C707.114663,220.202664 706.416004,219.797335 705.68,219.52 C704.943996,219.242665 704.213337,219.104 703.488,219.104 C702.101326,219.104 701.024004,219.535996 700.256,220.4 C699.487996,221.264004 699.104,222.506659 699.104,224.128 C699.104,225.728008 699.487996,226.959996 700.256,227.824 C701.024004,228.688004 702.101326,229.12 703.488,229.12 C704.213337,229.12 704.943996,228.981335 705.68,228.704 C706.416004,228.426665 707.114663,228.021336 707.776,227.488 L708.928,230.272 C708.24533,230.89067 707.370672,231.375998 706.304,231.728 C705.237328,232.080002 704.128006,232.256 702.976,232.256 C701.333325,232.256 699.909339,231.925337 698.704,231.264 Z M724.736,217.568 C725.653338,218.634672 726.112,220.245323 726.112,222.4 L726.112,232 L722.112,232 L722.112,222.624 C722.112,221.407994 721.882669,220.522669 721.424,219.968 C720.965331,219.413331 720.245338,219.136 719.264,219.136 C718.111994,219.136 717.189337,219.498663 716.496,220.224 C715.802663,220.949337 715.456,221.919994 715.456,223.136 L715.456,232 L711.456,232 L711.456,209.44 L715.456,209.44 L715.456,218.528 C715.989336,217.695996 716.698662,217.061336 717.584,216.624 C718.469338,216.186664 719.455995,215.968 720.544,215.968 C722.421343,215.968 723.818662,216.501328 724.736,217.568 Z" id="2.-Sketch" fill-opacity="0.551403986"></path>
                <path d="M564.144,450.352 C564.85867,451.301338 565.216,452.479993 565.216,453.888 C565.216,455.850676 564.496007,457.402661 563.056,458.544 C561.615993,459.685339 559.658679,460.256 557.184,460.256 C555.669326,460.256 554.21334,460.021336 552.816,459.552 C551.41866,459.082664 550.261338,458.442671 549.344,457.632 L550.72,454.624 C552.682676,456.181341 554.783989,456.96 557.024,456.96 C558.45334,456.96 559.519996,456.677336 560.224,456.112 C560.928004,455.546664 561.28,454.688006 561.28,453.536 C561.28,452.405328 560.92267,451.568003 560.208,451.024 C559.49333,450.479997 558.389341,450.208 556.896,450.208 L553.92,450.208 L553.92,446.944 L556.352,446.944 C559.274681,446.944 560.736,445.845344 560.736,443.648 C560.736,442.623995 560.421336,441.834669 559.792,441.28 C559.162664,440.725331 558.272006,440.448 557.12,440.448 C556.117328,440.448 555.098672,440.645331 554.064,441.04 C553.029328,441.434669 552.021338,442.015996 551.04,442.784 L549.664,439.776 C550.560004,438.965329 551.70666,438.325336 553.104,437.856 C554.50134,437.386664 555.925326,437.152 557.376,437.152 C559.594678,437.152 561.365327,437.690661 562.688,438.768 C564.010673,439.845339 564.672,441.301324 564.672,443.136 C564.650667,444.394673 564.325336,445.487995 563.696,446.416 C563.066664,447.344005 562.197339,448.010665 561.088,448.416 C562.410673,448.757335 563.42933,449.402662 564.144,450.352 Z M573.408,455.584 L573.408,460 L568.928,460 L568.928,455.584 L573.408,455.584 Z M586.24,437.44 L594.56,437.44 C598.250685,437.44 601.114656,438.426657 603.152,440.4 C605.189344,442.373343 606.208,445.141316 606.208,448.704 C606.208,452.266684 605.189344,455.03999 603.152,457.024 C601.114656,459.00801 598.250685,460 594.56,460 L586.24,460 L586.24,437.44 Z M594.304,456.64 C599.488026,456.64 602.08,453.994693 602.08,448.704 C602.08,443.43464 599.488026,440.8 594.304,440.8 L590.368,440.8 L590.368,456.64 L594.304,456.64 Z M623.744,452.896 L613.088,452.896 C613.216001,454.346674 613.65333,455.423996 614.4,456.128 C615.14667,456.832004 616.213326,457.184 617.6,457.184 C619.328009,457.184 620.90666,456.629339 622.336,455.52 L623.488,458.272 C622.762663,458.869336 621.850672,459.349332 620.752,459.712 C619.653328,460.074668 618.549339,460.256 617.44,460.256 C614.879987,460.256 612.858674,459.530674 611.376,458.08 C609.893326,456.629326 609.152,454.645346 609.152,452.128 C609.152,450.527992 609.471997,449.10934 610.112,447.872 C610.752003,446.63466 611.653328,445.67467 612.816,444.992 C613.978672,444.30933 615.295993,443.968 616.768,443.968 C618.922677,443.968 620.623994,444.661326 621.872,446.048 C623.120006,447.434674 623.744,449.343988 623.744,451.776 L623.744,452.896 Z M614.288,447.808 C613.63733,448.49067 613.237334,449.471994 613.088,450.752 L620.32,450.752 C620.277333,449.45066 619.957336,448.464003 619.36,447.792 C618.762664,447.119997 617.930672,446.784 616.864,446.784 C615.797328,446.784 614.93867,447.12533 614.288,447.808 Z M629.872,459.264 C628.666661,458.602663 627.744003,457.664006 627.104,456.448 C626.463997,455.231994 626.144,453.813341 626.144,452.192 C626.144,450.570659 626.479997,449.136006 627.152,447.888 C627.824003,446.639994 628.77866,445.67467 630.016,444.992 C631.25334,444.30933 632.682659,443.968 634.304,443.968 C635.413339,443.968 636.495995,444.143998 637.552,444.496 C638.608005,444.848002 639.455997,445.322664 640.096,445.92 L638.944,448.736 C638.282663,448.202664 637.584004,447.797335 636.848,447.52 C636.111996,447.242665 635.381337,447.104 634.656,447.104 C633.269326,447.104 632.192004,447.535996 631.424,448.4 C630.655996,449.264004 630.272,450.506659 630.272,452.128 C630.272,453.728008 630.655996,454.959996 631.424,455.824 C632.192004,456.688004 633.269326,457.12 634.656,457.12 C635.381337,457.12 636.111996,456.981335 636.848,456.704 C637.584004,456.426665 638.282663,456.021336 638.944,455.488 L640.096,458.272 C639.41333,458.89067 638.538672,459.375998 637.472,459.728 C636.405328,460.080002 635.296006,460.256 634.144,460.256 C632.501325,460.256 631.077339,459.925337 629.872,459.264 Z M642.624,444.352 L646.624,444.352 L646.624,460 L642.624,460 L642.624,444.352 Z M646.816,437.088 L646.816,441.024 L642.4,441.024 L642.4,437.088 L646.816,437.088 Z M665.856,437.44 L665.856,460 L661.888,460 L661.888,457.472 C661.418664,458.346671 660.741338,459.029331 659.856,459.52 C658.970662,460.010669 657.962672,460.256 656.832,460.256 C655.487993,460.256 654.288005,459.91467 653.232,459.232 C652.175995,458.54933 651.35467,457.584006 650.768,456.336 C650.18133,455.087994 649.888,453.653341 649.888,452.032 C649.888,450.410659 650.18133,448.992006 650.768,447.776 C651.35467,446.559994 652.170661,445.621337 653.216,444.96 C654.261339,444.298663 655.46666,443.968 656.832,443.968 C657.962672,443.968 658.965329,444.202664 659.84,444.672 C660.714671,445.141336 661.386664,445.802662 661.856,446.656 L661.856,437.44 L665.856,437.44 Z M660.848,455.84 C661.541337,454.965329 661.888,453.717341 661.888,452.096 C661.888,450.474659 661.541337,449.232004 660.848,448.368 C660.154663,447.503996 659.178673,447.072 657.92,447.072 C656.639994,447.072 655.648004,447.498662 654.944,448.352 C654.239996,449.205338 653.888,450.431992 653.888,452.032 C653.888,453.653341 654.239996,454.911996 654.944,455.808 C655.648004,456.704004 656.629327,457.152 657.888,457.152 C659.168006,457.152 660.154663,456.714671 660.848,455.84 Z M683.712,452.896 L673.056,452.896 C673.184001,454.346674 673.62133,455.423996 674.368,456.128 C675.11467,456.832004 676.181326,457.184 677.568,457.184 C679.296009,457.184 680.87466,456.629339 682.304,455.52 L683.456,458.272 C682.730663,458.869336 681.818672,459.349332 680.72,459.712 C679.621328,460.074668 678.517339,460.256 677.408,460.256 C674.847987,460.256 672.826674,459.530674 671.344,458.08 C669.861326,456.629326 669.12,454.645346 669.12,452.128 C669.12,450.527992 669.439997,449.10934 670.08,447.872 C670.720003,446.63466 671.621328,445.67467 672.784,444.992 C673.946672,444.30933 675.263993,443.968 676.736,443.968 C678.890677,443.968 680.591994,444.661326 681.84,446.048 C683.088006,447.434674 683.712,449.343988 683.712,451.776 L683.712,452.896 Z M674.256,447.808 C673.60533,448.49067 673.205334,449.471994 673.056,450.752 L680.288,450.752 C680.245333,449.45066 679.925336,448.464003 679.328,447.792 C678.730664,447.119997 677.898672,446.784 676.832,446.784 C675.765328,446.784 674.90667,447.12533 674.256,447.808 Z" id="3.-Decide" fill-opacity="0.551403986"></path>
                <path d="M18.336,455.584 L15.168,455.584 L15.168,460 L11.136,460 L11.136,455.584 L1.344,455.584 L1.344,452.544 L11.84,437.44 L15.168,437.44 L15.168,452.384 L18.336,452.384 L18.336,455.584 Z M11.136,452.384 L11.136,443.776 L5.184,452.384 L11.136,452.384 Z M25.408,455.584 L25.408,460 L20.928,460 L20.928,455.584 L25.408,455.584 Z M38.24,437.44 L48.096,437.44 C50.5066787,437.44 52.3839933,438.042661 53.728,439.248 C55.0720067,440.453339 55.744,442.143989 55.744,444.32 C55.744,446.496011 55.0720067,448.191994 53.728,449.408 C52.3839933,450.624006 50.5066787,451.232 48.096,451.232 L42.368,451.232 L42.368,460 L38.24,460 L38.24,437.44 Z M47.584,448.064 C50.4213475,448.064 51.84,446.826679 51.84,444.352 C51.84,443.093327 51.4880035,442.160003 50.784,441.552 C50.0799965,440.943997 49.0133405,440.64 47.584,440.64 L42.368,440.64 L42.368,448.064 L47.584,448.064 Z M68.992,447.296 L66.656,447.52 C64.0106534,447.797335 62.688,449.141321 62.688,451.552 L62.688,460 L58.688,460 L58.688,444.352 L62.496,444.352 L62.496,447.104 C63.3066707,445.226657 64.9813206,444.202668 67.52,444.032 L68.736,443.936 L68.992,447.296 Z M73.552,459.264 C72.3466606,458.602663 71.4133366,457.65334 70.752,456.416 C70.0906634,455.17866 69.76,453.738675 69.76,452.096 C69.76,450.453325 70.0906634,449.018673 70.752,447.792 C71.4133366,446.565327 72.3466606,445.621337 73.552,444.96 C74.7573394,444.298663 76.159992,443.968 77.76,443.968 C79.360008,443.968 80.7626606,444.298663 81.968,444.96 C83.1733394,445.621337 84.1013301,446.565327 84.752,447.792 C85.4026699,449.018673 85.728,450.453325 85.728,452.096 C85.728,453.738675 85.4026699,455.17866 84.752,456.416 C84.1013301,457.65334 83.1733394,458.602663 81.968,459.264 C80.7626606,459.925337 79.360008,460.256 77.76,460.256 C76.159992,460.256 74.7573394,459.925337 73.552,459.264 Z M80.704,455.872 C81.3866701,455.018662 81.728,453.760008 81.728,452.096 C81.728,450.453325 81.3866701,449.200004 80.704,448.336 C80.0213299,447.471996 79.0400064,447.04 77.76,447.04 C76.4799936,447.04 75.4933368,447.471996 74.8,448.336 C74.1066632,449.200004 73.76,450.453325 73.76,452.096 C73.76,453.760008 74.1013299,455.018662 74.784,455.872 C75.4666701,456.725338 76.4479936,457.152 77.728,457.152 C79.0293398,457.152 80.0213299,456.725338 80.704,455.872 Z M98.4,457.152 L98.208,460.128 C97.5679968,460.192 96.981336,460.224 96.448,460.224 C94.2506557,460.224 92.6293386,459.717338 91.584,458.704 C90.5386614,457.690662 90.016,456.181343 90.016,454.176 L90.016,447.36 L87.008,447.36 L87.008,444.352 L90.016,444.352 L90.016,439.68 L94.016,439.68 L94.016,444.352 L98.144,444.352 L98.144,447.36 L94.016,447.36 L94.016,454.112 C94.016,456.202677 94.986657,457.248 96.928,457.248 C97.3973357,457.248 97.8879974,457.216 98.4,457.152 Z M103.664,459.264 C102.458661,458.602663 101.525337,457.65334 100.864,456.416 C100.202663,455.17866 99.872,453.738675 99.872,452.096 C99.872,450.453325 100.202663,449.018673 100.864,447.792 C101.525337,446.565327 102.458661,445.621337 103.664,444.96 C104.869339,444.298663 106.271992,443.968 107.872,443.968 C109.472008,443.968 110.874661,444.298663 112.08,444.96 C113.285339,445.621337 114.21333,446.565327 114.864,447.792 C115.51467,449.018673 115.84,450.453325 115.84,452.096 C115.84,453.738675 115.51467,455.17866 114.864,456.416 C114.21333,457.65334 113.285339,458.602663 112.08,459.264 C110.874661,459.925337 109.472008,460.256 107.872,460.256 C106.271992,460.256 104.869339,459.925337 103.664,459.264 Z M110.816,455.872 C111.49867,455.018662 111.84,453.760008 111.84,452.096 C111.84,450.453325 111.49867,449.200004 110.816,448.336 C110.13333,447.471996 109.152006,447.04 107.872,447.04 C106.591994,447.04 105.605337,447.471996 104.912,448.336 C104.218663,449.200004 103.872,450.453325 103.872,452.096 C103.872,453.760008 104.21333,455.018662 104.896,455.872 C105.57867,456.725338 106.559994,457.152 107.84,457.152 C109.14134,457.152 110.13333,456.725338 110.816,455.872 Z M128.512,457.152 L128.32,460.128 C127.679997,460.192 127.093336,460.224 126.56,460.224 C124.362656,460.224 122.741339,459.717338 121.696,458.704 C120.650661,457.690662 120.128,456.181343 120.128,454.176 L120.128,447.36 L117.12,447.36 L117.12,444.352 L120.128,444.352 L120.128,439.68 L124.128,439.68 L124.128,444.352 L128.256,444.352 L128.256,447.36 L124.128,447.36 L124.128,454.112 C124.128,456.202677 125.098657,457.248 127.04,457.248 C127.509336,457.248 127.999997,457.216 128.512,457.152 Z M146.016,444.384 L136.608,465.76 L132.576,465.76 L135.424,459.392 L128.896,444.384 L133.12,444.384 L137.536,455.424 L142.08,444.384 L146.016,444.384 Z M160.528,444.992 C161.584005,445.67467 162.40533,446.639994 162.992,447.888 C163.57867,449.136006 163.872,450.570659 163.872,452.192 C163.872,453.813341 163.57867,455.231994 162.992,456.448 C162.40533,457.664006 161.589339,458.602663 160.544,459.264 C159.498661,459.925337 158.29334,460.256 156.928,460.256 C155.818661,460.256 154.826671,460.021336 153.952,459.552 C153.077329,459.082664 152.405336,458.432004 151.936,457.6 L151.936,465.76 L147.936,465.76 L147.936,444.352 L151.872,444.352 L151.872,446.72 C152.341336,445.845329 153.018662,445.168002 153.904,444.688 C154.789338,444.207998 155.797328,443.968 156.928,443.968 C158.272007,443.968 159.471995,444.30933 160.528,444.992 Z M158.816,455.856 C159.520004,454.991996 159.872,453.770675 159.872,452.192 C159.872,450.570659 159.520004,449.312004 158.816,448.416 C158.111996,447.519996 157.130673,447.072 155.872,447.072 C154.591994,447.072 153.605337,447.509329 152.912,448.384 C152.218663,449.258671 151.872,450.506659 151.872,452.128 C151.872,453.728008 152.218663,454.965329 152.912,455.84 C153.605337,456.714671 154.591994,457.152 155.872,457.152 C157.130673,457.152 158.111996,456.720004 158.816,455.856 Z M180.896,452.896 L170.24,452.896 C170.368001,454.346674 170.80533,455.423996 171.552,456.128 C172.29867,456.832004 173.365326,457.184 174.752,457.184 C176.480009,457.184 178.05866,456.629339 179.488,455.52 L180.64,458.272 C179.914663,458.869336 179.002672,459.349332 177.904,459.712 C176.805328,460.074668 175.701339,460.256 174.592,460.256 C172.031987,460.256 170.010674,459.530674 168.528,458.08 C167.045326,456.629326 166.304,454.645346 166.304,452.128 C166.304,450.527992 166.623997,449.10934 167.264,447.872 C167.904003,446.63466 168.805328,445.67467 169.968,444.992 C171.130672,444.30933 172.447993,443.968 173.92,443.968 C176.074677,443.968 177.775994,444.661326 179.024,446.048 C180.272006,447.434674 180.896,449.343988 180.896,451.776 L180.896,452.896 Z M171.44,447.808 C170.78933,448.49067 170.389334,449.471994 170.24,450.752 L177.472,450.752 C177.429333,449.45066 177.109336,448.464003 176.512,447.792 C175.914664,447.119997 175.082672,446.784 174.016,446.784 C172.949328,446.784 172.09067,447.12533 171.44,447.808 Z" id="4.-Prototype" fill-opacity="0.551403986"></path>
                <path d="M42.544,218.48 C43.6213387,219.088003 44.4533304,219.935995 45.04,221.024 C45.6266696,222.112005 45.92,223.359993 45.92,224.768 C45.92,226.261341 45.5786701,227.573328 44.896,228.704 C44.2133299,229.834672 43.2480062,230.70933 42,231.328 C40.7519938,231.94667 39.2853418,232.256 37.6,232.256 C36.191993,232.256 34.8000069,232.016002 33.424,231.536 C32.0479931,231.055998 30.9120045,230.421337 30.016,229.632 L31.392,226.624 C33.4400102,228.181341 35.530656,228.96 37.664,228.96 C39.072007,228.96 40.1493296,228.608004 40.896,227.904 C41.6426704,227.199996 42.016,226.19734 42.016,224.896 C42.016,223.637327 41.6373371,222.640004 40.88,221.904 C40.1226629,221.167996 39.0933398,220.8 37.792,220.8 C36.917329,220.8 36.0906706,220.965332 35.312,221.296 C34.5333294,221.626668 33.8346698,222.10133 33.216,222.72 L30.752,222.72 L30.752,209.44 L44.896,209.44 L44.896,212.64 L34.784,212.64 L34.784,218.72 C35.8720054,217.951996 37.215992,217.568 38.816,217.568 C40.224007,217.568 41.4666613,217.871997 42.544,218.48 Z M53.408,227.584 L53.408,232 L48.928,232 L48.928,227.584 L53.408,227.584 Z M71.552,212.832 L64.192,212.832 L64.192,209.44 L83.04,209.44 L83.04,212.832 L75.68,212.832 L75.68,232 L71.552,232 L71.552,212.832 Z M96.736,224.896 L86.08,224.896 C86.2080006,226.346674 86.6453296,227.423996 87.392,228.128 C88.1386704,228.832004 89.2053264,229.184 90.592,229.184 C92.3200086,229.184 93.8986595,228.629339 95.328,227.52 L96.48,230.272 C95.754663,230.869336 94.8426722,231.349332 93.744,231.712 C92.6453278,232.074668 91.5413389,232.256 90.432,232.256 C87.8719872,232.256 85.8506741,231.530674 84.368,230.08 C82.8853259,228.629326 82.144,226.645346 82.144,224.128 C82.144,222.527992 82.4639968,221.10934 83.104,219.872 C83.7440032,218.63466 84.6453275,217.67467 85.808,216.992 C86.9706725,216.30933 88.2879926,215.968 89.76,215.968 C91.9146774,215.968 93.6159938,216.661326 94.864,218.048 C96.1120062,219.434674 96.736,221.343988 96.736,223.776 L96.736,224.896 Z M87.28,219.808 C86.6293301,220.49067 86.2293341,221.471994 86.08,222.752 L93.312,222.752 C93.2693331,221.45066 92.9493363,220.464003 92.352,219.792 C91.7546637,219.119997 90.922672,218.784 89.856,218.784 C88.789328,218.784 87.9306699,219.12533 87.28,219.808 Z M101.936,231.744 C100.773328,231.402665 99.7866707,230.912003 98.976,230.272 L100.096,227.488 C101.760008,228.704006 103.669323,229.312 105.824,229.312 C106.741338,229.312 107.439998,229.162668 107.92,228.864 C108.400002,228.565332 108.64,228.138669 108.64,227.584 C108.64,227.114664 108.474668,226.752001 108.144,226.496 C107.813332,226.239999 107.221338,226.005334 106.368,225.792 L103.808,225.216 C102.357326,224.895998 101.280004,224.373337 100.576,223.648 C99.8719965,222.922663 99.52,221.984006 99.52,220.832 C99.52,219.871995 99.7919973,219.024004 100.336,218.288 C100.880003,217.551996 101.637328,216.981335 102.608,216.576 C103.578672,216.170665 104.703994,215.968 105.984,215.968 C107.093339,215.968 108.165328,216.138665 109.2,216.48 C110.234672,216.821335 111.146663,217.30133 111.936,217.92 L110.816,220.64 C109.194659,219.466661 107.573341,218.88 105.952,218.88 C105.077329,218.88 104.394669,219.039998 103.904,219.36 C103.413331,219.680002 103.168,220.127997 103.168,220.704 C103.168,221.130669 103.322665,221.482665 103.632,221.76 C103.941335,222.037335 104.43733,222.250666 105.12,222.4 L107.776,223.008 C109.333341,223.349335 110.474663,223.887996 111.2,224.624 C111.925337,225.360004 112.288,226.325327 112.288,227.52 C112.288,228.970674 111.701339,230.122662 110.528,230.976 C109.354661,231.829338 107.765343,232.256 105.76,232.256 C104.373326,232.256 103.098672,232.085335 101.936,231.744 Z M124.832,229.152 L124.64,232.128 C123.999997,232.192 123.413336,232.224 122.88,232.224 C120.682656,232.224 119.061339,231.717338 118.016,230.704 C116.970661,229.690662 116.448,228.181343 116.448,226.176 L116.448,219.36 L113.44,219.36 L113.44,216.352 L116.448,216.352 L116.448,211.68 L120.448,211.68 L120.448,216.352 L124.576,216.352 L124.576,219.36 L120.448,219.36 L120.448,226.112 C120.448,228.202677 121.418657,229.248 123.36,229.248 C123.829336,229.248 124.319997,229.216 124.832,229.152 Z" id="5.-Test" fill-opacity="0.551403986"></path>
                <path d="M361,106 C351.611159,106 344,98.3888407 344,89 C344,79.6111593 351.611159,72 361,72 C370.388841,72 378,79.6111593 378,89 C378,98.3888407 370.388841,106 361,106 Z M531.239116,229.685958 C528.337805,220.75664 533.22447,211.16602 542.153788,208.264708 C551.083106,205.363397 560.673727,210.250062 563.575038,219.17938 C566.476349,228.108698 561.589684,237.699319 552.660366,240.60063 C543.731048,243.501941 534.140428,238.615276 531.239116,229.685958 Z M466.21356,429.814042 C473.809292,424.29542 484.440576,425.97925 489.959198,433.574982 C495.47782,441.170713 493.79399,451.801998 486.198259,457.32062 C478.602527,462.839242 467.971243,461.155412 462.452621,453.55968 C456.933998,445.963948 458.617828,435.332664 466.21356,429.814042 Z M255.78644,429.814042 C263.382172,435.332664 265.066002,445.963948 259.547379,453.55968 C254.028757,461.155412 243.397473,462.839242 235.801741,457.32062 C228.20601,451.801998 226.52218,441.170713 232.040802,433.574982 C237.559424,425.97925 248.190708,424.29542 255.78644,429.814042 Z M190.760884,229.685958 C187.859572,238.615276 178.268952,243.501941 169.339634,240.60063 C160.410316,237.699319 155.523651,228.108698 158.424962,219.17938 C161.326273,210.250062 170.916894,205.363397 179.846212,208.264708 C188.77553,211.16602 193.662195,220.75664 190.760884,229.685958 Z" id="Oval-Copy-3"></path>
                <path d="M360,483 C250.095335,483 161,393.904665 161,284 C161,174.095335 250.095335,85 360,85 C469.904665,85 559,174.095335 559,284 C559,393.904665 469.904665,483 360,483 Z M360,477 C466.590957,477 553,390.590957 553,284 C553,177.409043 466.590957,91 360,91 C253.409043,91 167,177.409043 167,284 C167,390.590957 253.409043,477 360,477 Z" id="Oval-4" fill-rule="nonzero"></path>
            </g>
        </g>
    </g>
</svg>